<?xml version="1.0" encoding="utf-8"?>
<!-- Generator: Adobe Illustrator 24.0.3, SVG Export Plug-In . SVG Version: 6.00 Build 0)  -->
<svg version="1.1" id="圖層_1" xmlns="http://www.w3.org/2000/svg" xmlns:xlink="http://www.w3.org/1999/xlink" x="0px" y="0px"
	 viewBox="0 0 522.3 542.5" style="enable-background:new 0 0 522.3 542.5;" xml:space="preserve">
<style type="text/css">
	.st0{fill:#E73E6B;stroke:#030000;stroke-width:2.045;stroke-miterlimit:10;}
	.st1{fill:#FFFFFF;}
	.st2{fill:none;stroke:#231815;stroke-width:2.045;stroke-miterlimit:10;}
	.st3{fill:#231815;}
	.st4{fill:none;stroke:#231815;stroke-width:2.045;stroke-linecap:round;stroke-miterlimit:10;}
	.st5{fill:#FDF42D;stroke:#231815;stroke-width:2.045;stroke-miterlimit:10;}
	.st6{fill:#D75562;stroke:#030000;stroke-width:2.045;stroke-miterlimit:10;}
</style>
<g id="feature4" transform="translate(0.54 0.513)">
	<g id="Group_642" transform="translate(87.96 189.833)">
		<path id="Path_7101" class="st0" d="M46.6,28.6c1-1.5,3-1.9,4.5-0.9c1.4,1.1,1.7,3.1,0.6,4.5c0,0,0,0,0,0c-1,1.5-2.9,1.9-4.4,0.9
			c0,0,0,0,0,0C45.9,32,45.6,30,46.6,28.6C46.6,28.6,46.6,28.6,46.6,28.6"/>
		<path id="Path_7102" class="st0" d="M51.7,48.4c0,0-4.1-12.2-3.4-22.2c0.6-7.8-14.8-12.5-15.9,1.7c-0.8,10.2,2.4,24,5.8,30.6"/>
		<path id="Path_7103" class="st0" d="M113.4,269.6v46.1c0,7.8-6.3,14.1-14,14.1l0,0c-7.8-0.1-14-6.4-14-14.1v-46.1"/>
		<path id="Path_7104" class="st0" d="M29.1,71.1c-44.8,66.1-27.7,155.9,38.1,200.3c65.8,44.4,155.3,26.9,200.1-39.2
			C312,166,294.8,76.3,229.2,31.9C163.4-12.7,73.8,5,29.1,71.1"/>
		<path id="Path_7105" class="st0" d="M247.3,114.7c0.1-1.8-1.3-3.3-3.1-3.4c-1.8,0.1-3.1,1.6-3.1,3.3c0,0,0,0,0,0.1
			c-0.1,1.8,1.3,3.3,3.1,3.4C246,118,247.3,116.5,247.3,114.7C247.3,114.7,247.3,114.7,247.3,114.7"/>
		<path id="Path_7106" class="st0" d="M231.5,127.9c0,0,10.4-7.6,15.6-16c4.1-6.7,19.3-1.6,12,10.7c-5.2,8.8-15.9,18.1-22.5,21.6"/>
		<path id="Path_7107" class="st1" d="M118.7,106.6c-0.5,1-1,1.9-1.7,2.8c-5.9,8.7-15,12.7-20.5,9c-5.4-3.7-5.1-13.7,0.8-22.3
			c0.6-0.9,1.2-1.8,1.9-2.6L118.7,106.6z"/>
		<path id="Path_7108" class="st2" d="M118.7,106.6c-0.5,1-1,1.9-1.7,2.8c-5.9,8.7-15,12.7-20.5,9c-5.4-3.7-5.1-13.7,0.8-22.3
			c0.6-0.9,1.2-1.8,1.9-2.6L118.7,106.6z"/>
		<path id="Path_7109" class="st3" d="M98.4,95.8c-3.2,4.7-3.4,10.2-0.5,12.2c2.9,2,8-0.2,11.2-4.9c3.2-4.7,3.4-10.2,0.5-12.2
			C106.5,88.9,101.6,91.2,98.4,95.8"/>
		<path id="Path_7110" class="st0" d="M117.7,87c4.9,3.3,5.1,11.6,0.9,19.6L99.2,93.5C105.1,86.7,112.9,83.7,117.7,87"/>
		<path id="Path_7111" class="st2" d="M117.7,87c4.9,3.3,5.1,11.6,0.9,19.6L99.2,93.5C105.1,86.7,112.9,83.7,117.7,87z"/>
		<path id="Path_7112" class="st4" d="M127,97.4c-1.6,1-3.6,1-5.3,0.1"/>
		<path id="Path_7113" class="st4" d="M126.9,100.5c-1.7,0.8-3.7,0.6-5.3-0.5"/>
		<path id="Path_7114" class="st4" d="M126.9,94.6c-1.6,1-3.6,1.2-5.3,0.3"/>
		<path id="Path_7115" class="st1" d="M62.1,68.4c-0.7,0.8-1.3,1.7-1.9,2.6c-5.9,8.7-6.2,18.6-0.8,22.3c5.4,3.7,14.6-0.3,20.5-9
			c0.6-0.9,1.1-1.8,1.7-2.8L62.1,68.4z"/>
		<path id="Path_7116" class="st2" d="M62.1,68.4c-0.7,0.8-1.3,1.7-1.9,2.6c-5.9,8.7-6.2,18.6-0.8,22.3c5.4,3.7,14.6-0.3,20.5-9
			c0.6-0.9,1.1-1.8,1.7-2.8L62.1,68.4z"/>
		<path id="Path_7117" class="st3" d="M72,78.1c-3.2,4.7-8.1,6.9-11.2,5c-2.9-2-2.8-7.5,0.5-12.2c3.2-4.7,8.3-6.9,11.2-5
			C75.3,67.8,75.1,73.3,72,78.1"/>
		<path id="Path_7118" class="st0" d="M80.7,61.9c-4.9-3.3-12.7-0.5-18.4,6.4l19.4,13.1C85.7,73.6,85.5,65.2,80.7,61.9"/>
		<path id="Path_7119" class="st2" d="M80.7,61.9c-4.9-3.3-12.7-0.5-18.4,6.4l19.4,13.1C85.7,73.6,85.5,65.2,80.7,61.9z"/>
		<path id="Path_7120" class="st4" d="M67.5,57.3c-0.3,1.9,0.4,3.8,1.9,5"/>
		<path id="Path_7121" class="st4" d="M64.8,58.5c-0.1,1.9,0.8,3.7,2.4,4.7"/>
		<path id="Path_7122" class="st4" d="M70.1,56.3c-0.4,1.9,0.2,3.8,1.6,5.1"/>
		<path id="Path_7123" class="st4" d="M85.6,123.5c0,0-8.4,1.4-7.7,11.4"/>
		<path id="Path_7124" class="st4" d="M59.9,106.1c0,0,1.8,8.3-7.7,11.4"/>
		<line id="Line_29" class="st2" x1="79.5" y1="127.7" x2="58.3" y2="113.3"/>
		<path id="Path_7125" class="st1" d="M62.1,116.3l2.5,1.7l2.5,1.7c0,0-1.4,3.1-3.7,1.5l-0.6-0.3l-0.6-0.3
			C59.9,118.7,62.1,116.3,62.1,116.3"/>
		<path id="Path_7126" class="st2" d="M62.2,116.2l2.5,1.7l2.5,1.7c0,0-1.6,3.5-4.1,1.8l-0.6-0.3l-0.6-0.3
			C59.6,118.9,62.2,116.2,62.2,116.2z"/>
		<path id="Path_7127" class="st1" d="M70.4,121.8l2.5,1.7l2.5,1.7c0,0-1.4,3.1-3.7,1.5l-0.6-0.3l-0.6-0.3
			C68,124.2,70.4,121.8,70.4,121.8"/>
		<path id="Path_7128" class="st2" d="M70.5,121.7l2.5,1.7l2.5,1.7c0,0-1.6,3.5-4.1,1.8l-0.6-0.3l-0.6-0.3
			C67.9,124.4,70.5,121.7,70.5,121.7z"/>
		<path id="Path_7129" class="st0" d="M184.3,284.8v46.1c0,7.8-6.3,14.1-14,14.1l0,0c-7.8-0.1-14-6.4-14-14.1v-40.1"/>
		<path id="Path_7130" class="st0" d="M232.7,34.2c0,0-15.8-9.4-19.9-31c0,0-0.7-2.3-2.9-0.1c0,0-15.4,13.6-11.1,24.8"/>
	</g>
	<path id="Path_7131" class="st5" d="M384.9,324.5L13.2,161.1c-5.8-2.6-8.5-9.5-5.8-15.3c0.4-1,1-1.8,1.7-2.7L121,11
		c3.3-3.8,8.7-5.1,13.3-3.1l374.6,164.6c4.7,2,6.8,7.5,4.7,12.1c-0.4,0.8-0.9,1.6-1.5,2.3L398.3,321.5
		C395,325.3,389.6,326.6,384.9,324.5z"/>
	<g id="Group_643" transform="translate(176.723 77.391)">
		<path id="Path_7132" class="st6" d="M46.3,17.3c1.5,0.6,3,1.3,4.4,2.1c0.6,0.3,0.9,0.9,0.8,1.6c0,0.6-0.3,1.3-0.8,1.7
			c-6.5,7.2-14,13.5-22.2,18.8c-0.2,0.2-0.5,0.5-0.3,0.7c0.3,1.4,0.6,2.8,0.8,4.3c0.1,1.1-0.3,2.1-1.1,2.8c-0.8,0.8-1.8,1.5-2.8,1.9
			L22.9,52c-0.8,0.4-1.8,0.5-2.6,0.1l0,0c-0.7-0.2-1.1-0.9-1.1-1.6c0-0.9-0.1-1.9-0.2-3.2c0-0.2-0.2-0.3-0.6-0.1
			c-4.2,1.9-8.5,3.3-13,4.2c-0.7,0.1-1.4,0.1-2-0.1c-0.2-0.1-0.4-0.2-0.6-0.3c-0.7-0.5-1-1.3-0.8-2.1c0-0.6,0.1-1,0.1-1.6
			c0.1-0.7,0.4-1.3,0.9-1.8c0.1-0.1,0.3-0.3,0.3-0.5C4.1,44.3,5,43.8,6,43.6c3.8-0.7,7.4-1.9,10.9-3.6c0.3-0.1,0.5-0.3,0.3-0.6
			l-0.3-1.2c0-0.1-0.1-0.1-0.2,0c-0.3,0.3-0.7,0.4-1.1,0.5c-0.3,0-0.6-0.1-0.8-0.3l-1.5-2.4c-0.4-0.8-0.5-1.7-0.1-2.5
			c0.3-0.6,0.6-1.2,1-1.7c0.3-0.4,0.6-0.7,1-0.9c3.6-2.8,8.1-6.4,13.5-10.9c0.2-0.2,0.3-0.5,0-0.6l-0.2-0.1c-0.8-0.2-1.4-1-1.5-1.8
			c-0.1-0.9,0.3-1.9,1-2.5l0.9-0.9c0.7-0.8,1.7-1.4,2.7-1.7c0.9-0.3,2-0.3,2.9,0l1.6,0.7c0.2,0.1,0.5,0,0.8-0.2
			c2-1.8,4.4-3.8,7.1-6.2c0.9-0.8,1.9-1.3,3.1-1.5C47.9,5,48.8,5,49.6,5.4c0.1,0,0.2,0.1,0.3,0.2l1,0.6c0.7,0.3,1.2,1.1,1.1,1.9
			C52,8.8,51.7,9.5,51.2,10l-0.5,0.5c-2.3,1.9-4.4,3.7-6.6,5.5c-0.2,0.2-0.2,0.3,0,0.5L46.3,17.3z M38.9,24.1c0.2-0.2,0.3-0.5,0-0.6
			l-2.4-1c-0.3-0.1-0.6,0-0.8,0.2c-2.4,1.9-5.9,4.7-10.5,8.5C25,31.5,24.9,31.7,25,32c0.3,0.8,0.6,1.6,0.8,2.4
			c0.1,0.2,0.2,0.2,0.6,0C30.8,31.2,35,27.8,38.9,24.1z M69.9,41.2c0.8,0.3,1.4,1,1.5,1.8c0.1,0.9-0.3,1.9-1,2.5l-1,1.1
			c-0.8,0.8-1.8,1.4-2.8,1.7c-1,0.4-2,0.3-2.9-0.1l-7.8-3.3c-0.3-0.1-0.6,0-0.8,0.2L43.2,58.3c-1.3,1.5-2.8,2.8-4.4,4
			c-1.4,0.8-2.9,1.3-4.5,1.5c-2.5,0-4.9-0.5-7.2-1.4c-0.1,0-0.1-0.1-0.2-0.1c-0.7-0.3-1.3-0.9-1.6-1.6c-0.2-0.9-0.1-1.9,0.5-2.7
			c0.3-0.7,0.6-1.3,0.8-2c0.1-0.3,0.3-0.6,0.6-0.8c0.4-0.4,0.8-0.7,1.2-0.9c0.7-0.4,1.6-0.4,2.4-0.1l0,0c0.8,0.3,1.4,0.6,1.8,0.8
			c0.5,0.2,0.8,0.3,1,0.5c0.4,0.2,0.7,0.3,1.1,0.2c0.3-0.1,0.6-0.3,0.8-0.6L47,42c0.2-0.2,0.2-0.5-0.1-0.6l-7.1-3.1
			c-0.8-0.3-1.4-1-1.5-1.8c-0.1-0.9,0.3-1.8,0.9-2.5l1-1.1c0.8-0.8,1.7-1.4,2.8-1.7c0.9-0.3,2-0.3,2.9,0l7.1,3.1
			c0.3,0.1,0.6,0,0.8-0.2l2.8-3.2c0.5-0.5,1.1-0.9,1.8-1.1c0.6-0.2,1.3-0.2,1.9,0c0.2,0.1,0.4,0.1,0.6,0c2.7-1,5.4-2.1,8-3.4
			c0.1,0,0.1-0.1,0.2-0.2c0-0.1,0-0.1-0.1-0.2l-11.6-4.9c-0.8-0.3-1.4-1-1.5-1.8c-0.1-0.9,0.3-1.9,1-2.5l0.8-0.9
			c0.8-0.8,1.8-1.4,2.8-1.7c1-0.4,2-0.3,2.9,0.1l16.7,7c0.1,0.1,0.2,0.1,0.5,0.1c0.3,0,0.6,0.1,0.9,0.2c0.6,0.2,1.1,0.7,1.2,1.4
			l0.6,1.6c0.2,0.9,0,1.8-0.6,2.5c-0.1,0.2-0.3,0.4-0.5,0.6c-0.6,0.6-1.3,1.1-2.1,1.5c-6.3,2.7-11.9,4.7-16.5,6.2
			c-0.3,0.1-0.6,0.2-0.8,0.5l-1.2,1.4c-0.2,0.2-0.2,0.5,0.1,0.6L69.9,41.2z"/>
		<path id="Path_7133" class="st6" d="M100.2,39.9c1.5,0.6,3,1.3,4.4,2.1c0.6,0.3,0.9,0.9,0.8,1.6c0,0.6-0.3,1.3-0.8,1.7
			c-6.5,7.2-14,13.5-22.2,18.8c-0.2,0.2-0.5,0.5-0.3,0.7c0.3,1.4,0.6,2.8,0.8,4.3c0.1,1.1-0.3,2.1-1.1,2.8c-0.8,0.8-1.8,1.5-2.8,1.9
			l-2.1,0.8C76,75,75,75,74.2,74.7l0,0c-0.7-0.2-1.1-0.9-1.1-1.6c0-0.9-0.1-1.9-0.2-3.2c0-0.2-0.2-0.3-0.6-0.1
			c-4.2,1.9-8.5,3.3-13,4.2c-0.7,0.1-1.4,0.1-2-0.1c-0.2-0.1-0.4-0.2-0.6-0.3c-0.7-0.5-1-1.3-0.8-2.1c0-0.6,0.1-1,0.1-1.6
			c0.1-0.7,0.4-1.3,0.9-1.8c0.1-0.1,0.3-0.3,0.3-0.5c0.8-0.7,1.7-1.1,2.7-1.4c3.8-0.7,7.4-1.9,10.9-3.6c0.3-0.1,0.5-0.3,0.3-0.6
			l-0.3-1.2c0-0.1-0.1-0.1-0.2,0c-0.3,0.3-0.7,0.4-1.1,0.5c-0.3,0-0.6-0.1-0.8-0.3l-1.5-2.4c-0.4-0.8-0.5-1.7-0.1-2.5
			c0.3-0.6,0.6-1.2,1-1.7c0.3-0.4,0.6-0.7,1-0.9c3.6-2.8,8.1-6.4,13.5-10.9c0.2-0.2,0.3-0.5,0-0.6l-0.2-0.1c-0.8-0.2-1.4-1-1.5-1.8
			c-0.1-0.9,0.3-1.9,1-2.5l0.9-0.9c0.7-0.8,1.7-1.4,2.7-1.7c0.9-0.3,2-0.3,2.9,0l1.6,0.7c0.2,0.1,0.5,0,0.8-0.2
			c2-1.8,4.4-3.8,7.1-6.2c0.9-0.8,1.9-1.3,3.1-1.5c0.9-0.2,1.8-0.1,2.6,0.2c0.1,0,0.2,0.1,0.3,0.2l1,0.6c0.7,0.3,1.2,1.1,1.1,1.9
			c-0.1,0.7-0.4,1.4-0.9,1.9l-0.5,0.5c-2.3,1.9-4.4,3.7-6.6,5.5c-0.2,0.2-0.2,0.3,0,0.5L100.2,39.9z M92.8,46.8
			c0.2-0.2,0.3-0.5,0-0.6l-2.4-1c-0.3-0.1-0.6,0-0.8,0.2c-2.4,1.9-5.9,4.7-10.5,8.5c-0.2,0.2-0.3,0.5-0.2,0.7
			c0.3,0.8,0.6,1.6,0.8,2.4c0.1,0.2,0.2,0.2,0.6,0C84.7,53.8,88.9,50.4,92.8,46.8L92.8,46.8z M123.8,63.9c0.8,0.3,1.4,1,1.5,1.8
			c0.1,0.9-0.3,1.9-1,2.5l-1,1.1c-0.8,0.8-1.8,1.4-2.8,1.7c-1,0.4-2,0.3-2.9-0.1l-7.8-3.3c-0.3-0.1-0.6,0-0.8,0.2L97.1,81
			c-1.3,1.5-2.8,2.8-4.4,4c-1.4,0.8-2.9,1.3-4.5,1.5c-2.5,0-4.9-0.5-7.2-1.4c-0.1,0-0.1-0.1-0.2-0.1c-0.7-0.3-1.3-0.9-1.6-1.6
			c-0.2-0.9-0.1-1.9,0.5-2.7c0.3-0.7,0.6-1.3,0.8-2c0.1-0.3,0.3-0.6,0.6-0.8c0.4-0.4,0.8-0.7,1.2-0.9c0.7-0.4,1.6-0.4,2.4-0.1l0,0
			c0.8,0.3,1.4,0.6,1.8,0.8c0.5,0.2,0.8,0.3,1,0.5c0.4,0.2,0.7,0.3,1.1,0.2c0.3-0.1,0.6-0.3,0.8-0.6l11.6-13
			c0.2-0.2,0.2-0.5-0.1-0.6l-7.1-3.1c-0.8-0.3-1.4-1-1.5-1.8c-0.1-0.9,0.3-1.8,0.9-2.5l1-1.1c0.8-0.8,1.7-1.4,2.8-1.7
			c0.9-0.3,2-0.3,2.9,0l7.1,3.1c0.3,0.1,0.6,0,0.8-0.2l2.8-3.2c0.5-0.5,1.1-0.9,1.8-1.1c0.6-0.2,1.3-0.2,1.9,0
			c0.2,0.1,0.4,0.1,0.6,0c2.7-1,5.4-2.1,8-3.4c0.1,0,0.1-0.1,0.2-0.2c0-0.1,0-0.1-0.1-0.2l-11.6-4.9c-0.8-0.3-1.4-1-1.5-1.8
			c-0.1-0.9,0.3-1.9,1-2.5l0.8-0.9c0.8-0.8,1.8-1.4,2.8-1.7c1-0.4,2-0.3,2.9,0.1l16.7,7c0.1,0.1,0.2,0.1,0.5,0.1
			c0.3,0,0.6,0.1,0.9,0.2c0.6,0.2,1.1,0.7,1.2,1.4l0.6,1.6c0.2,0.9,0,1.8-0.6,2.5c-0.1,0.2-0.3,0.4-0.5,0.6
			c-0.6,0.6-1.3,1.1-2.1,1.5c-6.3,2.7-11.9,4.7-16.5,6.2c-0.3,0.1-0.6,0.2-0.8,0.5l-1.2,1.4c-0.2,0.2-0.2,0.5,0.1,0.6L123.8,63.9z"
			/>
		<path id="Path_7134" class="st6" d="M135,84.5c-0.8,0.8-1.7,1.4-2.8,1.7c-0.9,0.3-2,0.3-2.9,0l-4.6-1.9c-0.2-0.1-0.5,0-0.7,0.2
			l-0.7,0.8c-0.7,0.8-1.7,1.4-2.7,1.7c-0.9,0.3-2,0.3-2.9,0c-0.8-0.2-1.3-1-1.4-1.8c-0.1-0.9,0.3-1.8,0.9-2.4L142,55
			c0.8-0.8,1.8-1.4,2.8-1.7c1-0.4,2-0.3,2.9,0.1l8,3.4c0.8,0.3,1.4,1,1.5,1.8c0.1,0.9-0.3,1.8-0.9,2.5L135,84.5z M168.1,101.9
			c-0.7,0.8-1.7,1.4-2.7,1.7c-0.9,0.3-2,0.3-2.9,0l-8.3-3.5h-0.3c-0.1,0-0.1,0.1-0.1,0.2c0,3.2,1.6,6,4.7,8.5
			c0.6,0.4,0.7,1.1,0.3,1.7c-0.1,0.3-0.3,0.5-0.5,0.7c-0.4,0.4-0.8,0.7-1.2,0.9c-0.6,0.2-1.1,0.5-1.8,0.8c-1.1,0.5-2.3,0.8-3.5,0.8
			c-0.6,0-1.2-0.1-1.8-0.2c-0.3-0.1-0.6-0.3-0.9-0.6c-3.1-3-4.6-7.3-4-11.5c0-0.1,0-0.2-0.1-0.2h-0.3c-5.2,2.3-11.5,2.9-19,2
			c-0.4-0.1-0.7-0.2-1-0.3c-0.5-0.2-0.9-0.6-1.1-1c-0.5-0.7-0.6-1.6-0.3-2.5c0.1-0.3,0.1-0.8,0.2-1.1c0.1-0.4,0.4-0.8,0.7-1.1
			c0.2-0.2,0.6-0.5,0.8-0.7c0.7-0.5,1.5-0.7,2.4-0.6c5.7,0.9,10.4,0.7,14.1-0.6c0.1,0,0.2-0.1,0.2-0.2c0-0.1,0-0.1-0.1-0.2l-7.8-3.3
			c-0.8-0.3-1.4-1-1.5-1.8c-0.1-0.9,0.3-1.9,1-2.5l0.1-0.1c0.7-0.8,1.7-1.4,2.7-1.7c0.9-0.3,2-0.3,2.9,0l10.2,4.3
			c0.2,0.1,0.5,0,0.7-0.2c0.6-0.5,1.2-1.1,2.1-1.9c0.2-0.2,0.4-0.3,0.7-0.3c0.3,0,0.6-0.1,0.7,0h0.2l2.3-2.6c0.1-0.1,0.1-0.1,0-0.2
			c0-0.1-0.1-0.1-0.2,0c-0.6,0.1-1.1,0.3-1.8,0.5c-0.9,0.2-1.7,0.2-2.6,0c-0.1,0-0.2-0.1-0.2-0.1c-0.8-0.4-1.3-1.2-1.2-2v-0.3
			c0-0.1,0-0.1-0.1-0.1c-0.1,0-0.2,0-0.2,0.1l-0.7,0.8c-0.8,0.8-1.8,1.4-2.8,1.7c-1,0.4-2,0.3-2.9-0.1l-0.2-0.1
			c-0.8-0.3-1.4-1-1.5-1.8c-0.1-0.9,0.3-1.8,0.9-2.5l17.2-19.2c0.8-0.8,1.8-1.4,2.8-1.7c1-0.4,2-0.3,2.9,0.1l6.9,2.9
			c0.3,0.1,0.6,0,0.8-0.2c0.5-0.3,0.9-0.7,1.5-1.1c0.9-0.8,1.9-1.3,3.1-1.5c0.8-0.2,1.7-0.2,2.5,0.1c0.1,0,0.2,0.1,0.3,0.2l2.1,1.2
			c0.7,0.3,1,1.1,0.8,1.8c-0.1,0.4-0.4,0.8-0.7,1.1c-0.3,0.3-0.6,0.6-1,0.8c-0.3,0.2-0.6,0.3-0.9,0.6c-0.1,0-0.1,0.1-0.2,0.2
			c0,0.1,0,0.2,0.1,0.2l8.6,3.6c0.8,0.3,1.4,1,1.5,1.8c0.1,0.9-0.3,1.9-1,2.5l-17,19c-0.8,0.8-1.8,1.4-2.8,1.7c-1,0.4-2,0.3-2.9-0.1
			l-0.5-0.2c-0.8-0.3-1.4-1-1.5-1.8c-0.1-0.9,0.3-1.8,0.9-2.5l14.7-16.5c0.2-0.2,0.2-0.5,0-0.5l-2.1-0.9h-0.1c-0.1,0-0.1,0-0.1,0.1
			c0,0,0,0,0,0c0.1,0.5-0.1,1-0.6,1.4c-0.5,0.4-1.1,0.6-1.7,0.6c-1.1-0.1-2.3-0.3-3.4-0.6c-0.3-0.1-0.6,0-0.8,0.3l-3.4,3.8
			c-0.2,0.2-0.2,0.5,0,0.6l1.1,0.5l0.1-0.1c-0.2-0.3-0.3-0.7-0.2-1.1c0.2-0.5,0.5-0.9,0.9-1.1c0.3-0.2,0.6-0.4,0.9-0.6
			c0.7-0.4,1.5-0.7,2.3-0.8c0.4,0,0.8,0,1.2,0.1c0.2,0.1,0.4,0.2,0.6,0.3c0.4,0.4,0.4,1,0.1,1.5c-0.3,0.6-0.8,1.1-1.5,1.4
			c-0.5,0.2-1.1,0.6-2.3,1c-0.2,0.1-0.2,0.2-0.1,0.2c0.4,0.1,0.7,0.5,0.8,0.9c0.1,0.5-0.1,1-0.5,1.4l-0.5,0.5
			c-0.5,0.6-1.2,1-1.9,1.1c-0.7,0.2-1.4,0.2-2,0l-1.5-0.6h-0.2c-0.1,0.1-0.1,0.1,0,0.2c0.2,0.7,0.6,1.4,0.9,2.3
			c0.2,0.7,0.1,1.4-0.3,1.9c-0.1,0.1-0.2,0.3-0.3,0.5c-0.5,0.4-1,0.8-1.6,1.1c-0.7,0.3-1.4,0.4-2.1,0.1c-0.1,0-0.1,0-0.1-0.1
			c0,0,0,0,0,0c-0.5-0.2-0.8-0.6-0.9-1.1c-0.1-0.6-0.1-1.1-0.1-1.7l-0.1-0.1c-0.1,0-0.2,0-0.2,0.1l-2.6,2.8c-0.1,0.1-0.1,0.2,0,0.2
			c0.3,0.1,0.5,0.4,0.5,0.7c0,0.4-0.2,0.7-0.5,0.9l-1.6,1.6c-0.2,0.2-0.2,0.3,0,0.5l10.6,4.4c0.8,0.3,1.4,1,1.5,1.8
			C169.2,99.9,169,101.2,168.1,101.9L168.1,101.9z M146.5,62.2c0.2-0.2,0.2-0.5-0.1-0.6l-1.2-0.6c-0.2-0.1-0.5,0-0.7,0.2l-14,15.7
			c-0.2,0.2-0.2,0.5,0,0.6l1.2,0.6c0.3,0.1,0.6,0,0.8-0.2L146.5,62.2z M164.6,66.4c-0.2-0.1-0.5,0-0.7,0.2l-12.5,14
			c-0.1,0.1-0.1,0.1-0.1,0.2c0,0.1,0.1,0.1,0.2,0.1c2.1-0.2,4.2-0.6,6.3-1.1c0.1,0,0.1,0,0.2-0.1c0-0.1,0-0.1-0.1-0.1l-1.1-0.5
			c-0.5-0.2-0.9-0.7-1-1.2c-0.1-0.6,0.2-1.3,0.7-1.7l0.7-0.8c0.4-0.4,0.8-0.6,1.2-0.8c0.4-0.1,0.9-0.1,1.2,0.1c0.1,0,0.2,0,0.3-0.1
			c0.2-0.4,0.4-0.8,0.6-1.2c0.3-0.6,0.7-1.1,1.2-1.4c0.5-0.4,1.2-0.5,1.8-0.5l0,0v-0.1c-0.4-0.1-0.8-0.4-0.9-0.8
			c-0.2-0.4-0.2-0.9,0-1.4l0.1-0.1c0.1-0.5,0.5-0.9,1-1c0.5-0.2,1-0.3,1.5-0.2c2.6,0.7,4.7,1.2,6.6,1.6l0,0L164.6,66.4z M162.7,75.8
			h-0.1v0.1l0.8,0.3c0.2,0.1,0.4,0,0.6-0.1c0.1-0.2,0.1-0.2-0.1-0.3H162.7z M164.5,75.2L164.5,75.2
			C164.5,75.3,164.6,75.3,164.5,75.2l2.3-2.4c0.2-0.2,0.1-0.3-0.1-0.5l-0.6-0.2c-0.2-0.1-0.5,0-0.6,0.2c0,0,0,0,0,0
			C165.2,73.4,164.9,74.3,164.5,75.2L164.5,75.2z"/>
	</g>
	<g id="Group_644" transform="translate(71.364 123.796)">
		<path id="Path_7135" class="st3" d="M24.9,25.8c-0.1-0.1-0.3,0-0.5,0.1l-2.8,3.1c-0.1,0.1-0.1,0.2,0,0.3c0,0,0,0,0,0l9.5,4.1
			c0.4,0.1,0.6,0.5,0.7,0.9c0,0.5-0.2,1-0.6,1.4c-0.4,0.4-0.9,0.8-1.5,0.9c-0.5,0.2-1.1,0.2-1.6,0L5.3,26.7c-0.4-0.2-0.7-0.6-0.7-1
			c0-0.5,0.2-1,0.6-1.4c0.4-0.4,0.9-0.8,1.5-0.9c0.5-0.2,1.1-0.2,1.6,0l9.2,4c0.1,0.1,0.2,0,0.5-0.1l2.8-3.1c0.1-0.1,0.1-0.2,0-0.3
			c0,0,0,0,0,0L14,20.9c-0.5-0.2-0.7-0.5-0.7-0.9c0-0.5,0.2-0.9,0.6-1.2c0.4-0.4,0.9-0.7,1.5-0.9c0.5-0.1,1.1-0.1,1.6,0l6.7,2.9
			c0.1,0.1,0.2,0,0.5-0.1l2.7-3.1c0.1-0.1,0.1-0.2,0-0.3c0,0,0,0,0,0l-5-2.1c-0.4-0.2-0.7-0.6-0.8-1c0-0.5,0.2-1.1,0.6-1.5l0.5-0.5
			v-0.1h-0.1l-2.7,0.3c-0.4,0-0.8,0-1.1-0.1c-0.1-0.1-0.2-0.1-0.5-0.2c-0.4-0.3-0.5-0.8-0.5-1.2v-0.2c0.1-0.4,0.2-0.7,0.5-1l0.2-0.2
			c0.4-0.4,1-0.7,1.6-0.7c3.1-0.3,6.2-0.8,9.2-1.6c2.9-0.7,5.8-1.6,8.6-2.7c1.3-0.6,2.7-0.7,4.1-0.2l0.2,0.1
			c1.1,0.4,1.8,1.5,1.6,2.6c-0.2,2.3,0,4.6,0.6,6.9c0.4,2.1,1.2,4.1,2.4,6c0.2,0.4,0.1,0.9-0.1,1.2c-0.1,0.1-0.2,0.2-0.2,0.3
			c-0.2,0.3-0.6,0.6-1,0.7l-0.7,0.3c-0.6,0.2-1.2,0.3-1.8,0.2c-0.2,0-0.3-0.1-0.5-0.1c-0.3-0.1-0.6-0.4-0.7-0.7l-0.7-1.7h-0.1
			c-0.1,0-0.1,0-0.1,0.1l-0.3,0.5c-0.5,0.4-1,0.8-1.6,1c-0.5,0.2-1.2,0.2-1.7,0l-5.2-2.3c-0.1-0.1-0.3,0-0.5,0.1l-2.7,3.1
			c-0.1,0.1-0.1,0.2,0,0.3c0,0,0,0,0,0l6.8,2.9c0.5,0.2,0.7,0.5,0.7,0.9c0,0.5-0.2,0.9-0.6,1.2c-0.4,0.4-0.9,0.7-1.5,0.9
			c-0.5,0.1-1.1,0.1-1.6,0L24.9,25.8z M24.2,11.8L24.2,11.8l-0.1,0.1l15.3,6.6h0.1c0.1,0,0,0,0-0.1C38.4,15,38,11.4,38.4,7.9
			c0-0.1,0-0.1-0.1-0.1c0,0,0,0,0,0H38C33.6,9.6,29,11,24.2,11.8L24.2,11.8z"/>
		<path id="Path_7136" class="st3" d="M54.8,31.1c-0.1,0.6-0.4,1.1-0.8,1.5c-0.5,0.5-1,1-1.7,1.2c-0.3,0.2-0.8,0.2-1.1,0.1H51
			c-0.3-0.2-0.5-0.6-0.3-0.9c0.2-0.7,0.5-1.5,0.8-2.5v-0.1h-0.1L41.6,41c-0.4,0.5-1,0.8-1.6,0.9c-0.6,0.2-1.1,0.2-1.7,0
			c-0.4-0.2-0.7-0.6-0.8-1c0-0.5,0.2-1,0.6-1.4l8.5-9.4l0,0c-1.9,1.3-3.8,2.5-5.9,3.5c-0.3,0.2-0.8,0.2-1.1,0.1h-0.1
			c-0.3-0.2-0.5-0.6-0.3-0.9c0-0.1,0-0.1,0.1-0.2c0.1-0.6,0.5-1.2,0.9-1.6c0.5-0.6,1.2-1.1,1.9-1.4c3.9-1.9,7.6-4.3,11-7
			c0.2-0.1,0.2-0.2,0-0.3l-1.7-0.7c-0.4-0.2-0.7-0.6-0.8-1c0-0.5,0.2-1,0.6-1.4c0.4-0.5,1-0.8,1.6-0.9c0.5-0.2,1.1-0.2,1.6,0
			l1.9,0.8c0.1,0.1,0.2,0,0.5-0.1l3.8-4.3c0.4-0.5,1-0.8,1.6-0.9c0.6-0.2,1.1-0.2,1.7,0c0.4,0.2,0.7,0.6,0.8,1c0,0.5-0.2,1-0.6,1.4
			l-3.8,4.3c-0.1,0.1-0.1,0.2,0,0.3c0,0,0,0,0,0l1.5,0.6c0.4,0.2,0.7,0.6,0.8,1c0,0.5-0.2,1-0.6,1.4c-0.4,0.5-1,0.8-1.6,0.9
			c-0.5,0.2-1.1,0.2-1.6,0l-1.5-0.6c-0.1-0.1-0.3,0-0.5,0.1l-1,1.1c-0.1,0.1-0.2,0.3-0.2,0.5C55.4,27.6,55.1,29.4,54.8,31.1z
			 M70.6,39.9c-0.5,0.4-1,0.8-1.6,1c-0.6,0.2-1.1,0.2-1.7,0l-2.6-1.1h-0.1c-0.1,0-0.1,0-0.1,0.1c0,0,0,0,0,0
			c-0.3,2.2-0.1,4.3,0.5,6.4c0.1,0.5-0.1,1.1-0.5,1.5c-0.3,0.4-0.8,0.6-1.2,0.8c-0.1,0-0.2,0.1-0.3,0.1c-0.5,0.2-1.1,0.2-1.7,0.1H61
			c-0.4-0.2-0.6-0.5-0.7-0.9c-0.1-2,0-4.1,0.3-6.1v-0.1h-0.1l-4.7,5.2c-0.5,0.5-1.1,0.8-1.7,1c-0.6,0.2-1.1,0.2-1.7,0
			c-0.4-0.2-0.7-0.6-0.8-1c0-0.5,0.2-1.1,0.6-1.5l4.3-4.7v-0.1h-0.1c-2.8,1.1-5.6,2-8.6,2.5c-0.5,0.1-0.9,0-1.4-0.1
			c-0.1,0-0.2-0.1-0.2-0.1c-0.4-0.3-0.6-0.8-0.6-1.2v-0.2c0-0.4,0.2-0.8,0.5-1c0-0.1,0.1-0.1,0.2-0.2c0.5-0.4,1-0.6,1.6-0.7
			c3.4-0.4,6.7-1.3,9.8-2.6c0.1,0,0.1,0,0.1-0.1c0,0,0,0,0,0v-0.1l-2.5-1c-0.4-0.2-0.7-0.6-0.8-1c0-0.5,0.2-1.1,0.6-1.5l6.3-7
			c0.5-0.5,1.1-0.8,1.7-1c0.6-0.2,1.1-0.2,1.7,0l4,1.7c0.1,0.1,0.3,0,0.5-0.1l1.1-1.2c0.1-0.1,0.1-0.2,0-0.3c0,0,0,0,0,0l-5-2.1
			c-0.5-0.2-0.7-0.5-0.7-0.9c0-0.5,0.2-0.9,0.6-1.2c0.7-0.8,1.9-1.2,2.9-0.9l5,2.1c0.1,0.1,0.3,0,0.5-0.1l1-1.1c0.5-0.4,1-0.8,1.6-1
			c0.5-0.2,1.2-0.2,1.7,0c0.4,0.2,0.7,0.6,0.8,1c0,0.5-0.2,1.1-0.6,1.5l-1,1.1c-0.1,0.1-0.1,0.2,0,0.3c0,0,0,0,0,0l5,2.1
			c0.5,0.2,0.7,0.5,0.7,0.9c0,0.5-0.2,0.9-0.6,1.2c-0.4,0.4-0.9,0.7-1.5,0.9c-0.5,0.2-1,0.2-1.5,0l-5-2.1c-0.1-0.1-0.2,0-0.5,0.1
			l-1.1,1.2c-0.1,0.1-0.1,0.2,0,0.3c0,0,0,0,0,0l4.2,1.8c0.4,0.2,0.7,0.6,0.8,1c0,0.5-0.2,1.1-0.6,1.5L70.6,39.9z M60.5,32.3
			c-0.1-0.1-0.2,0-0.5,0.1l-1,1.1c-0.1,0.1-0.1,0.2,0,0.3c0,0,0,0,0,0l2.1,0.9c0.1,0.1,0.3,0,0.5-0.1l1-1.1c0.1-0.1,0.1-0.2,0-0.3
			c0,0,0,0,0,0L60.5,32.3z M64,28.4c-0.1-0.1-0.2,0-0.5,0.1l-1,1.1c-0.1,0.1-0.1,0.2,0,0.3c0,0,0,0,0,0l2.1,0.9
			c0.1,0.1,0.3,0,0.5-0.1l1-1.1c0.1-0.1,0.1-0.2,0-0.3c0,0,0,0,0,0L64,28.4z M67.6,37.5c0.1,0.1,0.3,0,0.5-0.1l1-1.1
			c0.1-0.1,0.1-0.2,0-0.3c0,0,0,0,0,0l-2.4-1c-0.1-0.1-0.2,0-0.5,0.1l-1,1.1c-0.1,0.1-0.1,0.2,0,0.3c0,0,0,0,0,0L67.6,37.5z
			 M72.6,32.4c0.1-0.1,0.1-0.2,0-0.3c0,0,0,0,0,0l-2.4-1c-0.1-0.1-0.2,0-0.5,0.1l-1,1.1c-0.1,0.1-0.1,0.2,0,0.3c0,0,0,0,0,0l2.4,1
			c0.1,0.1,0.3,0,0.5-0.1L72.6,32.4z"/>
		<path id="Path_7137" class="st3" d="M101,36.3l-0.1,0.1c0,0.1,0,0.1,0.1,0.1c0,0,0,0,0,0l9.8,4.3c0.4,0.2,0.7,0.6,0.8,1
			c0,0.5-0.2,1-0.6,1.4c-4.4,4.9-9,9.5-13.9,14c-2.8,2.7-4.9,4.3-6.2,4.7c-0.7,0.3-1.5,0.5-2.3,0.6c-0.7,0-1.4,0-2.1-0.2
			c-0.9-0.2-1.8-0.5-2.6-0.9c-0.1-0.1-0.3-0.1-0.5-0.2c-0.4-0.2-0.7-0.6-0.8-1c-0.1-0.6,0-1.1,0.3-1.6c0.1-0.1,0.1-0.2,0.2-0.5
			c0.1-0.1,0.1-0.3,0.2-0.5c0.2-0.2,0.5-0.4,0.8-0.6c0.4-0.2,0.8-0.2,1.2-0.1h0.1c0.7,0.3,1.5,0.7,2.5,1.1c0.5,0.2,1.2,0.2,1.7,0
			c0.9-0.2,2.5-1.6,4.9-3.7c2.4-2.3,6-5.9,11-11.1c0.1-0.1,0.1-0.2,0-0.3c0,0,0,0,0,0l-9.3-4c-0.1-0.1-0.3,0-0.6,0.1
			c-1.2,0.6-2.4,1.2-3.6,1.7l-0.1,0.1V41l6.6,2.8c0.4,0.2,0.7,0.6,0.8,1c0,0.5-0.2,1-0.6,1.4c-0.4,0.4-0.9,0.8-1.5,0.9
			c-0.5,0.2-1.1,0.2-1.6,0l-5.5-2.4c-0.4-0.2-0.7-0.6-0.8-1c0-0.5,0.2-1.1,0.6-1.5l0.6-0.6v-0.1h-0.1c-0.4,0.2-0.8,0.2-1.2,0.1h-0.1
			c-0.3-0.1-0.5-0.3-0.6-0.6c-0.2-0.7-0.4-1.4-0.7-2c0-0.1,0-0.2,0.1-0.3c0.1-0.1,0.2-0.2,0.3-0.2l0,0L87.1,38
			c-0.1-0.1-0.3,0-0.5,0.1l-5.9,6.4v0.1l0.1,0.1c0.6,0,1.1,0,1.7,0.1c0.2,0,0.5,0,0.7,0.1c0.2,0.1,0.4,0.2,0.6,0.5
			c0.2,0.4,0.2,0.9-0.1,1.2c-0.1,0.2-0.2,0.3-0.3,0.5c-0.3,0.3-0.7,0.6-1,0.8c-0.6,0.3-1.3,0.5-1.9,0.5c-2.8,0-6,0-9.5-0.1
			c-0.3,0-0.5,0-0.8-0.1c-0.2-0.1-0.4-0.2-0.6-0.5c-0.2-0.4-0.2-0.9,0-1.4l0.2-0.5c0.1-0.2,0.2-0.4,0.5-0.6c0.3-0.3,0.6-0.5,0.9-0.7
			c0.5-0.3,1.2-0.5,1.8-0.5c0.9,0.1,1.8,0.1,2.8,0.2c0.2,0,0.3-0.1,0.5-0.2l7.1-7.8c0.1-0.1,0.1-0.2,0-0.3c0,0,0,0,0,0L82,35.5
			c-0.4-0.2-0.7-0.6-0.8-1c0-0.5,0.2-1,0.6-1.4c0.4-0.5,1-0.8,1.6-1c0.5-0.2,1.2-0.2,1.7,0l1.4,0.6c0.1,0.1,0.3,0,0.5-0.1l4-4.4
			c0.5-0.4,1-0.8,1.6-1c0.5-0.2,1.2-0.2,1.7,0c0.4,0.2,0.7,0.6,0.8,1c0,0.5-0.2,1.1-0.6,1.5l-4,4.4c-0.1,0.1-0.1,0.2,0,0.3
			c0,0,0,0,0,0l1.1,0.5c0.5,0.2,0.7,0.5,0.7,0.9c0,0.5-0.2,0.9-0.6,1.2v0.1h0.1c3.3-1.4,6.4-3.1,9.4-5.2c0.5-0.4,1.1-0.7,1.8-0.7
			c0.4,0,0.8,0,1.1,0.1c0.1,0.1,0.2,0.1,0.3,0.2l0.2,0.2c0.3,0.3,0.5,0.8,0.3,1.2c-0.1,0.3-0.3,0.6-0.5,0.9
			c-0.2,0.2-0.4,0.3-0.6,0.5C103,35.1,102,35.7,101,36.3z M93.6,50.4c0.2,0,0.4,0,0.6,0.1c0.2,0.1,0.4,0.3,0.5,0.5
			c0.2,0.4,0.1,0.8-0.1,1.1l-0.3,0.3c-0.3,0.3-0.6,0.6-1,0.8c-0.5,0.3-1.1,0.5-1.7,0.5c-2.7,0-5.9-0.1-9.6-0.2
			c-0.3,0-0.6-0.1-0.8-0.1c-0.2-0.1-0.4-0.2-0.6-0.5c-0.3-0.4-0.4-0.9-0.1-1.4l0.1-0.2c0.1-0.3,0.3-0.5,0.5-0.7
			c0.2-0.2,0.5-0.4,0.8-0.6c0.5-0.3,1.2-0.5,1.8-0.5C86.2,49.9,89.6,50.2,93.6,50.4z"/>
		<path id="Path_7138" class="st3" d="M107.4,51.5c0.5-0.4,1-0.8,1.6-1c0.5-0.2,1.2-0.2,1.7,0l24.8,10.6c0.4,0.2,0.7,0.6,0.8,1
			c0,0.5-0.2,1.1-0.6,1.5l-0.3,0.5c-0.5,0.4-1,0.8-1.6,1c-0.6,0.2-1.1,0.2-1.7,0l-24.8-10.6c-0.4-0.2-0.7-0.6-0.8-1
			c0-0.5,0.2-1.1,0.6-1.5L107.4,51.5z"/>
		<path id="Path_7139" class="st3" d="M153.7,55.1c0.5-0.4,1.2-0.6,1.8-0.7c0.3,0,0.7,0,1,0.1c0.2,0.1,0.3,0.2,0.5,0.3
			c0.3,0.3,0.5,0.8,0.3,1.2c-0.1,0.3-0.2,0.6-0.5,0.8c-0.2,0.2-0.4,0.4-0.7,0.5c-1.7,1.2-3.5,2.3-5.3,3.3c-0.2,0.1-0.4,0.3-0.5,0.5
			L133,80.3c-0.5,0.4-1,0.8-1.6,1c-0.5,0.2-1.2,0.2-1.7,0c-0.4-0.2-0.7-0.6-0.8-1c0-0.5,0.2-1.1,0.6-1.5l11.9-13v-0.1h-0.1
			c-0.6,0.2-1,0.5-1.5,0.7c-0.5,0.1-0.8,0.2-1.1,0c-0.1,0-0.1,0-0.1-0.1c0,0,0,0,0,0c-0.3-0.2-0.5-0.6-0.3-1
			c0.1-0.2,0.2-0.6,0.3-0.8c0.2-0.5,0.5-0.9,0.8-1.4c0.1-0.1,0.2-0.2,0.3-0.2c0.5-0.5,1.1-0.9,1.8-1.1
			C145.7,59.9,149.8,57.6,153.7,55.1z M157.6,84.8c-0.5,0.4-1,0.8-1.6,1c-0.5,0.2-1.2,0.2-1.7,0l-2.6-1.1h-0.1
			c1.1,1.2,2.1,2.4,3.1,3.7c0.2,0.3,0.1,0.7-0.2,1.1c-0.3,0.3-0.7,0.5-1.1,0.6H153c-0.6,0.1-1.3,0-1.9-0.2h-0.1
			c-0.5-0.2-0.9-0.5-1.1-0.9c-0.6-1-1.3-2-2-2.9c-0.2-0.3-0.2-0.7,0-1l0.2-0.2c0.3-0.3,0.6-0.5,1-0.6l0.8-0.2c0.1,0,0.1,0,0.1-0.1
			c0,0,0,0,0,0v-0.1l-5.5-2.4h-0.1c0,0-0.1,0,0,0.1l0.1,0.5c0.1,0.4,0,0.8-0.3,1.1c-0.4,0.4-0.9,0.7-1.5,0.7c-2.1,0.1-4.3,0-6.4-0.2
			c-0.2,0-0.4-0.1-0.6-0.1c-0.3-0.1-0.5-0.3-0.7-0.5c-0.3-0.3-0.4-0.8-0.3-1.2c0-0.3,0.1-0.5,0.3-0.7c0.1-0.1,0.2-0.2,0.3-0.2
			c0.3-0.3,0.8-0.4,1.2-0.3c2.1,0.3,4.1,0.5,6.2,0.5h0.1l-2.4-1c-0.4-0.2-0.7-0.6-0.8-1c0-0.5,0.2-1.1,0.6-1.5l7-7.7
			c0.5-0.5,1.1-0.8,1.7-1c0.6-0.2,1.1-0.2,1.7,0l13.9,6c0.4,0.2,0.7,0.6,0.8,1c0,0.5-0.2,1.1-0.6,1.5L157.6,84.8z M145.2,77.4
			c-0.1-0.1-0.3,0-0.5,0.1l-0.6,0.7c-0.1,0.1-0.1,0.2,0,0.3c0,0,0,0,0,0l10.1,4.3c0.1,0.1,0.2,0,0.5-0.1l0.6-0.7
			c0.1-0.1,0.1-0.2,0-0.3c0,0,0,0,0,0L145.2,77.4z M147.9,74.4c-0.1-0.1-0.3,0-0.5,0.1l-0.6,0.7c-0.1,0.1-0.1,0.2,0,0.3c0,0,0,0,0,0
			l10.1,4.3c0.1,0.1,0.2,0,0.5-0.1l0.6-0.7c0.1-0.1,0.1-0.2,0-0.3c0,0,0,0,0,0L147.9,74.4z M150.6,71.4c-0.1-0.1-0.3,0-0.5,0.1
			l-0.6,0.7c-0.1,0.1-0.1,0.2,0,0.3c0,0,0,0,0,0l10.1,4.3c0.1,0.1,0.2,0,0.5-0.1l0.6-0.7c0.1-0.1,0.1-0.2,0-0.3c0,0,0,0,0,0
			L150.6,71.4z M176.8,65c0,0.4-0.2,0.8-0.5,1.1c-0.4,0.4-0.8,0.6-1.2,0.8c-0.4,0.1-0.8,0.1-1.2,0l-4.6-2c-0.1-0.1-0.3,0-0.5,0.1
			l-0.8,0.9c-0.1,0.1-0.1,0.2,0,0.3c0,0,0,0,0,0l3.3,1.4c0.4,0.2,0.7,0.6,0.8,1c0,0.5-0.2,1.1-0.6,1.5l-2.5,2.7
			c-0.5,0.4-1,0.8-1.6,1c-0.5,0.2-1.2,0.2-1.7,0l-14.6-6.3c-0.4-0.2-0.7-0.6-0.8-1c0-0.5,0.2-1.1,0.6-1.5l2.5-2.7
			c0.5-0.5,1.1-0.8,1.7-1c0.6-0.2,1.1-0.2,1.7,0l3.1,1.4c0.1,0.1,0.2,0,0.5-0.1l0.8-0.9c0.1-0.1,0.1-0.2,0-0.3c0,0,0,0,0,0l-4.1-1.7
			c-0.3-0.1-0.6-0.4-0.6-0.8c0-0.4,0.2-0.8,0.5-1c0.4-0.4,0.8-0.6,1.2-0.8c0.4-0.1,0.8-0.1,1.2,0l17.1,7.3
			C176.6,64.5,176.8,64.8,176.8,65L176.8,65z M156.4,64c-0.1-0.1-0.2,0-0.5,0.1l-1.5,1.6c-0.1,0.1-0.1,0.2,0,0.3c0,0,0,0,0,0
			l1.5,0.6c0.1,0.1,0.2,0,0.5-0.1l1.5-1.6c0.1-0.1,0.1-0.2,0-0.3c0,0,0,0,0,0L156.4,64z M161.2,66c-0.1-0.1-0.3,0-0.5,0.1l-1.5,1.6
			c-0.1,0.1-0.1,0.2,0,0.3c0,0,0,0,0,0l1.6,0.7c0.1,0.1,0.3,0,0.5-0.1l1.5-1.6c0.1-0.1,0.1-0.2,0-0.3c0,0,0,0,0,0L161.2,66z
			 M164.6,64.6c0.1,0.1,0.3,0,0.5-0.1l0.8-0.9c0.1-0.1,0.1-0.2,0-0.3c0,0,0,0,0,0l-1.6-0.7c-0.1-0.1-0.3,0-0.5,0.1l-0.8,0.9
			c-0.1,0.1-0.1,0.2,0,0.3c0,0,0,0,0,0L164.6,64.6z M167.7,69.1c0.1-0.1,0.1-0.2,0-0.3c0,0,0,0,0,0l-1.5-0.7c-0.1-0.1-0.3,0-0.5,0.1
			l-1.5,1.6c-0.1,0.1-0.1,0.2,0,0.3c0,0,0,0,0,0l1.5,0.7c0.1,0.1,0.3,0,0.5-0.1L167.7,69.1z"/>
		<path id="Path_7140" class="st3" d="M187.1,100.7l2.6,1.1c0.4,0.2,0.9,0.1,1.2-0.1c0.8-0.5,1.5-1.1,2-1.8c0.4-0.4,0.8-0.6,1.4-0.6
			c0.2,0,0.5,0,0.7,0.1c0.1,0.1,0.3,0.2,0.5,0.3c0.1,0,0.1,0,0.1,0.1c0,0,0,0,0,0c0.3,0.4,0.5,1,0.3,1.5c-0.1,0.5-0.4,0.9-0.7,1.2
			c-0.1,0.1-0.2,0.2-0.2,0.3c-1.2,1.2-2.7,2.2-4.3,2.8c-1.2,0.3-2.5,0.2-3.6-0.2l-3.5-1.6c-1.7-0.7-2.6-1.6-2.5-2.4
			c0-0.9,0.8-2.1,2.4-4l6.4-7c0.1-0.1,0.1-0.2,0-0.3c0,0,0,0,0,0l-4.1-1.7c-0.1-0.1-0.3,0-0.5,0.1c-1.1,1-2.1,1.8-3.1,2.6
			c-1,0.8-2,1.5-3.2,2.1c-1.1,0.7-2.3,1.3-3.5,1.8c-1.3,0.5-2.5,0.8-3.8,1.1c-1.5,0.3-3,0.5-4.5,0.5c-0.3,0-0.6,0-0.9-0.1
			c-0.2-0.1-0.3-0.2-0.6-0.3c-0.3-0.4-0.5-0.9-0.3-1.4v-0.5c0-0.3,0.2-0.6,0.5-0.8l0.3-0.3c0.4-0.4,0.9-0.5,1.5-0.5
			c1.4,0,2.9-0.1,4.3-0.5c1.3-0.3,2.5-0.7,3.6-1.2c1-0.5,2-1.1,2.9-1.8c0.9-0.7,1.8-1.4,2.8-2.3c0.1-0.1,0.2-0.2,0-0.3l-5.3-2.3
			c-0.4-0.2-0.7-0.6-0.8-1c0-0.5,0.2-1.1,0.6-1.5c0.5-0.4,1-0.8,1.6-1c0.6-0.2,1.1-0.2,1.7,0l9.8,4.2c0.1,0.1,0.3,0,0.5-0.1l4.1-4.4
			c0.1-0.1,0.1-0.2,0-0.3c0,0,0,0,0,0l-4.9-2c-0.1-0.1-0.3,0-0.6,0.1c-1.2,0.7-2.4,1.4-3.5,1.9c-0.5,0.3-1.2,0.4-1.8,0.3
			c-0.2,0-0.3-0.1-0.5-0.2c-0.3-0.1-0.6-0.3-0.8-0.6l0,0c-0.2-0.4-0.2-0.9,0.1-1.2c0.1-0.1,0.2-0.3,0.3-0.5c0.3-0.3,0.6-0.5,0.9-0.7
			c3-1.5,5.9-3.3,8.6-5.3c0.5-0.4,1.1-0.7,1.8-0.7c0.4-0.1,0.8,0,1.2,0.1c0.1,0,0.2,0.1,0.3,0.2l0.2,0.2c0.4,0.3,0.6,0.8,0.5,1.2
			c-0.1,0.3-0.3,0.6-0.5,0.9c-0.2,0.2-0.4,0.3-0.6,0.5c-0.5,0.3-0.8,0.6-1.2,0.9l-0.1,0.1c0,0.1,0,0.1,0.1,0.1l3.5,1.5
			c0.1,0.1,0.3,0,0.5-0.1l1.9-2c0.5-0.4,1-0.8,1.6-1c0.6-0.2,1.1-0.2,1.7,0l0.1,0.1c0.4,0.2,0.7,0.6,0.8,1c0,0.5-0.2,1.1-0.6,1.5
			l-1.9,2c-0.1,0.1-0.1,0.2,0,0.3c0,0,0,0,0,0l7.5,3.2c0.4,0.2,0.7,0.6,0.8,1c0,0.5-0.2,1.1-0.6,1.5c-0.5,0.4-1,0.8-1.6,1
			c-0.5,0.2-1.2,0.2-1.7,0l-7.5-3.2c-0.1-0.1-0.3,0-0.5,0.1l-4.1,4.4c-0.1,0.1-0.1,0.2,0,0.3c0,0,0,0,0,0l9.8,4.2
			c0.4,0.2,0.7,0.6,0.8,1c0,0.5-0.2,1.1-0.6,1.5c-0.5,0.4-1,0.8-1.6,1c-0.6,0.2-1.1,0.2-1.7,0l-6-2.6c-0.1-0.1-0.3,0-0.5,0.1l-6.4,7
			c-0.5,0.5-0.7,0.8-0.7,1C186.4,100.3,186.7,100.5,187.1,100.7z"/>
		<path id="Path_7141" class="st3" d="M233.8,89.1c1.2-0.6,2.6-0.7,3.8-0.2c1,0.4,1.6,1.3,1.7,2.4c0.1,2.5,0.7,4.9,1.9,7
			c0.2,0.4,0.2,0.9,0,1.2c-0.1,0.2-0.2,0.3-0.3,0.5c-0.3,0.3-0.6,0.5-0.9,0.7c-0.1,0.1-0.2,0.1-0.3,0.1c-0.5,0.3-1.2,0.4-1.8,0.3
			c-0.2,0-0.3-0.1-0.6-0.1c-0.3-0.1-0.5-0.3-0.7-0.6c-0.4-0.7-0.6-1.5-0.8-2.3h-0.2c-0.3,0.3-0.7,0.6-1.1,0.7
			c-0.4,0.1-0.8,0.1-1.1,0l-6.6-2.8c-0.2-0.1-0.4-0.3-0.5-0.6c0-0.3,0.1-0.6,0.3-0.8l0,0c-1.4,0.2-2.6,0.5-3.8,0.6
			c-0.3,0-0.6,0-0.9-0.1c-0.1-0.1-0.2-0.1-0.3-0.3c-0.3-0.3-0.3-0.7-0.2-1.2v-0.1h-0.1c-0.2,0.2-0.4,0.3-0.7,0.5
			c-0.2,0.1-0.5,0.1-0.7,0l-1.6-0.7c-0.1-0.1-0.2,0-0.5,0.1l-3.6,4c0,0.1,0,0.1-0.1,0.1c0,0,0,0,0,0l0.1,0.1l1,0.1
			c0.1,0,0.2,0.1,0.5,0.1c0.2,0.1,0.4,0.3,0.5,0.6c0.1,0.4,0.1,0.9-0.2,1.2l-0.2,0.2c-0.3,0.3-0.7,0.6-1.1,0.8
			c-0.5,0.3-1.1,0.4-1.7,0.3c-0.3,0-0.9-0.1-1.6-0.1c-0.2,0-0.3,0-0.5,0.2l-6.4,7.1c-0.6,0.7-1.3,1.4-2.1,1.9
			c-0.6,0.4-1.4,0.7-2.1,0.8c-1.2,0.1-2.3-0.1-3.4-0.6h-0.1c-0.4-0.2-0.7-0.5-0.8-0.9c-0.1-0.6,0-1.1,0.3-1.6v-0.1
			c0.1-0.3,0.4-0.6,0.7-0.8c0.3-0.2,0.7-0.3,1-0.5c0.3-0.1,0.6,0,0.9,0.1c0.6,0.2,0.9,0.3,1.1,0.5c0.2,0.1,0.4,0.1,0.6,0.1
			c0.2,0,0.4-0.2,0.5-0.3l5.5-6.1v-0.1c0-0.1,0-0.1-0.1-0.1l-1.6-0.2c-0.2,0-0.4-0.1-0.6-0.1c-0.2-0.1-0.4-0.3-0.6-0.6
			c-0.2-0.4-0.1-1,0.1-1.4l0.2-0.2c0.1-0.1,0.1-0.2,0.3-0.5c0.3-0.3,0.7-0.6,1.1-0.8c0.6-0.2,1.2-0.3,1.8-0.3
			c0.5,0.1,1.2,0.2,2.5,0.5c0.2,0,0.3,0,0.5-0.2l4.4-4.7c0.1-0.1,0.1-0.2,0-0.3c0,0,0,0,0,0l-1.7-0.8c-0.4-0.2-0.7-0.6-0.8-1
			c0-0.5,0.2-1,0.6-1.4c0.4-0.5,1-0.8,1.6-0.9c0.5-0.2,1.1-0.2,1.6,0l1.7,0.8c0.1,0.1,0.3,0,0.5-0.1l3.5-3.8c0.4-0.5,1-0.8,1.6-1
			c0.5-0.2,1.2-0.2,1.7,0c0.4,0.2,0.7,0.6,0.8,1c0,0.5-0.2,1.1-0.6,1.5l-3.5,3.8c-0.1,0.1-0.1,0.2,0,0.3c0,0,0,0,0,0l1.6,0.7
			c0.2,0.1,0.2,0.2,0.2,0.5c0,0.2-0.1,0.3-0.2,0.6v0.1c1.9-0.2,3.7-0.4,5.5-0.8C230.3,90.2,232.1,89.8,233.8,89.1z M229.8,109.2
			c-0.5,0.4-1,0.8-1.6,1c-0.5,0.2-1.2,0.2-1.7,0l-9.9-4.3c-0.1-0.1-0.3,0-0.5,0.1c-0.3,0.3-0.6,0.5-0.9,0.7c-0.1,0.1-0.1,0.2,0,0.3
			c0,0,0,0,0,0l10.5,4.5c0.4,0.2,0.7,0.6,0.8,1c0,0.5-0.2,1.1-0.6,1.5l-4.1,4.5c-0.4,0.4-0.9,0.7-1.5,0.9c-0.5,0.2-1.1,0.2-1.6,0
			L218,119c-0.2-0.1-0.3-0.2-0.3-0.5c0-0.2,0.1-0.3,0.2-0.6v-0.1l-6.6-2.8c-0.1,0-0.1,0-0.2,0.1c-0.2,0.2-0.4,0.3-0.7,0.5
			c-0.3,0.1-0.6,0.1-0.7,0l-0.8-0.3c-0.5-0.2-0.7-0.5-0.7-0.9c0-0.5,0.2-0.9,0.6-1.2l3.5-3.8h-0.1c-1.7,1.2-3.6,2.2-5.5,3.1
			c-0.5,0.2-1.1,0.2-1.6,0.1c-0.4-0.1-0.6-0.5-0.7-0.9c-0.1-0.5,0.1-1,0.5-1.4l0.2-0.2c0.4-0.4,0.8-0.7,1.2-0.9
			c2.1-0.9,4-2.1,5.8-3.5c1.8-1.5,3.5-3.1,5.1-4.9l3.1-3.3c0.5-0.4,1-0.8,1.6-1c0.5-0.2,1.2-0.2,1.7,0l11.4,4.9
			c0.4,0.2,0.7,0.6,0.8,1c0,0.5-0.2,1.1-0.6,1.5L229.8,109.2z M221.8,113.6c0.1-0.1,0.1-0.2,0-0.3c0,0,0,0,0,0l-6.2-2.7
			c-0.1-0.1-0.3,0-0.5,0.1l-1.5,1.6c-0.1,0.1-0.1,0.2,0,0.3c0,0,0,0,0,0l6.2,2.7c0.1,0.1,0.2,0,0.5-0.1L221.8,113.6z M218.9,103.3
			c-0.1,0.1-0.1,0.2,0,0.3c0,0,0,0,0,0l7.9,3.4c0.1,0.1,0.3,0,0.5-0.1l0.8-0.8c0.1-0.1,0.1-0.2,0-0.3c0,0,0,0,0,0l-7.8-3.4
			c-0.1-0.1-0.3,0-0.5,0.1c-0.1,0.1-0.3,0.3-0.3,0.5C219.1,103.1,219,103.3,218.9,103.3L218.9,103.3z M230.7,103.1
			c0.1-0.1,0.1-0.2,0-0.3c0,0,0,0,0,0l-7.8-3.4c-0.1-0.1-0.3,0-0.5,0.1l-0.7,0.7c-0.1,0.1-0.1,0.2,0,0.3c0,0,0,0,0,0l7.8,3.4
			c0.1,0.1,0.3,0,0.5-0.1L230.7,103.1z M229.9,93.6L229.9,93.6c-0.1,0.1-0.1,0.1-0.1,0.2l5.1,2.1h0.1l0.1-0.1
			c-0.2-1.2-0.3-2.4-0.2-3.6c0-0.1-0.1-0.2-0.2-0.1C233.1,92.7,231.6,93.2,229.9,93.6L229.9,93.6z"/>
		<path id="Path_7142" class="st3" d="M248.7,127.3l2.6,1.1c0.4,0.2,0.9,0.1,1.2-0.1c0.8-0.5,1.5-1.1,2-1.8c0.4-0.4,0.8-0.6,1.4-0.6
			c0.2,0,0.5,0,0.7,0.1c0.1,0.1,0.3,0.2,0.5,0.3c0.1,0,0.1,0,0.1,0.1c0,0,0,0,0,0c0.3,0.4,0.5,1,0.3,1.5c-0.1,0.5-0.4,0.9-0.7,1.2
			c-0.1,0.1-0.2,0.2-0.2,0.3c-1.2,1.2-2.7,2.2-4.3,2.8c-1.2,0.3-2.5,0.2-3.6-0.2l-3.5-1.6c-1.7-0.7-2.6-1.6-2.5-2.4
			c0-0.9,0.8-2.1,2.4-4l6.4-7c0.1-0.1,0.1-0.2,0-0.3c0,0,0,0,0,0l-4.1-1.7c-0.1-0.1-0.3,0-0.5,0.1c-1.1,1-2.1,1.8-3.1,2.6
			c-1,0.8-2,1.5-3.2,2.1c-1.1,0.7-2.3,1.3-3.5,1.8c-1.3,0.5-2.5,0.8-3.8,1.1c-1.5,0.3-3,0.5-4.5,0.5c-0.3,0-0.6,0-0.9-0.1
			c-0.2-0.1-0.4-0.2-0.6-0.3c-0.3-0.4-0.5-0.9-0.3-1.4v-0.5c0-0.3,0.2-0.6,0.5-0.8l0.3-0.3c0.4-0.4,0.9-0.5,1.5-0.5
			c1.4,0,2.9-0.1,4.3-0.5c1.3-0.3,2.5-0.7,3.6-1.2c1-0.5,2-1.1,2.9-1.8c0.9-0.7,1.8-1.4,2.8-2.3c0.1-0.1,0.2-0.2,0-0.3l-5.3-2.3
			c-0.4-0.2-0.7-0.6-0.8-1c0-0.5,0.2-1.1,0.6-1.5c0.5-0.4,1-0.8,1.6-1c0.6-0.2,1.1-0.2,1.7,0l9.8,4.2c0.1,0.1,0.3,0,0.5-0.1l4.1-4.4
			c0.1-0.1,0.1-0.2,0-0.3c0,0,0,0,0,0l-4.9-2c-0.1-0.1-0.3,0-0.6,0.1c-1.2,0.7-2.4,1.4-3.5,1.9c-0.5,0.3-1.2,0.4-1.8,0.3
			c-0.2,0-0.3-0.1-0.5-0.2c-0.3-0.1-0.6-0.3-0.8-0.6l0,0c-0.2-0.4-0.2-0.9,0.1-1.2c0.1-0.1,0.2-0.3,0.3-0.5c0.3-0.3,0.6-0.5,0.9-0.7
			c3-1.5,5.9-3.3,8.6-5.3c0.5-0.4,1.1-0.7,1.8-0.7c0.4-0.1,0.8,0,1.2,0.1c0.1,0,0.2,0.1,0.3,0.2l0.2,0.2c0.4,0.3,0.5,0.8,0.5,1.2
			c-0.1,0.3-0.3,0.6-0.5,0.9c-0.2,0.2-0.4,0.3-0.6,0.5c-0.5,0.3-0.8,0.6-1.2,0.9l-0.1,0.1c0,0.1,0,0.1,0.1,0.1l3.5,1.5
			c0.1,0.1,0.3,0,0.5-0.1l1.9-2c0.5-0.4,1-0.8,1.6-1c0.6-0.2,1.1-0.2,1.7,0l0.1,0.1c0.4,0.2,0.7,0.6,0.8,1c0,0.5-0.2,1.1-0.6,1.5
			l-1.9,2c-0.1,0.1-0.1,0.2,0,0.3c0,0,0,0,0,0l7.5,3.2c0.4,0.2,0.7,0.6,0.8,1c0,0.5-0.2,1.1-0.6,1.5c-0.4,0.5-1,0.8-1.6,1
			c-0.5,0.2-1.2,0.2-1.7,0l-7.5-3.2c-0.1-0.1-0.3,0-0.5,0.1l-4.1,4.4c-0.1,0.1-0.1,0.2,0,0.3c0,0,0,0,0,0l9.8,4.2
			c0.4,0.2,0.7,0.6,0.8,1c0,0.5-0.2,1.1-0.6,1.5c-0.5,0.4-1,0.8-1.6,1c-0.6,0.2-1.1,0.2-1.7,0l-6-2.6c-0.1-0.1-0.3,0-0.5,0.1l-6.4,7
			c-0.5,0.5-0.7,0.8-0.7,1C247.9,126.8,248.3,127.1,248.7,127.3z"/>
		<path id="Path_7143" class="st3" d="M283.5,144.1l0.3,0.1h0.2c0.1,0,0.2,0,0.3-0.1c0.2-0.2,0.4-0.3,0.7-0.5
			c0.4-0.4,0.9-0.8,1.2-1.2c0.2-0.2,0.4-0.3,0.7-0.3c0.2,0,0.4,0.1,0.6,0.2c0.3,0.6,0.2,1.2-0.2,1.7c-0.8,0.8-1.5,1.5-2,1.9
			c-0.5,0.4-1.1,0.7-1.7,0.8c-0.5,0.1-1.1,0-1.6-0.2l-1.1-0.5c-0.7-0.3-1-0.7-1-1.2c0-0.4,0.1-0.8,0.3-1.1c0.5-0.8,1-1.4,1.7-2
			l1.8-2c0.1-0.1,0-0.1-0.1-0.1c-0.2,0-0.5,0-0.7-0.1c-0.2-0.1-0.2-0.3-0.2-0.6c0.1-0.5,0.1-1,0-1.5c0-0.1,0-0.1-0.1-0.1
			c0,0,0,0,0,0c-0.1,0-0.1,0-0.1,0.1c-1.9,2-4,3.7-6.4,5c-0.5,0.3-1.1,0.4-1.7,0.2c-0.1,0-0.1,0-0.2-0.1c-0.4-0.1-0.7-0.5-0.8-0.9
			c0-0.2-0.1-0.3-0.2-0.5c0-0.1-0.1-0.1-0.2-0.1c-0.3,0-0.6,0-0.7-0.1c-0.1-0.2-0.2-0.4-0.2-0.6c0-0.3,0.1-0.6,0.1-0.9
			c0.1-0.4,0.2-0.7,0.5-1c0-0.1,0.1-0.1,0.2-0.2c0.4-0.3,0.9-0.6,1.5-0.7l0,0v-0.1l-3.2-1.4H271v0.1l0.1,0.1
			c0.2,0.4,0.2,0.9-0.1,1.2c0,0.1-0.1,0.2-0.2,0.3c-0.3,0.3-0.7,0.6-1.1,0.7c-0.6,0.2-1.2,0.4-1.8,0.5c-0.6,0.1-1.2,0.1-1.7-0.1l0,0
			c-0.4-0.2-0.8-0.6-0.9-1c0-0.1-0.1-0.1-0.3-0.1c-0.4,0.1-0.7,0.2-1.1,0.2c-0.8,0-1.6-0.2-2.4-0.5h-0.1c-0.3-0.1-0.6-0.4-0.7-0.7
			c-0.1-0.4,0-0.8,0.2-1.1c0.1-0.3,0.4-0.6,0.8-0.7c0.3-0.2,0.7-0.2,1,0c0.3,0.1,0.5,0.2,0.8,0.3c0.2,0,0.3,0.1,0.3,0
			c0.1,0,0.2-0.1,0.3-0.2l1.8-1.9c0.1-0.1,0.1-0.2,0-0.3c0,0,0,0,0,0L264,132c-0.1-0.1-0.3,0-0.5,0.1c-1.5,1.2-3.1,2.2-4.7,3.1
			c-0.4,0.2-0.8,0.2-1.2,0.1h-0.2c-0.3-0.1-0.5-0.3-0.6-0.7c-0.1-0.4,0-0.7,0.2-1c0.1-0.1,0.1-0.2,0.2-0.2c0.3-0.3,0.6-0.4,0.9-0.6
			c2.8-1.5,5.3-3.5,7.3-5.9l2.9-3.2c0.5-0.5,1.1-0.8,1.7-1c0.6-0.2,1.1-0.2,1.7,0l3.7,1.6c0.4,0.2,0.7,0.6,0.8,1
			c0,0.5-0.2,1.1-0.6,1.5l-8.6,9.5l-0.6,0.6v0.1h0.1c1.3-0.3,2.6-0.7,3.8-1.2c0.1,0,0.1-0.1,0-0.1c-0.2-0.1-0.4-0.3-0.5-0.6
			c0-0.3,0.1-0.6,0.3-0.8l6.4-7c0.5-0.4,1-0.8,1.6-1c0.6-0.2,1.1-0.2,1.7,0l3.6,1.6c0.4,0.2,0.7,0.6,0.8,1c0,0.5-0.2,1.1-0.6,1.5
			l-6.3,6.9c-0.3,0.3-0.6,0.5-1,0.7c-0.4,0.1-0.8,0.1-1.1,0h-0.1v1.8c0,0.1,0.1,0.2,0.2,0.1c2.2-1.2,4.1-2.8,5.7-4.7l3.7-4.1
			c0.5-0.5,1.1-0.8,1.7-1c0.6-0.2,1.1-0.2,1.7,0l3.8,1.7c0.4,0.2,0.7,0.6,0.8,1c0,0.5-0.2,1.1-0.6,1.5l-7.8,8.6
			c-0.7,0.7-0.9,1-0.9,1.1C283.3,144,283.3,144.1,283.5,144.1z M266.1,129.9c-0.1,0.1-0.1,0.2,0,0.3c0,0,0,0,0,0l1.6,0.7
			c0.1,0.1,0.3,0,0.5-0.1l0.8-0.9c0.1-0.1,0.1-0.2,0-0.3c0,0,0,0,0,0l-1.6-0.7c-0.1-0.1-0.3,0-0.5,0.1l-0.5,0.5
			C266.4,129.6,266.3,129.7,266.1,129.9L266.1,129.9z M272,126.5c0.1-0.1,0.1-0.2,0-0.3c0,0,0,0,0,0l-1.6-0.7
			c-0.1-0.1-0.3,0-0.5,0.1l-0.8,0.9c-0.1,0.1-0.1,0.2,0,0.3c0,0,0,0,0,0l1.6,0.7c0.1,0.1,0.3,0,0.5-0.1L272,126.5z M275.2,135.5
			c0.1,0.1,0.3,0,0.5-0.1l0.5-0.6c0.1-0.1,0.1-0.2,0-0.3c0,0,0,0,0,0l-1.8-0.8c-0.1-0.1-0.3,0-0.5,0.1l-0.5,0.6
			c-0.1,0.1-0.1,0.2,0,0.3c0,0,0,0,0,0L275.2,135.5z M274.3,122.9c-0.4-0.2-0.7-0.6-0.8-1c0-0.5,0.2-1.1,0.6-1.5l1.4-1.6
			c0.5-0.4,1-0.8,1.6-1c0.5-0.2,1.2-0.2,1.7,0l17.2,7.3c0.4,0.2,0.7,0.6,0.8,1c0,0.5-0.2,1.1-0.6,1.5l-1.4,1.6c-0.5,0.4-1,0.8-1.6,1
			c-0.6,0.2-1.1,0.2-1.7,0L274.3,122.9z M277.6,132.9c0.1,0.1,0.3,0,0.5-0.1l0.5-0.6c0.1-0.1,0.1-0.2,0-0.3c0,0,0,0,0,0l-1.8-0.8
			c-0.1-0.1-0.3,0-0.5,0.1l-0.5,0.6c-0.1,0.1-0.1,0.2,0,0.3c0,0,0,0,0,0L277.6,132.9z M278.8,120.6c-0.1-0.1-0.2,0-0.5,0.1l-0.6,0.6
			c-0.1,0.1-0.1,0.2,0,0.3c0,0,0,0,0,0l13.6,5.9c0.1,0.1,0.2,0,0.5-0.1l0.6-0.6c0.1-0.1,0.1-0.2,0-0.3c0,0,0,0,0,0L278.8,120.6z
			 M294.3,123.2l-12.7-5.4c-2-0.9-3.2-1.7-3.5-2.6c-0.2-0.8,0.1-1.8,1.2-3.2l0.5-0.5c0.5-0.4,1-0.8,1.6-1c0.5-0.2,1.2-0.2,1.7,0
			l8.1,3.5c0.1,0,0.2,0,0.3-0.1c0.3-0.4,0.8-0.6,1.2-0.8c0.4-0.1,0.9-0.1,1.4,0l0.9,0.5c0.3,0.1,0.6,0.4,0.6,0.8
			c0,0.4-0.2,0.8-0.5,1.1c-0.1,0.1-0.1,0.2,0,0.2l9.8,4.3c0.3,0.1,0.6,0.4,0.6,0.7c0,0.4-0.2,0.8-0.5,1c-0.3,0.3-0.7,0.6-1.1,0.7
			c-0.4,0.1-0.8,0.1-1.1,0l-20.3-8.7c-0.1-0.1-0.2-0.1-0.3,0c0,0,0,0,0,0.1c-0.2,0.3-0.2,0.6-0.1,0.9c0.4,0.4,0.9,0.7,1.5,0.9
			l12,5.2c1.8,0.8,3.6,1.5,5.4,2c0.3,0.1,0.6,0.4,0.7,0.7c0.1,0.3,0,0.7-0.2,0.9c-0.3,0.3-0.6,0.6-1,0.8c-0.3,0.2-0.8,0.2-1.1,0.1
			C298.1,124.9,296.5,124.2,294.3,123.2L294.3,123.2z M280,130.3c0.1,0.1,0.3,0,0.5-0.1l0.5-0.5c0.1-0.1,0.1-0.2,0-0.3c0,0,0,0,0,0
			l-1.8-0.8c-0.1-0.1-0.3,0-0.5,0.1l-0.5,0.5c-0.1,0.1-0.1,0.2,0,0.3c0,0,0,0,0,0L280,130.3z M284.5,135.1L284.5,135.1
			c0.3,0,0.5,0,0.8,0.1c0.2,0.1,0.3,0.2,0.3,0.5c0,0.3,0.1,0.7,0.1,1.2c0,0.1,0,0.1,0.1,0.1c0,0,0,0,0,0c0.1,0,0.1,0,0.1-0.1
			l2.7-2.9c0.1-0.1,0.1-0.2,0-0.3c0,0,0,0,0,0l-1.8-0.8c-0.1-0.1-0.3,0-0.5,0.1L284.5,135.1z"/>
	</g>
</g>
</svg>
