<?xml version="1.0" encoding="utf-8"?>
<!-- Generator: Adobe Illustrator 24.0.3, SVG Export Plug-In . SVG Version: 6.00 Build 0)  -->
<svg version="1.1" id="圖層_1" xmlns="http://www.w3.org/2000/svg" xmlns:xlink="http://www.w3.org/1999/xlink" x="0px" y="0px"
	 viewBox="0 0 522.3 540.2" style="enable-background:new 0 0 522.3 540.2;" xml:space="preserve">
<style type="text/css">
	.st0{fill:#EF8619;stroke:#030000;stroke-width:2.045;stroke-miterlimit:10;}
	.st1{fill:#FFFFFF;}
	.st2{fill:none;stroke:#231815;stroke-width:2.045;stroke-miterlimit:10;}
	.st3{fill:#231815;}
	.st4{fill:#EF8619;}
	.st5{fill:none;stroke:#231815;stroke-width:2.045;stroke-linecap:round;stroke-miterlimit:10;}
	.st6{fill:none;stroke:#030000;stroke-width:1.7484;stroke-miterlimit:10;}
	.st7{fill:#FFFFFF;stroke:#231815;stroke-width:2.045;stroke-miterlimit:10;}
	.st8{fill:#71BF87;stroke:#030000;stroke-width:2.045;stroke-miterlimit:10;}
</style>
<g id="feature1" transform="translate(0.54 0.513)">
	<path id="Path_6968" class="st0" d="M136.3,216.1c1-1.5,3-1.9,4.5-0.9c1.4,1.1,1.7,3.1,0.6,4.5c0,0,0,0,0,0c-0.9,1.5-2.9,1.9-4.3,1
		c-1.5-0.9-1.9-2.9-1-4.3C136.2,216.3,136.2,216.2,136.3,216.1"/>
	<path id="Path_6969" class="st0" d="M141.4,236c0,0-4.1-12.2-3.4-22.2c0.6-7.8-14.8-12.5-15.9,1.7c-0.8,10.2,2.4,24,5.8,30.6"/>
	<path id="Path_6970" class="st0" d="M203.1,457.2v46.1c0,7.8-6.3,14.1-14,14.1l0,0c-7.8-0.1-14-6.4-14-14.1v-46.1"/>
	<path id="Path_6971" class="st0" d="M118.8,258.8C74,324.9,91.1,414.6,156.9,459c65.8,44.4,155.3,26.9,200.1-39.2
		s27.6-155.9-38.1-200.3C253,175,163.4,192.5,118.8,258.8"/>
	<path id="Path_6972" class="st0" d="M336.9,302.4c0.1-1.8-1.3-3.3-3.1-3.4c-1.8,0.1-3.1,1.6-3.1,3.3c0,0,0,0,0,0.1
		c-0.2,1.7,1,3.2,2.7,3.4c1.7,0.2,3.2-1,3.4-2.7C336.9,302.8,336.9,302.6,336.9,302.4"/>
	<path id="Path_6973" class="st0" d="M321.2,315.6c0,0,10.4-7.6,15.6-16c4.1-6.7,19.3-1.6,12,10.7c-5.2,8.8-15.9,18.1-22.5,21.6"/>
	<path id="Path_6974" class="st1" d="M208.3,294.3c-0.5,1-1,1.9-1.7,2.8c-5.9,8.7-15,12.7-20.5,9c-5.4-3.7-5.1-13.7,0.8-22.3
		c0.6-0.9,1.2-1.8,1.9-2.6L208.3,294.3z"/>
	<path id="Path_6975" class="st2" d="M208.3,294.3c-0.5,1-1,1.9-1.7,2.8c-5.9,8.7-15,12.7-20.5,9c-5.4-3.7-5.1-13.7,0.8-22.3
		c0.6-0.9,1.2-1.8,1.9-2.6L208.3,294.3z"/>
	<path id="Path_6976" class="st3" d="M188.1,283.5c-3.2,4.7-3.4,10.2-0.5,12.2c2.9,2,8-0.2,11.2-5c3.2-4.7,3.4-10.2,0.5-12.2
		C196.2,276.6,191.2,278.8,188.1,283.5"/>
	<path id="Path_6977" class="st4" d="M207.4,274.7c4.9,3.3,5.1,11.6,0.9,19.6l-19.4-13.1C194.7,274.2,202.5,271.4,207.4,274.7"/>
	<path id="Path_6978" class="st2" d="M207.4,274.7c4.9,3.3,5.1,11.6,0.9,19.6l-19.4-13.1C194.7,274.2,202.5,271.4,207.4,274.7z"/>
	<path id="Path_6979" class="st5" d="M216.7,285.1c-1.6,1-3.6,1-5.3,0.1"/>
	<path id="Path_6980" class="st5" d="M216.5,288c-1.7,0.8-3.7,0.6-5.3-0.5"/>
	<path id="Path_6981" class="st5" d="M216.5,282.2c-1.6,1-3.6,1.2-5.3,0.3"/>
	<path id="Path_6982" class="st1" d="M151.8,256c-0.7,0.8-1.3,1.7-1.9,2.6c-5.9,8.7-6.2,18.6-0.8,22.3c5.4,3.7,14.6-0.3,20.5-9
		c0.6-0.9,1.1-1.8,1.7-2.8L151.8,256z"/>
	<path id="Path_6983" class="st2" d="M151.8,256c-0.7,0.8-1.3,1.7-1.9,2.6c-5.9,8.7-6.2,18.6-0.8,22.3c5.4,3.7,14.6-0.3,20.5-9
		c0.6-0.9,1.1-1.8,1.7-2.8L151.8,256z"/>
	<path id="Path_6984" class="st3" d="M161.6,265.7c-3.2,4.7-8.1,6.9-11.2,5c-2.9-2-2.8-7.5,0.5-12.2c3.2-4.7,8.3-6.9,11.2-5
		C165,255.5,164.8,260.9,161.6,265.7"/>
	<path id="Path_6985" class="st4" d="M170.3,249.6c-4.9-3.3-12.7-0.5-18.4,6.4l19.4,13.1C175.4,261.2,175.2,252.9,170.3,249.6"/>
	<path id="Path_6986" class="st2" d="M170.3,249.6c-4.9-3.3-12.7-0.5-18.4,6.4l19.4,13.1C175.4,261.2,175.2,252.9,170.3,249.6z"/>
	<path id="Path_6987" class="st5" d="M157.2,244.9c-0.3,1.9,0.4,3.8,1.9,5"/>
	<path id="Path_6988" class="st5" d="M154.5,246.1c-0.1,1.9,0.8,3.7,2.4,4.7"/>
	<path id="Path_6989" class="st5" d="M159.8,244c-0.4,1.9,0.2,3.8,1.6,5.1"/>
	<path id="Path_6990" class="st5" d="M175.3,311.2c0,0-8.4,1.4-7.7,11.4"/>
	<path id="Path_6991" class="st5" d="M149.4,293.7c0,0,1.8,8.3-7.7,11.4"/>
	<line id="Line_26" class="st2" x1="169.2" y1="315.4" x2="147.8" y2="300.9"/>
	<path id="Path_6992" class="st1" d="M151.8,303.9l2.5,1.7l2.5,1.7c0,0-1.4,3.1-3.7,1.5l-0.6-0.3l-0.6-0.3
		C149.5,306.3,151.8,303.9,151.8,303.9"/>
	<path id="Path_6993" class="st2" d="M151.9,303.7l2.5,1.7l2.5,1.7c0,0-1.6,3.5-4.1,1.8l-0.6-0.3l-0.6-0.3
		C149.3,306.6,151.9,303.7,151.9,303.7z"/>
	<path id="Path_6994" class="st1" d="M160,309.5l2.5,1.7l2.5,1.7c0,0-1.4,3.1-3.7,1.5l-0.6-0.3l-0.6-0.3
		C157.7,311.9,160,309.5,160,309.5"/>
	<path id="Path_6995" class="st2" d="M160.1,309.4l2.5,1.7l2.5,1.7c0,0-1.6,3.5-4.1,1.8l-0.6-0.3l-0.6-0.3
		C157.5,312.1,160.1,309.4,160.1,309.4z"/>
	<path id="Path_6996" class="st4" d="M322.3,221.9c0,0-15.8-9.4-19.9-31c0,0-0.7-2.3-2.9-0.1c0,0-15.4,13.6-11.1,24.8"/>
	<path id="Path_6997" class="st6" d="M322.4,221.8c0,0-15.8-9.4-19.9-31c0,0-0.7-2.3-2.9-0.1c0,0-15.4,13.6-11.1,24.8"/>
	<path id="Path_6998" class="st0" d="M274,472.4v46.1c0,7.8-6.3,14.1-14,14.1l0,0c-7.8-0.1-14-6.4-14-14.1v-40"/>
	<path id="Path_6999" class="st7" d="M384.9,324.5L13.2,161.1c-5.8-2.6-8.5-9.5-5.8-15.3c0.4-1,1-1.8,1.7-2.7L121,11
		c3.3-3.8,8.7-5.1,13.3-3.1l374.6,164.6c4.7,2,6.8,7.5,4.7,12.1c-0.4,0.8-0.9,1.6-1.5,2.3L398.3,321.5
		C395,325.4,389.6,326.6,384.9,324.5z"/>
	<g id="Group_631" transform="translate(176.723 77.507)">
		<path id="Path_7000" class="st8" d="M46.3,17.3c1.5,0.6,3,1.3,4.4,2.1c0.6,0.3,0.9,0.9,0.8,1.6c0,0.6-0.3,1.3-0.8,1.7
			c-6.5,7.2-14,13.5-22.2,18.8c-0.2,0.2-0.5,0.5-0.3,0.7c0.4,1.4,0.6,2.8,0.8,4.3c0.1,1.1-0.3,2.1-1.1,2.8c-0.8,0.8-1.8,1.5-2.8,1.9
			L22.9,52c-0.8,0.4-1.8,0.5-2.6,0.1l0,0c-0.7-0.2-1.1-0.9-1.1-1.6c0-0.9-0.1-1.9-0.2-3.2c0-0.2-0.2-0.3-0.6-0.1
			c-4.2,1.9-8.5,3.3-13,4.2c-0.7,0.1-1.4,0.1-2-0.1c-0.2-0.1-0.4-0.2-0.6-0.3c-0.7-0.5-1-1.3-0.8-2.1c0-0.6,0.1-1,0.1-1.6
			c0.1-0.7,0.4-1.3,0.9-1.8c0.1-0.1,0.3-0.3,0.3-0.5C4.1,44.3,5,43.8,6,43.6c3.8-0.7,7.4-1.9,10.9-3.6c0.3-0.1,0.5-0.3,0.3-0.6
			l-0.3-1.2c0-0.1-0.1-0.1-0.2,0c-0.3,0.3-0.7,0.4-1.1,0.5c-0.3,0-0.6-0.1-0.8-0.3l-1.5-2.4c-0.4-0.8-0.5-1.7-0.1-2.5
			c0.3-0.6,0.6-1.2,1-1.7c0.3-0.4,0.6-0.7,1-0.9c3.6-2.8,8.1-6.4,13.5-10.9c0.2-0.2,0.3-0.5,0-0.6l-0.2-0.1c-0.8-0.3-1.4-1-1.5-1.8
			c-0.1-0.9,0.3-1.9,1-2.5l0.9-0.9c0.7-0.8,1.7-1.4,2.7-1.7c0.9-0.3,2-0.3,2.9,0l1.6,0.7c0.2,0.1,0.5,0,0.8-0.2
			c2-1.8,4.4-3.8,7.1-6.2c0.9-0.8,1.9-1.3,3.1-1.5c0.9-0.2,1.8-0.1,2.6,0.2c0.1,0,0.2,0.1,0.3,0.2l1,0.6c0.7,0.3,1.2,1.1,1.1,1.9
			C52,8.8,51.7,9.5,51.2,10l-0.5,0.5c-2.3,1.9-4.4,3.7-6.6,5.5c-0.2,0.2-0.2,0.3,0,0.5L46.3,17.3z M38.9,24.1c0.2-0.2,0.3-0.5,0-0.6
			l-2.4-1c-0.3-0.1-0.6,0-0.8,0.2c-2.4,1.9-5.9,4.7-10.5,8.5C25,31.5,24.9,31.7,25,32c0.3,0.8,0.6,1.6,0.8,2.4
			c0.1,0.2,0.2,0.2,0.6,0C30.8,31.2,35,27.8,38.9,24.1z M69.9,41.2c0.8,0.3,1.4,1,1.5,1.8c0.1,0.9-0.3,1.9-1,2.5l-1,1.1
			c-0.8,0.8-1.8,1.4-2.8,1.7c-1,0.4-2,0.3-2.9-0.1l-7.8-3.3c-0.3-0.1-0.6,0-0.8,0.2L43.2,58.3c-1.3,1.5-2.8,2.8-4.4,4
			c-1.4,0.8-2.9,1.3-4.5,1.5c-2.5,0-4.9-0.5-7.2-1.4c-0.1,0-0.1-0.1-0.2-0.1c-0.7-0.3-1.3-0.9-1.6-1.6c-0.2-0.9-0.1-1.9,0.5-2.7
			c0.3-0.7,0.6-1.3,0.8-2c0.1-0.3,0.3-0.6,0.6-0.8c0.4-0.4,0.8-0.7,1.2-0.9c0.7-0.4,1.6-0.4,2.4-0.1l0,0c0.8,0.3,1.4,0.6,1.8,0.8
			c0.5,0.2,0.8,0.3,1,0.5c0.4,0.2,0.7,0.3,1.1,0.2c0.3-0.1,0.6-0.3,0.8-0.6L47,42c0.2-0.2,0.2-0.5-0.1-0.6l-7.1-3.1
			c-0.8-0.3-1.4-1-1.5-1.8c-0.1-0.9,0.3-1.8,0.9-2.5l1-1.1c0.8-0.8,1.7-1.4,2.8-1.7c0.9-0.3,2-0.3,2.9,0l7.1,3.1
			c0.3,0.1,0.6,0,0.8-0.2l2.8-3.2c0.5-0.5,1.1-0.9,1.8-1.1c0.6-0.2,1.3-0.2,1.9,0c0.2,0.1,0.4,0.1,0.6,0c2.7-1,5.4-2.1,8-3.4
			c0.1,0,0.1-0.1,0.2-0.2c0-0.1,0-0.1-0.1-0.2l-11.6-4.9c-0.8-0.3-1.4-1-1.5-1.8c-0.1-0.9,0.3-1.9,1-2.5l0.8-0.9
			c0.8-0.8,1.8-1.4,2.8-1.7c1-0.4,2-0.3,2.9,0.1l16.7,7c0.1,0.1,0.2,0.1,0.5,0.1c0.3,0,0.6,0.1,0.9,0.2c0.6,0.2,1.1,0.7,1.2,1.4
			l0.6,1.6c0.2,0.9,0,1.8-0.6,2.5c-0.1,0.2-0.3,0.4-0.5,0.6c-0.6,0.6-1.3,1.1-2.1,1.5c-6.3,2.7-11.9,4.7-16.5,6.2
			c-0.3,0.1-0.6,0.2-0.8,0.5l-1.2,1.4c-0.2,0.2-0.2,0.5,0.1,0.6L69.9,41.2z"/>
		<path id="Path_7001" class="st8" d="M100.2,39.9c1.5,0.6,3,1.3,4.4,2.1c0.6,0.3,0.9,0.9,0.8,1.6c0,0.6-0.3,1.3-0.8,1.7
			c-6.5,7.2-14,13.5-22.2,18.8c-0.2,0.2-0.5,0.5-0.3,0.7c0.4,1.4,0.6,2.8,0.8,4.3c0.1,1.1-0.3,2.1-1.1,2.8c-0.8,0.8-1.8,1.5-2.8,1.9
			l-2.1,0.8C76,75,75,75,74.2,74.7l0,0c-0.7-0.2-1.1-0.9-1.1-1.6c0-0.9-0.1-1.9-0.2-3.2c0-0.2-0.2-0.3-0.6-0.1
			c-4.2,1.9-8.5,3.3-13,4.2c-0.7,0.1-1.4,0.1-2-0.1c-0.2-0.1-0.4-0.2-0.6-0.3c-0.7-0.5-1-1.3-0.8-2.1c0-0.6,0.1-1,0.1-1.6
			c0.1-0.7,0.4-1.3,0.9-1.8c0.1-0.1,0.3-0.3,0.3-0.5c0.8-0.7,1.7-1.1,2.7-1.4c3.8-0.7,7.4-1.9,10.9-3.6c0.3-0.1,0.5-0.3,0.3-0.6
			l-0.3-1.2c0-0.1-0.1-0.1-0.2,0c-0.3,0.3-0.7,0.4-1.1,0.5c-0.3,0-0.6-0.1-0.8-0.3l-1.5-2.4c-0.4-0.8-0.5-1.7-0.1-2.5
			c0.3-0.6,0.6-1.2,1-1.7c0.3-0.4,0.6-0.7,1-0.9c3.6-2.8,8.1-6.4,13.5-10.9c0.2-0.2,0.3-0.5,0-0.6l-0.2-0.1c-0.8-0.3-1.4-1-1.5-1.8
			c-0.1-0.9,0.3-1.9,1-2.5l0.9-0.9c0.7-0.8,1.7-1.4,2.7-1.7c0.9-0.3,2-0.3,2.9,0l1.6,0.7c0.2,0.1,0.5,0,0.8-0.2
			c2-1.8,4.4-3.8,7.1-6.2c0.9-0.8,1.9-1.3,3.1-1.5c0.9-0.2,1.8-0.1,2.6,0.2c0.1,0,0.2,0.1,0.3,0.2l1,0.6c0.7,0.3,1.2,1.1,1.1,1.9
			c-0.1,0.7-0.4,1.4-0.9,1.9l-0.5,0.5c-2.3,1.9-4.4,3.7-6.6,5.5c-0.2,0.2-0.2,0.3,0,0.5L100.2,39.9z M92.8,46.8
			c0.2-0.2,0.3-0.5,0-0.6l-2.4-1c-0.3-0.1-0.6,0-0.8,0.2c-2.4,1.9-5.9,4.7-10.5,8.5c-0.2,0.2-0.3,0.5-0.2,0.7
			c0.3,0.8,0.6,1.6,0.8,2.4c0.1,0.2,0.2,0.2,0.6,0C84.7,53.8,88.9,50.4,92.8,46.8L92.8,46.8z M123.8,63.8c0.8,0.3,1.4,1,1.5,1.8
			c0.1,0.9-0.3,1.9-1,2.5l-1,1.1c-0.8,0.8-1.8,1.4-2.8,1.7c-1,0.4-2,0.3-2.9-0.1l-7.8-3.3c-0.3-0.1-0.6,0-0.8,0.2L97.1,80.9
			c-1.3,1.5-2.8,2.8-4.4,4c-1.4,0.8-2.9,1.3-4.5,1.5c-2.5,0-4.9-0.5-7.2-1.4c-0.1,0-0.1-0.1-0.2-0.1c-0.7-0.3-1.3-0.9-1.6-1.6
			c-0.2-0.9-0.1-1.9,0.5-2.7c0.3-0.7,0.6-1.3,0.8-2c0.1-0.3,0.3-0.6,0.6-0.8c0.4-0.4,0.8-0.7,1.2-0.9c0.7-0.4,1.6-0.4,2.4-0.1l0,0
			c0.8,0.3,1.4,0.6,1.8,0.8c0.5,0.2,0.8,0.3,1,0.5c0.4,0.2,0.7,0.3,1.1,0.2c0.3-0.1,0.6-0.3,0.8-0.6l11.6-13
			c0.2-0.2,0.2-0.5-0.1-0.6L93.7,61c-0.8-0.3-1.4-1-1.5-1.8c-0.1-0.9,0.3-1.8,0.9-2.5l1-1.1c0.8-0.8,1.7-1.4,2.8-1.7
			c0.9-0.3,2-0.3,2.9,0l7.1,3.1c0.3,0.1,0.6,0,0.8-0.2l2.8-3.2c0.5-0.5,1.1-0.9,1.8-1.1c0.6-0.2,1.3-0.2,1.9,0
			c0.2,0.1,0.4,0.1,0.6,0c2.7-1,5.4-2.1,8-3.4c0.1,0,0.1-0.1,0.2-0.2c0-0.1,0-0.1-0.1-0.2l-11.6-4.9c-0.8-0.3-1.4-1-1.5-1.8
			c-0.1-0.9,0.3-1.9,1-2.5l0.8-0.9c0.8-0.8,1.8-1.4,2.8-1.7c1-0.4,2-0.3,2.9,0.1l16.7,7c0.1,0.1,0.2,0.1,0.5,0.1
			c0.3,0,0.6,0.1,0.9,0.2c0.6,0.2,1.1,0.7,1.2,1.4l0.6,1.6c0.2,0.9,0,1.8-0.6,2.5c-0.1,0.2-0.3,0.4-0.5,0.6
			c-0.6,0.6-1.3,1.1-2.1,1.5c-6.3,2.7-11.9,4.7-16.5,6.2c-0.3,0.1-0.6,0.2-0.8,0.5l-1.2,1.4c-0.2,0.2-0.2,0.5,0.1,0.6L123.8,63.8z"
			/>
		<path id="Path_7002" class="st8" d="M191.7,69.1c0.8,0.2,1.3,1,1.4,1.8c0.1,0.9-0.3,1.8-0.9,2.5l-2,2.3c-0.8,0.8-1.7,1.4-2.8,1.7
			c-0.9,0.3-2,0.3-2.9,0l-2.6-1.1h-0.1v0.1c0.6,0.6,0.9,1.4,0.8,2.3c0,0.5-0.2,1-0.6,1.4c-0.3,0.3-0.6,0.6-1,0.8
			c-1.2,0.8-2.6,1.2-4.1,1.2c-1.5,0-3-0.4-4.4-1l-5.9-2.5c-3.3-1.4-5-2.7-5.3-4.1c-0.3-1.4,0.6-3.2,2.7-5.5l2-2.3
			c0.2-0.2,0.2-0.5,0-0.5l-2.3-1c-0.3-0.1-0.6-0.1-0.8,0.1c-2.4,2-5.2,3.6-8.1,4.6c-3.3,0.9-6.7,1-10.1,0.6h-0.1v0.1l26.2,11
			c0.8,0.2,1.3,1,1.4,1.8c0.1,0.9-0.3,1.8-0.9,2.5l-7.3,8.3c-0.2,0.2-0.2,0.5,0,0.6l1.8,0.8c0.8,0.3,1.4,1,1.5,1.8
			c0.1,0.9-0.3,1.8-0.9,2.5l-7.3,8.3c-1.1,1.4-2.5,2.5-4,3.5c-1.2,0.8-2.6,1.3-4.1,1.4c-1.9,0.1-3.8-0.2-5.5-0.9
			c-0.1,0-0.1-0.1-0.2-0.1c-0.7-0.3-1.3-0.9-1.5-1.7c-0.2-0.9-0.1-1.9,0.3-2.7c0.6-1.2,1.1-2.5,1.6-3.7c0-0.1,0-0.1-0.1-0.1
			c-0.1,0-0.1,0-0.1,0.1c0,0,0,0,0,0l-0.8,0.9c-0.8,0.8-1.8,1.4-2.8,1.7c-1,0.4-2,0.3-2.9-0.1l-9.5-4c-0.1,0-0.2,0-0.3,0.1
			c-0.4,0.3-0.8,0.6-1.2,0.8c-0.4,0.1-0.9,0.1-1.4,0l-2.4-1c-0.8-0.3-1.4-1-1.5-1.8c-0.1-0.9,0.3-1.9,1-2.5l4.2-4.7
			c0.8-0.8,1.8-1.4,2.8-1.7c1-0.4,2-0.3,2.9,0.1l13.5,5.7c0.8,0.3,1.4,1,1.5,1.8c0.1,0.9-0.3,1.9-1,2.5l-1.2,1.5
			c-0.2,0.2-0.2,0.5,0.1,0.6c0.9,0.5,2,0.9,3.5,1.6c0.3,0.1,0.6,0.2,0.8,0.1c0.2,0,0.5-0.2,0.7-0.5l4.7-5.3c0.2-0.2,0.2-0.5-0.1-0.6
			L127.8,87c-0.2-0.1-0.5,0-0.7,0.2l-8.6,9.6c-0.8,0.8-1.8,1.4-2.8,1.7c-1,0.4-2,0.3-2.9-0.1l-1.5-0.6c-0.8-0.3-1.4-1-1.5-1.8
			c-0.1-0.9,0.3-1.8,0.9-2.5l11.1-12.3c0.8-0.8,1.8-1.4,2.8-1.7c1-0.4,2-0.3,2.9,0.1l1.8,0.8c0.3,0.1,0.6,0,0.8-0.2l8.9-10.1
			c0.2-0.2,0.1-0.3-0.1-0.5c-0.2,0-0.4-0.1-0.6-0.1c-0.2,0-0.5-0.1-0.7-0.2c-0.6-0.2-1.2-0.7-1.5-1.2c-0.4-1-0.5-2.1-0.2-3.2
			c0.1-0.4,0.3-0.8,0.6-1.1c0.2-0.3,0.5-0.5,0.8-0.7c0.7-0.4,1.5-0.6,2.3-0.3c2.3,0.7,4.6,1.2,7,1.5c1.5,0.2,3,0,4.4-0.3
			c1.2-0.4,2.4-1,3.4-1.8c0.1-0.1,0.1-0.2,0.1-0.3c0-0.1,0-0.1-0.1-0.2l-5.3-2.3c-0.2-0.1-0.5,0-0.7,0.2l-0.2,0.3
			c-0.8,0.8-1.8,1.4-2.8,1.7c-1,0.4-2,0.3-2.9-0.1l-1.4-0.6c-0.8-0.3-1.4-1-1.5-1.8c-0.1-0.9,0.3-1.8,0.9-2.5l3.1-3.4
			c0.8-0.8,1.7-1.4,2.8-1.7c0.9-0.3,2-0.3,2.9,0l16.7,7c0.2,0.1,0.5,0,0.7-0.2c0.8-0.8,1.7-1.4,2.8-1.7c0.9-0.3,2-0.3,2.9,0l1.9,0.8
			c0.8,0.2,1.3,1,1.4,1.8c0.1,0.9-0.3,1.8-0.9,2.5c-0.2,0.2-0.2,0.5,0,0.6L191.7,69.1z M137.5,100.3c0.2,0.1,0.5,0,0.7-0.2l0.9-1
			c0.2-0.2,0.2-0.5,0-0.5l-4.9-2c-0.2-0.1-0.5,0-0.7,0.2l-0.9,1c-0.2,0.2-0.2,0.5,0,0.5L137.5,100.3z M161.2,85.1
			c0.2-0.2,0.2-0.5,0-0.5L143,76.9c-0.2-0.1-0.5,0-0.7,0.2l-5.1,5.7c-0.2,0.2-0.2,0.5,0,0.6l5.2,2.1c0.2,0.1,0.5,0,0.7-0.2l1.5-1.7
			c0.8-0.8,1.7-1.4,2.8-1.7c0.9-0.3,2-0.3,2.9,0L160,86c0.2,0.1,0.5,0,0.7-0.2L161.2,85.1z M155.4,90.9c0.2,0.1,0.5,0,0.7-0.2
			l0.7-0.7c0.2-0.2,0.2-0.5,0-0.5l-5.3-2.3c-0.2-0.1-0.5,0-0.7,0.2l-0.7,0.7c-0.2,0.2-0.2,0.5,0,0.6L155.4,90.9z M171.9,74.2
			l3.6,1.5c0.5,0.2,1,0.2,1.5,0.1c0.6-0.3,1.2-0.6,1.7-1.1c0.2-0.2,0.4-0.3,0.7-0.2c0.2,0,0.4,0.1,0.6,0.2c0,0.1,0.1,0,0.2,0
			l1.2-1.4c0.2-0.2,0.2-0.5,0-0.5l-7.1-3.1c-0.2-0.1-0.5,0-0.7,0.2l-2,2.3c-0.4,0.4-0.7,0.8-0.8,1.4L171.9,74.2z"/>
	</g>
	<g id="Group_632" transform="translate(81.103 123.018)">
		<path id="Path_7003" class="st3" d="M5.1,29c-0.4-0.2-0.7-0.6-0.8-1c0-0.5,0.2-1.1,0.6-1.5l15-16.5C20,10,20,9.9,20,9.8
			c0,0,0,0,0,0l-4.4-1.9c-0.4-0.2-0.7-0.6-0.8-1c0-0.5,0.2-1.1,0.6-1.5l0.2-0.2c0.5-0.4,1-0.8,1.6-1c0.5-0.2,1.2-0.2,1.7,0l13.9,6
			c0.4,0.2,0.7,0.6,0.8,1c0,0.5-0.2,1.1-0.6,1.5l-0.2,0.2c-0.5,0.4-1,0.8-1.6,1c-0.5,0.2-1.2,0.2-1.7,0L25,11.9
			c-0.1-0.1-0.3,0-0.5,0.1l-15,16.5c-0.5,0.4-1,0.8-1.6,1c-0.5,0.2-1.2,0.2-1.7,0L5.1,29z"/>
		<path id="Path_7004" class="st3" d="M30.9,40.1c-0.5-0.2-0.9-0.6-1-1.1c-0.1-0.5,0-1.1,0.2-1.6l2.4-4.3c0.1-0.2,0.1-0.3-0.1-0.3
			l-6.9-2.9c-0.1-0.1-0.3,0-0.5,0.1l-4.5,3.4c-0.6,0.4-1.2,0.7-1.9,0.8c-0.6,0.1-1.2,0.1-1.8-0.1l-1.1-0.5c-0.5-0.3-0.7-0.9-0.4-1.4
			c0.1-0.2,0.2-0.3,0.3-0.4c0.1-0.1,0.3-0.3,0.5-0.3l23.4-16.2c0.6-0.4,1.2-0.7,1.9-0.8c0.6-0.1,1.2-0.1,1.8,0.1l1.8,0.8
			c0.5,0.1,0.9,0.5,1,1c0.1,0.5,0.1,1.1-0.2,1.6l-11,21.6c-0.1,0.1-0.2,0.3-0.3,0.5c-0.3,0.3-0.6,0.4-0.9,0.6
			c-0.5,0.2-1,0.2-1.5,0.1L30.9,40.1z M29.6,26.7c-0.1,0-0.1,0-0.1,0.1c0,0,0,0,0,0c0,0.1,0,0.1,0.1,0.1l5,2.1h0.2
			c0.1,0,0.1-0.1,0.2-0.1l1.4-2.5c0.6-1,1.4-2.5,2.5-4.4c1.1-1.9,1.8-3.2,2.1-3.7v-0.1h-0.1c-2.7,2.1-5.5,4.3-8.5,6.3L29.6,26.7z"/>
		<path id="Path_7005" class="st3" d="M38.2,43.4c-0.4-0.2-0.7-0.6-0.8-1c0-0.5,0.2-1.1,0.6-1.5l17.1-18.8c0.5-0.4,1-0.8,1.6-1
			c0.5-0.2,1.2-0.2,1.7,0l1.5,0.7c0.5,0.2,0.9,0.6,1,1.1c0.1,0.5,0.1,1.1-0.1,1.6l-4.6,10.2c-0.1,0.2-0.9,1.8-2.5,4.7v0.1h0.1
			c0.9-0.5,1.7-1.2,2.5-1.8c1.1-0.8,2-1.5,2.6-1.8L70,28.6c0.6-0.4,1.3-0.7,2-0.8c0.6-0.1,1.2-0.1,1.8,0.1l1.5,0.7
			c0.4,0.2,0.7,0.6,0.8,1c0,0.5-0.2,1.1-0.6,1.5L58.5,49.9c-0.5,0.4-1,0.8-1.6,1c-0.5,0.2-1.2,0.2-1.7,0l-0.6-0.2
			c-0.4-0.2-0.7-0.6-0.8-1c0-0.5,0.2-1.1,0.6-1.5l6.9-7.5c1.1-1.2,3.5-3.6,7.1-7c0,0,0.1,0,0-0.1h-0.1L61.7,38l-10.5,6.8
			c-0.4,0.3-0.9,0.5-1.5,0.6c-0.5,0.1-0.9,0-1.4-0.1c-0.4-0.1-0.7-0.4-0.8-0.8c-0.1-0.4-0.1-0.8,0.1-1.1l4.3-9.5l2.9-5.9v-0.1h-0.1
			c-3.1,3.8-5,6.3-6,7.5L42,42.7c-0.5,0.4-1,0.8-1.6,1c-0.5,0.2-1.2,0.2-1.7,0L38.2,43.4z"/>
		<path id="Path_7006" class="st3" d="M76.9,60c-0.5-0.2-0.9-0.6-1-1.1c-0.1-0.5,0-1.1,0.2-1.6l2.4-4.3c0.1-0.2,0.1-0.3-0.1-0.3
			l-6.9-2.9c-0.1-0.1-0.3,0-0.5,0.1l-4.5,3.4c-0.6,0.4-1.2,0.7-1.9,0.8c-0.6,0.1-1.2,0.1-1.8-0.1l-1.1-0.5c-0.5-0.3-0.7-0.9-0.4-1.4
			c0.1-0.2,0.2-0.3,0.3-0.4c0.1-0.1,0.3-0.3,0.5-0.3l23.4-16.2c0.6-0.4,1.2-0.7,1.9-0.8c0.6-0.1,1.2-0.1,1.8,0.1l1.8,0.8
			c0.5,0.1,0.9,0.5,1,1c0.1,0.5,0.1,1.1-0.2,1.6l-11,21.6c-0.1,0.1-0.2,0.3-0.3,0.5c-0.3,0.3-0.6,0.4-0.9,0.6
			c-0.5,0.2-1,0.2-1.5,0.1L76.9,60z M75.6,46.4c-0.1,0-0.1,0-0.1,0.1c0,0,0,0,0,0c0,0.1,0,0.1,0.1,0.1l5,2.1h0.2
			c0.1,0,0.1-0.1,0.2-0.1l1.4-2.5c0.6-1,1.4-2.5,2.5-4.4c1.1-1.9,1.8-3.2,2.1-3.7V38h-0.1c-2.7,2.1-5.5,4.3-8.5,6.3L75.6,46.4z"/>
		<path id="Path_7007" class="st3" d="M100.5,68c-0.1,0.2-0.2,0.3-0.3,0.6c-0.2,0.2-0.4,0.3-0.6,0.5c-0.4,0.3-0.9,0.3-1.4,0.1
			l-1.6-0.7c-0.5-0.2-0.9-0.5-1.1-1c-0.2-0.5-0.2-1.1-0.1-1.6l2.4-8.3c0-0.2,0-0.3-0.1-0.3L95,56.2c-0.1-0.1-0.2,0-0.5,0.1l-5.9,6.4
			c-0.5,0.4-1,0.8-1.6,1c-0.5,0.2-1.2,0.2-1.7,0l-1-0.5c-0.4-0.2-0.7-0.6-0.8-1c0-0.5,0.2-1.1,0.6-1.5L101.2,42c0.5-0.4,1-0.8,1.6-1
			c0.5-0.2,1.2-0.2,1.7,0l6.1,2.6c5.8,2.5,6.6,5.9,2.5,10.4c-1.3,1.5-2.9,2.7-4.6,3.5c-1.6,0.8-3.4,1.1-5.2,1
			c-0.2,0-0.3,0.1-0.3,0.2L100.5,68z M104.2,45.8c-0.1-0.1-0.3,0-0.5,0.1L98,52.2c-0.1,0.1-0.1,0.2,0,0.3c0,0,0,0,0,0l2.7,1.1
			c1.3,0.6,2.8,0.8,4.2,0.6c1.4-0.3,2.7-1.1,3.6-2.1c1-1.1,1.5-2.1,1.1-2.9c-0.6-1-1.6-1.8-2.7-2.1L104.2,45.8z"/>
		<path id="Path_7008" class="st3" d="M105.3,72.2c-0.4-0.2-0.7-0.6-0.8-1c0-0.5,0.2-1.1,0.6-1.5L122.1,51c0.5-0.4,1-0.8,1.6-1
			c0.5-0.2,1.2-0.2,1.7,0l1,0.5c0.4,0.2,0.7,0.6,0.8,1c0,0.5-0.2,1.1-0.6,1.5l-17.1,18.8c-0.5,0.4-1,0.8-1.6,1
			c-0.5,0.2-1.2,0.2-1.7,0L105.3,72.2z"/>
		<path id="Path_7009" class="st3" d="M115.3,76.5c-0.4-0.2-0.7-0.6-0.8-1c0-0.5,0.2-1.1,0.6-1.5l17.1-18.8c0.5-0.4,1-0.8,1.6-1
			c0.5-0.2,1.2-0.2,1.7,0l5.8,2.5c5.5,2.4,6.6,5.4,3.3,9c-1,1.1-2.2,1.9-3.5,2.5c-1.2,0.6-2.5,1-3.8,0.9h-0.2c0,0.1-0.1,0.1,0,0.1
			c0.9,0.7,1.5,1.9,1.5,3.1c0,1.2-0.7,2.5-2,4c-1.8,2-4.2,3.4-6.9,3.8c-2.7,0.4-5.4,0-7.9-1.1L115.3,76.5z M121.4,74.1
			c-0.1,0.1-0.1,0.2,0,0.3c0,0,0,0,0,0l2.9,1.2c3.2,1.4,5.9,0.9,7.9-1.2c1-1,1.2-2,0.9-2.8c-0.7-1.1-1.7-1.9-2.9-2.3l-2.9-1.2
			c-0.1-0.1-0.3,0-0.5,0.1L121.4,74.1z M130.4,64.4c-0.1,0.1-0.1,0.2,0,0.3c0,0,0,0,0,0l2.5,1c1.2,0.6,2.5,0.8,3.8,0.6
			c1.1-0.2,2.2-0.8,2.9-1.7c0.8-0.6,1.1-1.6,0.9-2.5c-0.6-0.9-1.5-1.6-2.5-1.9l-2.5-1.1c-0.1-0.1-0.2,0-0.5,0.1L130.4,64.4z"/>
		<path id="Path_7010" class="st3" d="M148.7,90.9c-0.5-0.2-0.9-0.6-1-1.1c-0.1-0.5,0-1.1,0.2-1.6l2.4-4.3c0.1-0.2,0.1-0.3-0.1-0.3
			l-6.9-2.9c-0.1-0.1-0.3,0-0.5,0.1l-4.5,3.4c-0.6,0.4-1.2,0.7-1.9,0.8c-0.6,0.1-1.2,0.1-1.8-0.1l-1.1-0.5c-0.5-0.3-0.7-0.9-0.4-1.4
			c0.1-0.2,0.2-0.3,0.3-0.4c0.1-0.1,0.3-0.3,0.5-0.3L157.1,66c0.6-0.4,1.2-0.7,1.9-0.8c0.6-0.1,1.2-0.1,1.8,0.1l1.8,0.8
			c0.5,0.1,0.9,0.5,1,1c0.1,0.5,0.1,1.1-0.2,1.6l-11,21.6c-0.1,0.1-0.2,0.3-0.3,0.5c-0.3,0.3-0.6,0.4-0.9,0.6
			c-0.5,0.2-1,0.2-1.5,0.1L148.7,90.9z M147.4,77.3c-0.1,0-0.1,0-0.1,0.1c0,0,0,0,0,0c0,0.1,0,0.1,0.1,0.1l5,2.1h0.2
			c0.1,0,0.1-0.1,0.2-0.1l1.4-2.5c0.6-1,1.4-2.5,2.5-4.4c1.1-1.9,1.8-3.2,2.1-3.7v-0.1h-0.1c-2.7,2.1-5.5,4.3-8.5,6.3L147.4,77.3z"
			/>
		<path id="Path_7011" class="st3" d="M179,103.1l0.3,0.1c0.1,0.1,0.2,0.1,0.3,0.1c0.1,0,0.1,0,0.3-0.1c0.3-0.1,0.5-0.3,0.7-0.5
			c0.3-0.3,0.9-0.9,1.7-1.8c0.3-0.2,0.6-0.4,0.9-0.5c0.3,0,0.5,0.1,0.7,0.3c0.2,0.3,0.3,0.8,0.1,1.1c-0.1,0.4-0.3,0.7-0.6,1
			c-0.8,0.9-1.6,1.7-2.6,2.4c-0.6,0.5-1.3,0.9-2.1,1c-0.6,0.2-1.3,0.1-1.9-0.2l-1.5-0.7c-0.7-0.2-1.2-0.8-1.2-1.5
			c0-0.4,0.1-0.8,0.3-1.1c0.2-0.3,0.8-1,1.5-1.8l1.8-2v-0.1h-0.1c-2.8,1.2-5.8,2.2-8.8,2.8c-0.4,0.1-0.8,0-1.2-0.1
			c-0.1,0-0.1-0.1-0.2-0.1c-0.3-0.2-0.6-0.6-0.7-1c0-0.4,0.2-0.8,0.5-1.1c0.3-0.4,0.8-0.7,1.4-0.8c0.7-0.1,1.4-0.3,2-0.5l0,0
			c-0.1,0-0.2,0-0.3-0.1v-0.3c0.2-0.3,0.4-0.6,0.6-0.9c0-0.1,0-0.2-0.1-0.2c-1.9-0.1-4.1-0.2-6.7-0.3c-0.3,0-0.6-0.1-0.8-0.1
			c-0.2-0.1-0.4-0.2-0.6-0.5c-0.3-0.4-0.3-0.9-0.1-1.4v-0.1l0.3-0.7c0.2-0.2,0.5-0.4,0.8-0.6c0.5-0.3,1.1-0.4,1.7-0.3
			c0.2,0,0.3,0,0.5-0.2l5.2-5.8v-0.1h-0.1l-1.4,0.7c-0.4,0.2-0.8,0.2-1.2,0.1h-0.1c-0.3-0.2-0.5-0.6-0.3-0.9
			c0.1-0.3,0.2-0.7,0.3-1.1h-0.2L158,96.1c-0.4,0.4-0.9,0.8-1.5,0.9c-0.5,0.2-1.1,0.2-1.6,0c-0.4-0.2-0.7-0.6-0.8-1
			c0-0.5,0.2-1,0.6-1.4l7.7-8.5h-0.1c-1.6,1.1-3.2,2-4.5,2.8c-0.3,0.2-0.8,0.2-1.1,0.1l0,0c-0.3-0.1-0.5-0.4-0.4-0.7c0,0,0,0,0,0
			v-0.1c0.2-0.6,0.6-1.2,1-1.7c0.5-0.5,1.1-1,1.7-1.4c3.8-2.2,7.5-4.7,10.9-7.5c0.1-0.1,0.1-0.2,0-0.3c0,0,0,0,0,0l-1.2-0.6
			c-0.4-0.2-0.7-0.6-0.8-1c0-0.5,0.2-1,0.6-1.4c0.4-0.5,1-0.8,1.6-0.9c0.5-0.2,1.1-0.2,1.6,0L173,74c0.1,0.1,0.3,0,0.5-0.1l3.7-4.2
			c0.4-0.4,0.9-0.8,1.5-0.9c0.5-0.2,1.1-0.2,1.6,0c0.4,0.2,0.7,0.6,0.8,1c0,0.5-0.2,1-0.6,1.4l-3.7,4.2c-0.1,0.1-0.1,0.2,0,0.3
			c0,0,0,0,0,0l0.5,0.2c0.4,0.2,0.7,0.6,0.7,1c0,0.5-0.2,1-0.6,1.4c-0.4,0.4-0.9,0.8-1.5,0.9c-0.5,0.2-1.1,0.2-1.6,0l-0.5-0.2
			c-0.1-0.1-0.3,0-0.5,0.1l-1.4,1.5c-0.1,0.1-0.2,0.3-0.2,0.5c0,1.2,0,2.6-0.1,4.1v0.1h0.1l10.1-11.1c0.5-0.5,1.1-0.8,1.7-1
			c0.6-0.2,1.1-0.2,1.7,0l4.4,1.9c0.4,0.2,0.7,0.6,0.8,1c0,0.5-0.2,1.1-0.6,1.5l-9,9.8c-0.5,0.4-1,0.8-1.6,1c-0.5,0.2-1.2,0.2-1.7,0
			l-3.1-1.4c-0.1-0.1-0.2,0-0.5,0.1l-5,5.4c0,0.1,0,0.1-0.1,0.1c0,0,0,0,0,0l0.1,0.1l2.6,0.3c0.2,0,0.3,0,0.5-0.2
			c0.2-0.6,0.6-1.1,0.8-1.7c0.1-0.2,0.2-0.3,0.3-0.6c0.2-0.2,0.4-0.4,0.7-0.6c0.4-0.3,1-0.4,1.5-0.3c0.2,0,0.4,0.1,0.6,0.1
			c0.2,0.1,0.4,0.3,0.5,0.5c0.3,0.3,0.3,0.8,0.1,1.1c-0.6,1.6-1.3,3.2-2.1,4.7v0.1h0.1c3.2-1.1,6.1-2.7,8.8-4.7
			c0.1,0,0.1-0.1,0.1-0.1c0-0.1-0.1-0.1-0.1-0.1l-2.6-1.1c-0.5-0.2-0.7-0.5-0.7-0.9c0-0.5,0.1-0.9,0.5-1.2l0.5-0.6
			c0.3-0.3,0.6-0.4,0.9-0.6c0.3-0.1,0.7-0.1,1,0h0.2l6.8-7.5c0.1-0.1,0.1-0.1,0-0.1c-0.2-0.1-0.3-0.2-0.3-0.5c0-0.2,0.1-0.5,0.2-0.7
			l0.6-0.7c0.4-0.4,0.8-0.7,1.4-0.9c0.5-0.1,1-0.1,1.5,0l6.8,2.9c0.5,0.2,0.7,0.5,0.7,0.9c0,0.5-0.2,0.9-0.5,1.2l0,0
			c-0.4,0.4-0.8,0.7-1.4,0.9c-0.5,0.2-1,0.2-1.5,0c-0.1,0-0.2,0-0.3,0.1l-1.8,2c-1.6,1.8-3.3,3.5-5.1,5.1c-0.1,0.1-0.1,0.2,0,0.3
			c0,0,0,0,0,0l0.7,0.3c0.5,0.2,0.7,0.5,0.7,0.9c0,0.5-0.2,0.9-0.6,1.2c-0.4,0.4-0.9,0.7-1.5,0.9c-0.5,0.2-1,0.2-1.5,0l-1.2-0.6
			c-0.1-0.1-0.3,0-0.5,0.1l-0.3,0.2c-0.1,0.1-0.3,0.2-0.5,0.5l-7.3,8c-0.2,0.2-0.3,0.3-0.3,0.5C178.2,102.5,178.6,102.8,179,103.1z
			 M177.6,84.4c-0.1,0.1-0.1,0.2,0,0.3c0,0,0,0,0,0l1.7,0.7c0.1,0.1,0.2,0,0.5-0.1l1.9-2.1c0.1-0.1,0.1-0.2,0-0.3c0,0,0,0,0,0
			l-1.7-0.7c-0.1-0.1-0.2,0-0.5,0.1L177.6,84.4z M186.3,78.1c0.1-0.1,0.1-0.2,0-0.3c0,0,0,0,0,0l-1.7-0.7c-0.1-0.1-0.2,0-0.5,0.1
			l-1.8,2c-0.1,0.1-0.1,0.2,0,0.3c0,0,0,0,0,0l1.7,0.7c0.1,0.1,0.2,0,0.3-0.1L186.3,78.1z M186.9,88.6c-0.1,0.1-0.1,0.2,0,0.3
			c0,0,0,0,0,0l0.7,0.3c0.1,0.1,0.3,0,0.5-0.1c1.6-1.5,3.3-3.2,5.1-5.1l1.8-2c0.1-0.1,0.1-0.2,0-0.3c0,0,0,0,0,0l-1-0.5
			c-0.1-0.1-0.3,0-0.5,0.1L186.9,88.6z"/>
		<path id="Path_7012" class="st3" d="M187.2,107.9c-0.6,0.2-1.3,0.2-1.9,0.1c-0.1,0-0.1,0-0.2-0.1c-0.4-0.2-0.7-0.5-0.9-0.9v-0.1
			c-0.2-0.5,0-0.9,0.5-1.4c0.4-0.4,0.8-0.7,1.4-0.9c2-0.7,4-1.7,5.8-2.9c0.5-0.3,1.1-0.6,1.7-0.7c0.3,0,0.7,0,1,0.1
			c0.1,0.1,0.3,0.2,0.5,0.3c0.3,0.3,0.5,0.8,0.3,1.2c-0.1,0.3-0.2,0.6-0.5,0.9c-0.1,0.2-0.3,0.4-0.6,0.5
			C192,105.7,189.7,107,187.2,107.9z M197.3,110.4l3.6,1.6c0.3,0.2,0.8,0.2,1.1,0.1c0.5-0.3,1-0.6,1.5-1c0.4-0.4,0.8-0.6,1.4-0.6
			c0.3,0,0.5,0,0.8,0.1c0.1,0.1,0.3,0.1,0.5,0.3c0.3,0.4,0.4,0.9,0.3,1.4c-0.1,0.4-0.3,0.8-0.6,1.1l-0.3,0.3c-1.1,1-2.3,1.7-3.7,2
			c-1.2,0.2-2.3,0-3.4-0.5l-4.4-1.9c-1.8-0.8-2.8-1.6-2.9-2.5c-0.1-0.8,0.6-2,2-3.6l2.8-3.1c0.5-0.5,1.1-0.8,1.7-1
			c0.6-0.2,1.1-0.2,1.7,0h0.1c0.4,0.2,0.7,0.6,0.8,1c0,0.5-0.2,1.1-0.6,1.5l-2.8,3.1c-0.3,0.5-0.6,0.7-0.5,0.9
			C196.2,109.9,196.6,110.1,197.3,110.4z M208.5,93.9c-0.5-0.2-0.7-0.5-0.7-0.9c0-0.5,0.2-0.9,0.6-1.2v-0.1h-0.1
			c-2.5,0.2-5,0.3-7.3,0.3c-0.3,0-0.6-0.1-0.9-0.1c-0.2-0.1-0.4-0.2-0.6-0.5c-0.3-0.4-0.5-0.9-0.3-1.4c0-0.1,0-0.2,0.1-0.2
			c0-0.3,0.2-0.6,0.5-0.8c0.1-0.1,0.3-0.3,0.5-0.3c0.4-0.3,0.9-0.5,1.5-0.5c2.5,0.1,5,0,7.5-0.3c2.4-0.3,4.7-0.8,7-1.4
			c1.3-0.5,2.8-0.5,4.1,0l0.2,0.1c1.1,0.4,1.8,1.4,1.9,2.5c0.6,3.7,2.3,7.1,4.9,9.8c0.3,0.3,0.3,0.8,0.1,1.1
			c-0.1,0.1-0.2,0.3-0.3,0.5c-0.2,0.3-0.6,0.5-0.9,0.6c-0.2,0.1-0.5,0.1-0.6,0.2c-0.6,0.3-1.3,0.4-1.9,0.3c-0.3,0-0.6-0.1-0.8-0.1
			c-0.2-0.1-0.4-0.2-0.6-0.5c-1.1-1.5-2.1-3.1-2.8-4.7h-0.1c-0.1,0-0.1,0-0.1,0.1c-0.4,0.4-0.9,0.7-1.5,0.9c-0.5,0.1-1.1,0.1-1.6,0
			L208.5,93.9z M217.8,99.8c0.1,0,0.2,0.1,0.3,0.1c0.2,0.1,0.4,0.3,0.5,0.5l0.3,0.8c0.1,0.4,0.1,0.8-0.1,1.1
			c-0.1,0.1-0.2,0.3-0.3,0.5c-0.2,0.2-0.5,0.4-0.8,0.6c-2.3,1.1-4.7,2.3-7.5,3.4c-0.5,0.3-1.1,0.3-1.7,0.1c-0.1,0-0.2-0.1-0.3-0.1
			c-0.3-0.1-0.6-0.4-0.7-0.7c-0.1-0.4-0.1-0.9,0.1-1.2c0.1-0.1,0.1-0.2,0.2-0.3c0.3-0.3,0.6-0.5,1-0.7c1.3-0.5,2.5-1,3.7-1.7
			l0.1-0.1v-0.1l-13-5.5c-0.5-0.2-0.7-0.5-0.7-0.9c0-0.5,0.2-0.9,0.5-1.2c0.4-0.4,0.8-0.7,1.4-0.9c0.5-0.1,1-0.1,1.5,0l15,6.4
			C217.5,99.7,217.7,99.8,217.8,99.8z M201.1,103.2c-0.1-0.4-0.1-0.8,0.2-1.1c0-0.1,0.1-0.1,0.2-0.2c0.2-0.3,0.7-0.5,1.1-0.7
			c0.6-0.2,1.2-0.2,1.8-0.1c0.1,0,0.3,0.1,0.5,0.1c0.3,0.1,0.6,0.4,0.8,0.7c0.5,1.1,1,2.2,1.4,3.3c0.1,0.6-0.1,1.1-0.6,1.5
			c-0.4,0.5-1,0.8-1.6,1l0,0c-0.5,0.2-1.2,0.2-1.7,0c-0.4-0.2-0.8-0.6-0.9-1C202,105.4,201.6,104.3,201.1,103.2L201.1,103.2z
			 M208.7,110.3c0-0.4,0.2-0.8,0.5-1.1c0-0.1,0.1-0.1,0.2-0.2c0.4-0.4,1-0.7,1.6-0.7c0.5-0.1,1,0,1.5,0.2c0.1,0,0.2,0.1,0.3,0.1
			c0.5,0.2,0.7,0.7,0.7,1.2c0.1,1.9,0,3.8-0.3,5.7c-0.1,0.4-0.3,0.7-0.6,1l-0.5,0.5c-0.6,0.4-1.2,0.7-1.9,0.8h-0.3
			c-0.3,0-0.7,0-1-0.1c-0.1-0.1-0.3-0.1-0.3-0.3c-0.3-0.3-0.5-0.8-0.3-1.2C208.5,114.2,208.7,112.2,208.7,110.3L208.7,110.3z
			 M211.5,91.2L211.5,91.2c-0.1,0.1-0.1,0.1-0.1,0.2l7,3.1h0.1l0.1-0.1c-0.5-1.4-0.8-2.8-0.9-4.3c0-0.1-0.1-0.2-0.3-0.1
			C215.6,90.3,213.7,90.8,211.5,91.2L211.5,91.2z"/>
		<path id="Path_7013" class="st3" d="M242.1,129.5c0.3,0.1,0.6,0.4,0.6,0.8c0,0.4-0.2,0.8-0.5,1.1c-0.3,0.4-0.8,0.6-1.2,0.8
			c-0.4,0.1-0.9,0.1-1.4,0l-20.7-8.9c-0.1,0-0.1,0-0.2,0.1c-0.3,0.3-0.6,0.4-0.9,0.6c-0.3,0.1-0.6,0.1-0.9,0l-1-0.5
			c-0.4-0.2-0.7-0.6-0.8-1c0-0.5,0.2-1.1,0.6-1.5l10.5-11.5c0.5-0.4,1-0.8,1.6-1c0.5-0.2,1.2-0.2,1.7,0l0.2,0.1
			c0.4,0.2,0.7,0.6,0.8,1c0,0.5-0.2,1.1-0.6,1.5l-8.5,9.3c-0.1,0.1-0.1,0.2,0,0.3c0,0,0,0,0,0L242.1,129.5z M232.3,111.6
			c0.5-0.5,1.1-0.8,1.7-1c0.6-0.2,1.1-0.2,1.7,0l1.9,0.8c0.1,0.1,0.3,0,0.5-0.1c0.2-0.3,0.5-0.5,0.8-0.7c0.1-0.1,0.1-0.2,0-0.3
			c0,0,0,0,0,0l-9.8-4.3c-0.3-0.1-0.6-0.4-0.6-0.8c0-0.4,0.2-0.8,0.5-1.1c0.4-0.3,0.8-0.6,1.2-0.8c0.4-0.1,0.8-0.1,1.2,0l10.2,4.4
			c0.1,0.1,0.3,0,0.5-0.1l0.7-0.7c0.1-0.1,0.1-0.2,0-0.3c0,0,0,0,0,0l-8.5-3.6c-0.4-0.2-0.7-0.6-0.8-1c0-0.5,0.2-1.1,0.6-1.5
			l2.8-3.1c0.5-0.4,1-0.8,1.6-1c0.5-0.2,1.2-0.2,1.7,0l20.8,8.9c0.4,0.2,0.7,0.6,0.8,1c0,0.5-0.2,1.1-0.6,1.5l-2.8,3.1
			c-0.5,0.4-1,0.8-1.6,1c-0.5,0.2-1.2,0.2-1.7,0l-8.3-3.5c-0.1-0.1-0.3,0-0.5,0.1l-0.8,0.7c-0.1,0.1-0.1,0.2,0,0.3c0,0,0,0,0,0
			l9.9,4.3c0.3,0.1,0.6,0.4,0.6,0.8c0,0.4-0.2,0.8-0.5,1.1c-0.4,0.3-0.8,0.6-1.2,0.8c-0.4,0.1-0.8,0.1-1.2,0l-10.3-4.4
			c-0.1-0.1-0.3,0-0.5,0.1l-0.8,0.7c-0.1,0.1-0.1,0.2,0,0.3c0,0,0,0,0,0l7.9,3.4c0.4,0.2,0.7,0.6,0.8,1c0,0.5-0.2,1.1-0.6,1.5
			l-6.4,7c-0.5,0.5-1.1,0.8-1.7,1c-0.6,0.2-1.1,0.2-1.7,0l-13.8-6c-0.4-0.2-0.7-0.6-0.8-1c0-0.5,0.2-1.1,0.6-1.5L232.3,111.6z
			 M239.6,124.3c0.1,0.1,0.3,0,0.5-0.1l0.6-0.7c0.1-0.1,0.1-0.2,0-0.3c0,0,0,0,0,0l-9.9-4.3c-0.1-0.1-0.2,0-0.5,0.1l-0.6,0.7
			c-0.1,0.1-0.1,0.2,0,0.3c0,0,0,0,0,0L239.6,124.3z M242.2,121.4c0.1,0.1,0.3,0,0.5-0.1l0.6-0.6c0.1-0.1,0.1-0.2,0-0.3c0,0,0,0,0,0
			l-9.9-4.3c-0.1-0.1-0.2,0-0.5,0.1l-0.6,0.6c-0.1,0.1-0.1,0.2,0,0.3c0,0,0,0,0,0L242.2,121.4z M244.8,118.6c0.1,0.1,0.3,0,0.5-0.1
			l0.6-0.6c0.1-0.1,0.1-0.2,0-0.3c0,0,0,0,0,0l-9.9-4.3c-0.1-0.1-0.2,0-0.5,0.1l-0.6,0.6c-0.1,0.1-0.1,0.2,0,0.3c0,0,0,0,0,0
			L244.8,118.6z M241.3,102.9c0.1,0.1,0.3,0,0.5-0.1l1.2-1.4c0.1-0.1,0.1-0.2,0-0.3c0,0,0,0,0,0l-2.9-1.2c-0.1-0.1-0.3,0-0.5,0.1
			l-1.2,1.4c-0.1,0.1-0.1,0.2,0,0.3c0,0,0,0,0,0L241.3,102.9z M246.8,102.6c-0.1-0.1-0.2,0-0.5,0.1l-1.2,1.4c-0.1,0.1-0.1,0.2,0,0.3
			c0,0,0,0,0,0l3.1,1.4c0.1,0.1,0.3,0,0.5-0.1l1.2-1.4c0.1-0.1,0.1-0.2,0-0.3c0,0,0,0,0,0L246.8,102.6z M253.6,105.6
			c-0.1-0.1-0.2,0-0.5,0.1l-1.2,1.4c-0.1,0.1-0.1,0.2,0,0.3c0,0,0,0,0,0l3.2,1.4c0.1,0.1,0.3,0,0.5-0.1l1.2-1.4
			c0.1-0.1,0.1-0.2,0-0.3c0,0,0,0,0,0L253.6,105.6z"/>
		<path id="Path_7014" class="st3" d="M271.5,112.3c0.5-0.4,1-0.8,1.6-1c0.5-0.2,1.2-0.2,1.7,0l7.1,3.1c0.4,0.2,0.7,0.6,0.8,1
			c0,0.5-0.2,1.1-0.6,1.5c-8,9.4-10.6,17.7-8,25c0.1,0.5-0.1,1-0.5,1.4c-0.3,0.4-0.8,0.6-1.2,0.8c-0.3,0.1-0.8,0.2-1.1,0.3
			c-0.6,0.2-1.2,0.2-1.8,0.1c-0.1,0-0.2-0.1-0.3-0.1c-0.3-0.1-0.5-0.4-0.7-0.7c-1.7-5.2-0.9-11.1,2.6-17.9v-0.1h-0.1
			c-7.7,5.2-15.1,8.3-22.3,9.4c-0.5,0.1-1,0-1.5-0.1c-0.1,0-0.1-0.1-0.2-0.1c-0.4-0.2-0.7-0.7-0.8-1.1c0-0.3-0.1-0.6-0.1-0.9
			c-0.1-0.3,0.1-0.7,0.3-1c0.4-0.4,0.9-0.7,1.5-0.8c7.5-0.8,15.1-4.2,22.9-10.2c0.5-0.4,1.1-0.7,1.7-0.7c0.4,0,0.8,0,1.1,0.1
			c0.1,0,0.2,0.1,0.3,0.2h0.2c0.1,0,0.1,0,0.1-0.1c0.7-1,1.4-2,2.3-2.9c0.1-0.1,0.1-0.2-0.1-0.3l-5-2.1c-0.4-0.2-0.7-0.6-0.8-1
			c0-0.5,0.2-1.1,0.6-1.5L271.5,112.3z"/>
	</g>
</g>
</svg>
