<?xml version="1.0" encoding="utf-8"?>
<!-- Generator: Adobe Illustrator 24.0.3, SVG Export Plug-In . SVG Version: 6.00 Build 0)  -->
<svg version="1.1" id="圖層_1" xmlns="http://www.w3.org/2000/svg" xmlns:xlink="http://www.w3.org/1999/xlink" x="0px" y="0px"
	 viewBox="0 0 522.3 540.2" style="enable-background:new 0 0 522.3 540.2;" xml:space="preserve">
<style type="text/css">
	.st0{fill:#E73E6B;stroke:#030000;stroke-width:2.045;stroke-miterlimit:10;}
	.st1{fill:#FFFFFF;}
	.st2{fill:none;stroke:#231815;stroke-width:2.045;stroke-miterlimit:10;}
	.st3{fill:#231815;}
	.st4{fill:none;stroke:#231815;stroke-width:2.045;stroke-linecap:round;stroke-miterlimit:10;}
	.st5{fill:#EF8619;}
	.st6{fill:none;stroke:#030000;stroke-width:1.7484;stroke-miterlimit:10;}
	.st7{fill:#FDF42D;stroke:#231815;stroke-width:2.045;stroke-miterlimit:10;}
	.st8{fill:#D75562;stroke:#030000;stroke-width:2.045;stroke-miterlimit:10;}
</style>
<g id="feature2" transform="translate(0.54 0.513)">
	<g id="Group_638" transform="translate(89.699 187.515)">
		<path id="Path_7058" class="st0" d="M46.4,27.5c1-1.5,3-1.9,4.5-0.9c1.4,1.1,1.7,3.1,0.6,4.5c0,0,0,0,0,0c-1,1.5-2.9,1.9-4.4,0.9
			c0,0,0,0,0,0c-1.4-0.9-1.8-2.8-0.9-4.2C46.2,27.7,46.3,27.6,46.4,27.5"/>
		<path id="Path_7059" class="st0" d="M51.4,47.4c0,0-4.1-12.2-3.4-22.2c0.6-7.8-14.8-12.5-15.9,1.7c-0.8,10.2,2.4,24,5.8,30.6"/>
		<path id="Path_7060" class="st0" d="M113.1,268.5v46.1c0,7.8-6.3,14.1-14,14.1l0,0c-7.8-0.1-14-6.4-14-14.1v-46.1"/>
		<path id="Path_7061" class="st0" d="M28.8,70.1C-16,136.2,1.1,225.9,66.9,270.4c65.8,44.4,155.3,26.9,200.1-39.2
			c44.8-66.1,27.6-155.9-38.1-200.3C163.1-13.7,73.6,3.8,28.8,70.1"/>
		<path id="Path_7062" class="st0" d="M246.9,113.7c0.1-1.8-1.3-3.3-3.1-3.4c-1.8,0.1-3.1,1.6-3.1,3.3c0,0,0,0,0,0.1
			c-0.2,1.7,1,3.2,2.7,3.4c1.7,0.2,3.2-1,3.4-2.7C247,114.1,247,113.9,246.9,113.7"/>
		<path id="Path_7063" class="st0" d="M231.3,126.9c0,0,10.4-7.6,15.6-16c4.1-6.7,19.3-1.6,12,10.7c-5.2,8.8-15.9,18.1-22.5,21.6"/>
		<path id="Path_7064" class="st1" d="M118.4,105.6c-0.5,1-1,1.9-1.7,2.8c-5.9,8.7-15,12.7-20.5,9c-5.4-3.7-5.1-13.7,0.8-22.3
			c0.6-0.9,1.2-1.8,1.9-2.6L118.4,105.6z"/>
		<path id="Path_7065" class="st2" d="M118.4,105.6c-0.5,1-1,1.9-1.7,2.8c-5.9,8.7-15,12.7-20.5,9c-5.4-3.7-5.1-13.7,0.8-22.3
			c0.6-0.9,1.2-1.8,1.9-2.6L118.4,105.6z"/>
		<path id="Path_7066" class="st3" d="M98.1,94.8c-3.2,4.7-3.4,10.2-0.5,12.2c2.9,2,8-0.2,11.2-5c3.2-4.7,3.4-10.2,0.5-12.2
			C106.2,87.9,101.2,90.1,98.1,94.8"/>
		<path id="Path_7067" class="st0" d="M117.5,86c4.9,3.3,5.1,11.6,0.9,19.6L99,92.4C104.7,85.6,112.7,82.7,117.5,86"/>
		<path id="Path_7068" class="st2" d="M117.5,86c4.9,3.3,5.1,11.6,0.9,19.6L99,92.4C104.7,85.6,112.7,82.7,117.5,86z"/>
		<path id="Path_7069" class="st4" d="M126.7,96.4c-1.6,1-3.6,1-5.3,0.1"/>
		<path id="Path_7070" class="st4" d="M126.6,99.3c-1.7,0.8-3.7,0.6-5.3-0.5"/>
		<path id="Path_7071" class="st4" d="M126.7,93.5c-1.6,1-3.6,1.2-5.3,0.3"/>
		<path id="Path_7072" class="st1" d="M61.8,67.4c-0.7,0.8-1.3,1.7-1.9,2.6c-5.9,8.7-6.2,18.6-0.8,22.3c5.4,3.7,14.6-0.3,20.5-9
			c0.6-0.9,1.1-1.8,1.7-2.8L61.8,67.4z"/>
		<path id="Path_7073" class="st2" d="M61.8,67.4c-0.7,0.8-1.3,1.7-1.9,2.6c-5.9,8.7-6.2,18.6-0.8,22.3c5.4,3.7,14.6-0.3,20.5-9
			c0.6-0.9,1.1-1.8,1.7-2.8L61.8,67.4z"/>
		<path id="Path_7074" class="st3" d="M71.6,77c-3.2,4.7-8.1,6.9-11.2,5c-2.9-2-2.8-7.5,0.5-12.2c3.2-4.7,8.3-6.9,11.2-5
			C75,66.8,74.9,72.2,71.6,77"/>
		<path id="Path_7075" class="st0" d="M80.3,60.9c-4.9-3.3-12.7-0.5-18.4,6.4l19.4,13.1C85.4,72.6,85.2,64.2,80.3,60.9"/>
		<path id="Path_7076" class="st2" d="M80.3,60.9c-4.9-3.3-12.7-0.5-18.4,6.4l19.4,13.1C85.4,72.6,85.2,64.2,80.3,60.9z"/>
		<path id="Path_7077" class="st4" d="M67.3,56.2c-0.3,1.9,0.4,3.8,1.9,5"/>
		<path id="Path_7078" class="st4" d="M64.5,57.4c-0.1,1.9,0.8,3.7,2.4,4.7"/>
		<path id="Path_7079" class="st4" d="M69.9,55.3c-0.4,1.9,0.2,3.8,1.6,5.1"/>
		<path id="Path_7080" class="st4" d="M85.3,122.5c0,0-8.4,1.4-7.7,11.4"/>
		<path id="Path_7081" class="st4" d="M59.5,105c0,0,1.8,8.3-7.7,11.4"/>
		<line id="Line_28" class="st2" x1="79.2" y1="126.7" x2="58" y2="112.2"/>
		<path id="Path_7082" class="st1" d="M61.9,115.2l2.5,1.7l2.5,1.7c0,0-1.4,3.1-3.7,1.5l-0.6-0.3l-0.6-0.3
			C59.5,117.7,61.9,115.2,61.9,115.2"/>
		<path id="Path_7083" class="st2" d="M61.9,115.1l2.5,1.7l2.5,1.7c0,0-1.6,3.5-4.1,1.8l-0.6-0.3l-0.6-0.3
			C59.3,117.9,61.9,115.1,61.9,115.1z"/>
		<path id="Path_7084" class="st1" d="M70.2,120.8l2.5,1.7l2.5,1.7c0,0-1.4,3.1-3.7,1.5l-0.6-0.3l-0.6-0.3
			C67.8,123.2,70.2,120.8,70.2,120.8"/>
		<path id="Path_7085" class="st2" d="M70.2,120.7l2.5,1.7l2.5,1.7c0,0-1.6,3.5-4.1,1.8l-0.6-0.3l-0.6-0.3
			C67.6,123.4,70.2,120.7,70.2,120.7z"/>
		<path id="Path_7086" class="st5" d="M232.4,33.2c0,0-15.8-9.4-19.9-31c0,0-0.7-2.3-2.9-0.1c0,0-15.4,13.6-11.1,24.8"/>
		<path id="Path_7087" class="st6" d="M232.5,33.1c0,0-15.8-9.4-19.9-31c0,0-0.7-2.3-2.9-0.1c0,0-15.4,13.6-11.1,24.8"/>
		<path id="Path_7088" class="st0" d="M184,283.7v46.1c0,7.8-6.3,14.1-14,14.1l0,0c-7.8-0.1-14-6.4-14-14.1v-40"/>
	</g>
	<path id="Path_7089" class="st7" d="M384.7,323.4L12.9,159.9c-5.8-2.6-8.5-9.5-5.8-15.3c0.4-1,1-1.8,1.7-2.7l112-132.1
		c3.3-3.8,8.7-5.1,13.3-3.1l374.6,164.6c4.7,2,6.8,7.5,4.7,12.1c-0.4,0.8-0.9,1.6-1.5,2.3L398,320.3
		C394.8,324.2,389.3,325.5,384.7,323.4z"/>
	<g id="Group_639" transform="translate(176.723 77.507)">
		<path id="Path_7090" class="st8" d="M46,16.1c1.5,0.6,3,1.3,4.4,2.1c0.6,0.3,0.9,0.9,0.8,1.6c0,0.6-0.3,1.3-0.8,1.7
			c-6.5,7.2-14,13.5-22.2,18.8c-0.2,0.2-0.5,0.5-0.3,0.7c0.3,1.4,0.6,2.8,0.8,4.3c0.1,1.1-0.3,2.1-1.1,2.8c-0.8,0.8-1.8,1.5-2.8,1.9
			l-2.1,0.8c-0.8,0.4-1.8,0.5-2.6,0.1l0,0c-0.7-0.2-1.1-0.9-1.1-1.6c0-0.9-0.1-1.9-0.2-3.2c0-0.2-0.2-0.3-0.6-0.1
			c-4.2,1.9-8.5,3.3-13,4.2c-0.7,0.1-1.4,0.1-2-0.1c-0.2-0.1-0.4-0.2-0.6-0.3c-0.7-0.5-1-1.3-0.8-2.1c0-0.6,0.1-1,0.1-1.6
			c0.1-0.7,0.4-1.3,0.9-1.8c0.1-0.1,0.3-0.3,0.3-0.5c0.8-0.7,1.7-1.1,2.7-1.4c3.8-0.7,7.4-1.9,10.9-3.6c0.3-0.1,0.5-0.3,0.3-0.6
			L16.6,37c0-0.1-0.1-0.1-0.2,0c-0.3,0.3-0.7,0.4-1.1,0.5c-0.3,0-0.6-0.1-0.8-0.3L13,34.7c-0.4-0.8-0.5-1.7-0.1-2.5
			c0.3-0.6,0.6-1.2,1-1.7c0.3-0.4,0.6-0.7,1-0.9c3.6-2.8,8.1-6.4,13.5-10.9c0.2-0.2,0.3-0.5,0-0.6l-0.2-0.1c-0.8-0.2-1.4-1-1.5-1.8
			c-0.1-0.9,0.3-1.9,1-2.5l0.9-0.9c0.7-0.8,1.7-1.4,2.7-1.7c0.9-0.3,2-0.3,2.9,0l1.6,0.7c0.2,0.1,0.5,0,0.8-0.2
			c2-1.8,4.4-3.8,7.1-6.2c0.9-0.8,1.9-1.3,3.1-1.5c0.9-0.2,1.8-0.1,2.6,0.2c0.1,0,0.2,0.1,0.3,0.2l1,0.6c0.7,0.3,1.2,1.1,1.1,1.9
			c-0.1,0.7-0.4,1.4-0.9,1.9l-0.5,0.5c-2.3,1.9-4.4,3.7-6.6,5.5c-0.2,0.2-0.2,0.3,0,0.5L46,16.1z M38.6,23c0.2-0.2,0.3-0.5,0-0.6
			l-2.4-1c-0.3-0.1-0.6,0-0.8,0.2c-2.4,1.9-5.9,4.7-10.5,8.5c-0.2,0.2-0.3,0.5-0.2,0.7c0.3,0.8,0.6,1.6,0.8,2.4
			c0.1,0.2,0.2,0.2,0.6,0C30.6,30.1,34.7,26.7,38.6,23L38.6,23z M69.6,40c0.8,0.3,1.4,1,1.5,1.8c0.1,0.9-0.3,1.9-1,2.5l-1,1.1
			c-0.8,0.8-1.8,1.4-2.8,1.7c-1,0.4-2,0.3-2.9-0.1l-7.8-3.3c-0.3-0.1-0.6,0-0.8,0.2L42.9,57.1c-1.3,1.5-2.8,2.8-4.4,4
			c-1.4,0.8-2.9,1.3-4.5,1.5c-2.5,0-4.9-0.5-7.2-1.4c-0.1,0-0.1-0.1-0.2-0.1c-0.7-0.3-1.3-0.9-1.6-1.6c-0.2-0.9-0.1-1.9,0.5-2.7
			c0.3-0.7,0.6-1.3,0.8-2c0.1-0.3,0.3-0.6,0.6-0.8c0.4-0.4,0.8-0.7,1.2-0.9c0.7-0.4,1.6-0.4,2.4-0.1l0,0c0.8,0.3,1.4,0.6,1.8,0.8
			c0.5,0.2,0.8,0.3,1,0.5c0.4,0.2,0.7,0.3,1.1,0.2c0.3-0.1,0.6-0.3,0.8-0.6l11.6-13c0.2-0.2,0.2-0.5-0.1-0.6l-7.1-3.1
			c-0.8-0.3-1.4-1-1.5-1.8c-0.1-0.9,0.3-1.8,0.9-2.5l1-1.1c0.8-0.8,1.7-1.4,2.8-1.7c0.9-0.3,2-0.3,2.9,0l7.1,3.1
			c0.3,0.1,0.6,0,0.8-0.2l2.8-3.2c0.5-0.5,1.1-0.9,1.8-1.1c0.6-0.2,1.3-0.2,1.9,0c0.2,0.1,0.4,0.1,0.6,0c2.7-1,5.4-2.1,8-3.4
			c0.1,0,0.1-0.1,0.2-0.2c0-0.1,0-0.1-0.1-0.2l-11.6-4.9c-0.8-0.3-1.4-1-1.5-1.8c-0.1-0.9,0.3-1.9,1-2.5l0.8-0.9
			c0.8-0.8,1.8-1.4,2.8-1.7c1-0.4,2-0.3,2.9,0.1l16.7,7c0.1,0.1,0.2,0.1,0.5,0.1c0.3,0,0.6,0.1,0.9,0.2c0.6,0.2,1.1,0.7,1.2,1.4
			l0.6,1.6c0.2,0.9,0,1.8-0.6,2.5c-0.1,0.2-0.3,0.4-0.5,0.6c-0.6,0.6-1.3,1.1-2.1,1.5c-6.3,2.7-11.9,4.7-16.5,6.2
			c-0.3,0.1-0.6,0.2-0.8,0.5L61.6,36c-0.2,0.2-0.2,0.5,0.1,0.6L69.6,40z"/>
		<path id="Path_7091" class="st8" d="M99.9,38.7c1.5,0.6,3,1.3,4.4,2.1c0.6,0.3,0.9,0.9,0.8,1.6c0,0.6-0.3,1.3-0.8,1.7
			c-6.5,7.2-14,13.5-22.2,18.8c-0.2,0.2-0.5,0.5-0.3,0.7c0.4,1.4,0.6,2.8,0.8,4.3c0.1,1.1-0.3,2.1-1.1,2.8c-0.8,0.8-1.8,1.5-2.8,1.9
			l-2.1,0.8c-0.8,0.4-1.8,0.5-2.6,0.1l0,0c-0.7-0.2-1.1-0.9-1.1-1.6c0-0.9-0.1-1.9-0.2-3.2c0-0.2-0.2-0.3-0.6-0.1
			c-4.2,1.9-8.5,3.3-13,4.2c-0.7,0.1-1.4,0.1-2-0.1c-0.2-0.1-0.4-0.2-0.6-0.3c-0.7-0.5-1-1.3-0.8-2.1c0-0.6,0.1-1,0.1-1.6
			c0.1-0.7,0.4-1.3,0.9-1.8c0.1-0.1,0.3-0.3,0.3-0.5c0.8-0.7,1.7-1.1,2.7-1.4c3.8-0.7,7.4-1.9,10.9-3.6c0.3-0.1,0.5-0.3,0.3-0.6
			l-0.3-1.2c0-0.1-0.1-0.1-0.2,0c-0.3,0.3-0.7,0.4-1.1,0.5c-0.3,0-0.6-0.1-0.8-0.3l-1.5-2.4c-0.4-0.8-0.5-1.7-0.1-2.5
			c0.3-0.6,0.6-1.2,1-1.7c0.3-0.4,0.6-0.7,1-0.9c3.6-2.8,8.1-6.4,13.5-10.9c0.2-0.2,0.3-0.5,0-0.6L82,40.7c-0.8-0.3-1.4-1-1.5-1.8
			c-0.1-0.9,0.3-1.9,1-2.5l0.9-0.9c0.7-0.8,1.7-1.4,2.7-1.7c0.9-0.3,2-0.3,2.9,0l1.6,0.7c0.2,0.1,0.5,0,0.8-0.2
			c2-1.8,4.4-3.8,7.1-6.2c0.9-0.8,1.9-1.3,3.1-1.5c0.9-0.2,1.8-0.1,2.6,0.2c0.1,0,0.2,0.1,0.3,0.2l1,0.6c0.7,0.3,1.2,1.1,1.1,1.9
			c-0.1,0.7-0.4,1.4-0.9,1.9l-0.5,0.5c-2.3,1.9-4.4,3.7-6.6,5.5c-0.2,0.2-0.2,0.3,0,0.5L99.9,38.7z M92.5,45.6
			c0.2-0.2,0.3-0.5,0-0.6l-2.4-1c-0.3-0.1-0.6,0-0.8,0.2c-2.4,1.9-5.9,4.7-10.5,8.5c-0.2,0.2-0.3,0.5-0.2,0.7
			c0.3,0.8,0.6,1.6,0.8,2.4c0.1,0.2,0.2,0.2,0.6,0C84.4,52.7,88.6,49.3,92.5,45.6L92.5,45.6z M123.5,62.6c0.8,0.3,1.4,1,1.5,1.8
			c0.1,0.9-0.3,1.9-1,2.5l-1,1.1c-0.8,0.8-1.8,1.4-2.8,1.7c-1,0.4-2,0.3-2.9-0.1l-7.8-3.3c-0.3-0.1-0.6,0-0.8,0.2L96.8,79.7
			c-1.3,1.5-2.8,2.8-4.4,4c-1.4,0.8-2.9,1.3-4.5,1.5c-2.5,0-4.9-0.5-7.2-1.4c-0.1,0-0.1-0.1-0.2-0.1c-0.7-0.3-1.3-0.9-1.6-1.6
			c-0.2-0.9-0.1-1.9,0.5-2.7c0.3-0.7,0.6-1.3,0.8-2c0.1-0.3,0.3-0.6,0.6-0.8c0.4-0.4,0.8-0.7,1.2-0.9c0.7-0.4,1.6-0.4,2.4-0.1l0,0
			c0.8,0.3,1.4,0.6,1.8,0.8c0.5,0.2,0.8,0.3,1,0.5c0.4,0.2,0.7,0.3,1.1,0.2c0.3-0.1,0.6-0.3,0.8-0.6l11.6-13
			c0.2-0.2,0.2-0.5-0.1-0.6l-7.1-3.1c-0.8-0.3-1.4-1-1.5-1.8c-0.1-0.9,0.3-1.8,0.9-2.5l1-1.1c0.8-0.8,1.7-1.4,2.8-1.7
			c0.9-0.3,2-0.3,2.9,0l7.1,3.1c0.3,0.1,0.6,0,0.8-0.2l2.8-3.2c0.5-0.5,1.1-0.9,1.8-1.1c0.6-0.2,1.3-0.2,1.9,0
			c0.2,0.1,0.4,0.1,0.6,0c2.7-1,5.4-2.1,8-3.4c0.1,0,0.1-0.1,0.2-0.2c0-0.1,0-0.1-0.1-0.2l-11.6-4.9c-0.8-0.3-1.4-1-1.5-1.8
			c-0.1-0.9,0.3-1.9,1-2.5l0.8-0.9c0.8-0.8,1.8-1.4,2.8-1.7c1-0.4,2-0.3,2.9,0.1l16.7,7c0.1,0.1,0.2,0.1,0.5,0.1
			c0.3,0,0.6,0.1,0.9,0.2c0.6,0.2,1.1,0.7,1.2,1.4l0.6,1.6c0.2,0.9,0,1.8-0.6,2.5c-0.1,0.2-0.3,0.4-0.5,0.6
			c-0.6,0.6-1.3,1.1-2.1,1.5c-6.3,2.7-11.9,4.7-16.5,6.2c-0.3,0.1-0.6,0.2-0.8,0.5l-1.2,1.4c-0.2,0.2-0.2,0.5,0.1,0.6L123.5,62.6z"
			/>
		<path id="Path_7092" class="st8" d="M179.6,80.3c-0.8,0.8-1.7,1.4-2.7,1.7c-0.9,0.3-1.8,0.2-2.7-0.1L161,76.3l-6.4,7.2
			c-3.2,3.6-6.8,4.5-10.9,2.8c-2.2-0.9-4.5-1.4-6.8-1.5c-3.4-0.1-6.1,0.8-7.9,2.8c-1.9,2.1-2,4.3-0.3,6.6c1.5,2,3.6,3.4,5.9,4.3
			c4.6,1.9,9.7,1.8,15.1-0.5c2.4-0.9,4-1.2,4.9-0.8c0.7,0.3,1.3,0.9,1.5,1.7c0.1,0.9-0.2,1.7-0.8,2.4c-0.9,1-3.1,2-6.4,3.1
			c-7.1,2.1-13.6,2.1-19.2-0.2c-4.3-1.8-7.1-4.3-8.7-7.5c-1.9-3.7-1.1-7.6,2.4-11.4c3.4-3.8,8.1-6.1,13.2-6.3
			c4.2-0.5,7.7-0.1,10.5,1.1c1.2,0.6,2.7,0.3,3.6-0.8l4.7-5.3l-16.8-7.1c-0.7-0.2-1.3-0.8-1.4-1.6c-0.1-0.9,0.3-1.8,1-2.4
			c0.7-0.8,1.6-1.3,2.6-1.6c0.9-0.4,1.9-0.3,2.8,0.1l35.8,15c0.7,0.3,1.3,0.9,1.4,1.7C180.5,79,180.1,79.7,179.6,80.3z"/>
	</g>
	<g id="Group_640" transform="translate(86.393 127.047)">
		<path id="Path_7093" class="st3" d="M23.1,16.8c0.2,0,0.3,0.1,0.5,0.1c0.2,0.1,0.4,0.3,0.6,0.6c0.1,0.4,0.1,0.9-0.2,1.2L23.6,19
			c-0.3,0.4-0.8,0.7-1.2,0.9c-0.5,0.3-1.2,0.4-1.8,0.3c-0.6-0.1-1-0.1-1.5-0.2c-0.2,0-0.3,0-0.5,0.2L12,27.6c-0.6,0.7-1.3,1.3-2,1.9
			c-0.6,0.4-1.3,0.6-2,0.7c-1,0.1-2.1-0.1-3.1-0.5H4.7c-0.4-0.2-0.7-0.5-0.8-0.9c-0.1-0.6,0-1.1,0.3-1.6l0.3-0.3
			c0.3-0.3,0.6-0.5,0.9-0.7C6,26,6.5,26,7,26.1c0.3,0.1,0.5,0.2,0.8,0.3c0.1,0.1,0.3,0.1,0.5,0.1c0.2,0,0.4-0.2,0.5-0.3l5.9-6.4
			c0-0.1,0-0.1,0.1-0.1c0,0,0,0,0,0l-0.1-0.1c-0.3,0-0.8-0.1-1.2-0.1c-0.2,0-0.3-0.1-0.6-0.1c-0.3-0.2-0.5-0.3-0.7-0.6
			c-0.2-0.5-0.1-1,0.2-1.4v-0.1c0.1-0.1,0.2-0.3,0.3-0.5c0.3-0.3,0.7-0.6,1.1-0.8c0.5-0.3,1.2-0.4,1.8-0.3c0.3,0,0.7,0.1,1,0.2
			c0.3,0.1,0.7,0.1,1,0.2c0.2,0,0.3,0,0.5-0.2l4.3-4.7c0.1-0.1,0.1-0.2,0-0.3c0,0,0,0,0,0L21,10.3c-0.4-0.2-0.7-0.6-0.8-1
			c0-0.5,0.2-1,0.6-1.4c0.4-0.5,1-0.8,1.6-0.9c0.5-0.2,1.1-0.2,1.6,0l1.4,0.6c0.1,0.1,0.2,0,0.5-0.1l3.5-3.8c0.4-0.5,1-0.8,1.6-0.9
			c0.5-0.1,1.1-0.1,1.6,0c0.4,0.2,0.7,0.6,0.8,1c0.1,0.5-0.1,1-0.6,1.4l-3.5,3.8c-0.1,0.1-0.1,0.2,0,0.3c0,0,0,0,0,0l0.9,0.3
			c0.4,0.2,0.7,0.6,0.8,1c0,0.5-0.2,1-0.6,1.4c-0.4,0.5-1,0.8-1.6,0.9c-0.5,0.2-1.2,0.2-1.7,0l-0.9-0.3c-0.1-0.1-0.3,0-0.5,0.1
			l-3.5,3.8c0,0.1-0.1,0.1,0,0.1l0.1,0.1L23.1,16.8z M37,29.7c0.4,0.2,0.7,0.6,0.8,1c0,0.5-0.2,1.1-0.6,1.5l-5.1,5.7
			c-0.7,1-1.9,1.7-3.2,1.8c-0.7,0-1.3-0.1-1.9-0.3c-0.1,0-0.1,0-0.1-0.1c-0.4-0.1-0.7-0.5-0.8-0.9c-0.1-0.5-0.1-1.1,0.2-1.6
			c0-0.1,0.1-0.1,0.1-0.2l0,0c-0.1,0.1-0.3,0.2-0.5,0.2h-0.5l-4.9-2h-0.2c-0.1,0.2-0.3,0.3-0.6,0.3c-0.2,0.1-0.5,0.1-0.7,0l-0.7-0.3
			c-0.3-0.1-0.6-0.4-0.6-0.8c0-0.4,0.2-0.8,0.5-1l2.4-2.7c0.1-0.1,0.1-0.1,0-0.1c-0.3,0-0.6-0.1-0.8-0.2c-0.2-0.2-0.3-0.4-0.3-0.7
			v-0.5h-0.1l-3.3,3.6c-0.4,0.4-0.8,0.7-1.4,0.9c-0.5,0.1-1,0.1-1.5,0c-0.5-0.2-0.7-0.5-0.7-0.9c0-0.5,0.2-0.9,0.6-1.2l6.1-6.7
			c0.5-0.4,1-0.8,1.6-1c0.5-0.2,1.2-0.2,1.7,0L37,29.7z M22.2,26.4c-0.1-0.1-0.2,0-0.3,0.1l-1.1,1.2v0.1l0.1,0.1
			c1.1,0.1,2.2-0.1,3.3-0.6l0.1-0.1c0-0.1,0-0.1-0.1-0.1c0,0,0,0,0,0L22.2,26.4z M24.5,34.1c0.1,0.1,0.3,0,0.5-0.1l0.6-0.7
			c0.1-0.1,0.1-0.2,0-0.3c0,0,0,0,0,0l-2.3-1c-0.1-0.1-0.3,0-0.5,0.1l-0.6,0.7c-0.1,0.1-0.1,0.2,0,0.3c0,0,0,0,0,0L24.5,34.1z
			 M28.3,29.4c0.1-0.1,0.1-0.2,0-0.3c0,0,0,0,0,0L27,28.5c-0.1-0.1-0.3,0-0.5,0.1c-0.9,0.6-2,1-3.1,1.2c-0.1,0-0.1,0-0.1,0.1
			c0,0,0,0,0,0v0.1l3.5,1.5H27l0.1-0.1C27,31,27.4,30.3,28.3,29.4L28.3,29.4z M35.2,24.7c-0.1,0.1-0.1,0.2,0,0.3c0,0,0,0,0,0
			l5.2,2.3c0.2,0.1,0.4,0.3,0.5,0.6c0,0.3-0.1,0.6-0.3,0.8c-0.3,0.3-0.6,0.4-0.9,0.6c-0.3,0.1-0.6,0.1-0.9,0l-13.9-6
			c-0.4-0.2-0.7-0.6-0.8-1c0-0.5,0.2-1.1,0.6-1.5l3.3-3.6h-0.1c-0.3,0.1-0.6,0-0.8-0.1c-0.2-0.1-0.3-0.2-0.3-0.5
			c0-0.2-0.1-0.6-0.1-0.8c-0.1-0.4,0.1-0.9,0.5-1.1c0.4-0.4,0.8-0.7,1.4-0.8c2.1-0.5,4.1-1.3,6-2.3l0.1-0.1v-0.1l0,0
			c-0.4-0.2-0.7-0.6-0.8-1c0-0.5,0.2-1.1,0.6-1.5l1.5-1.6c0.4-0.4,0.9-0.7,1.5-0.9c0.5-0.1,1.1-0.1,1.6,0c0.5,0.2,0.7,0.5,0.7,0.9
			c0,0.5-0.2,0.9-0.6,1.2l-0.7,0.8C38,9.4,38,9.6,38,9.7c0,0,0,0,0,0l3.1,1.4c0.1,0.1,0.2,0,0.5-0.1l1.2-1.4c0.4-0.5,1-0.8,1.6-1
			c0.5-0.2,1.2-0.2,1.7,0c0.4,0.2,0.7,0.6,0.8,1c0,0.5-0.2,1.1-0.6,1.5l-1.2,1.4c-0.1,0.1-0.1,0.2,0,0.3c0,0,0,0,0,0l3.1,1.4
			c0.1,0.1,0.3,0,0.5-0.1l0.7-0.7c0.4-0.4,0.9-0.8,1.5-0.9c0.5-0.2,1.1-0.2,1.6,0c0.4,0.2,0.7,0.6,0.7,1c0,0.5-0.2,1-0.6,1.4
			l-1.4,1.6c-0.5,0.4-1,0.8-1.6,1c-0.5,0.2-1.2,0.2-1.7,0L44.5,16c0,0.1,0,0.1-0.1,0.1c0,0,0,0,0,0c-0.3,0.1-0.6,0.3-0.9,0.5
			c-0.3,0.2-0.6,0.3-0.9,0.5l-0.1,0.1v0.1l4.6,2c0.2,0.1,0.4,0.3,0.5,0.6c0,0.3-0.1,0.6-0.3,0.8c-0.3,0.3-0.6,0.4-0.9,0.6
			c-0.3,0.1-0.6,0.1-0.9,0l-4.7-2c-0.1-0.1-0.2,0-0.5,0.1l-0.5,0.5c-0.1,0.1-0.1,0.2,0,0.3c0,0,0,0,0,0l3.8,1.7
			c0.2,0.1,0.4,0.3,0.3,0.6c0,0.3-0.1,0.5-0.3,0.7c-0.2,0.3-0.5,0.4-0.8,0.5c-0.3,0-0.6,0.1-0.8,0l-3.8-1.7c-0.1-0.1-0.2,0-0.5,0.1
			l-0.5,0.5c-0.1,0.1-0.1,0.2,0,0.3c0,0,0,0,0,0l3.8,1.7c0.2,0.1,0.3,0.2,0.3,0.5c0,0.3-0.1,0.5-0.3,0.7c-0.2,0.2-0.5,0.4-0.8,0.5
			c-0.3,0.1-0.5,0.1-0.8,0l-3.8-1.7c-0.1-0.1-0.2,0-0.5,0.1L35.2,24.7z M29.6,33.2c-0.1-0.1-0.2,0-0.3,0.1L27,35.8
			c-0.1,0.1-0.1,0.2,0,0.3c0,0,0,0,0,0c0.3,0.1,0.6,0.3,0.8,0.3c0.1,0.1,0.3,0.1,0.5,0.1c0.2,0.1,0.5,0,0.7-0.2l2.1-2.4
			c0.1-0.1,0.1-0.2,0-0.3c0,0,0,0,0,0L29.6,33.2z M29.2,21c-0.1-0.1-0.3,0-0.5,0.1l-0.5,0.6c-0.1,0.1-0.1,0.2,0,0.3c0,0,0,0,0,0
			l3.2,1.4c0.1,0.1,0.3,0,0.5-0.1l0.5-0.6c0.1-0.1,0.1-0.2,0-0.3c0,0,0,0,0,0L29.2,21z M32.7,32.1c0.1,0.1,0.3,0,0.5-0.2l0.3-0.3
			c0.1-0.1,0.1-0.2,0-0.3c0,0,0,0,0,0l-2.1-0.9c-0.1-0.1-0.3,0-0.5,0.1l-0.1,0.1c-0.2,0.1-0.3,0.3-0.3,0.6c0,0.1,0.1,0.2,0.3,0.3
			l1.6,0.7L32.7,32.1z M33.8,20.8c0.1,0.1,0.3,0,0.5-0.1l0.5-0.5c0.1-0.1,0.1-0.2,0-0.3c0,0,0,0,0,0l-3.2-1.4
			c-0.1-0.1-0.3,0-0.5,0.1l-0.5,0.5c-0.1,0.1-0.1,0.2,0,0.3c0,0,0,0,0,0L33.8,20.8z M36.2,18.2c0.1,0.1,0.3,0,0.5-0.1l0.5-0.5
			c0.1-0.1,0.1-0.2,0-0.3c0,0,0,0,0,0l-3.2-1.4c-0.1-0.1-0.3,0-0.5,0.1L33,16.5c-0.1,0.1-0.1,0.2,0,0.3c0,0,0,0,0,0L36.2,18.2z
			 M40.8,14.3l0.1-0.1c0-0.1,0-0.1-0.1-0.1l-3.1-1.2c0.1,0.1,0,0.2-0.1,0.2c-0.5,0.3-1,0.6-1.6,0.9l-0.1,0.1v0.1l2.7,1.1
			c0.1,0.1,0.3,0.1,0.5,0C39.7,15.1,40.3,14.7,40.8,14.3L40.8,14.3z"/>
		<path id="Path_7094" class="st3" d="M70.8,40.6c0.4,0.2,0.7,0.6,0.8,1c0,0.5-0.2,1.1-0.6,1.5l0,0c-0.5,0.4-1,0.8-1.6,1
			c-0.5,0.2-1.2,0.2-1.7,0l-10.2-4.4c-0.1-0.1-0.2,0-0.5,0.1l-4.3,4.6c-0.7,0.9-1.6,1.6-2.6,2.1c-0.8,0.4-1.8,0.6-2.7,0.6
			c-1.9-0.2-3.8-0.8-5.5-1.6l0,0c-0.4-0.2-0.8-0.6-1-1c-0.1-0.5-0.1-1.1,0.1-1.6c0.1-0.1,0.1-0.2,0.1-0.5c0.1-0.2,0.2-0.3,0.3-0.5
			c0.2-0.2,0.4-0.4,0.7-0.5c0.4-0.2,0.8-0.2,1.2-0.1l0,0c1.1,0.6,2.4,1,3.7,1.7c0.3,0.1,0.6,0.2,0.9,0.1c0.3-0.1,0.6-0.3,0.8-0.6
			l4.2-4.6c0.1-0.1,0.1-0.2,0-0.3c0,0,0,0,0,0l-10.2-4.4c-0.4-0.2-0.7-0.6-0.8-1c0-0.5,0.2-1.1,0.6-1.5l0,0c0.5-0.4,1-0.8,1.6-1
			c0.5-0.2,1.2-0.2,1.7,0l10.2,4.4c0.1,0.1,0.3,0,0.5-0.1l2.7-3.1c0.1-0.1,0.1-0.2,0-0.3c0,0,0,0,0,0l-8.1-3.5
			c-0.4-0.2-0.7-0.6-0.8-1c0-0.5,0.2-1.1,0.6-1.5c0.5-0.4,1-0.8,1.6-1c0.5-0.2,1.2-0.2,1.7,0l8.1,3.5c0.1,0.1,0.3,0,0.5-0.1l2.8-3.1
			c0.1-0.1,0.1-0.2,0-0.3c0,0,0,0,0,0c-2.5-0.8-5.2-1.7-8-2.7h-0.1c-0.4-0.1-0.7-0.5-0.8-0.9c-0.1-0.5,0-1,0.3-1.5
			c0.1-0.1,0.2-0.3,0.3-0.5c0.3-0.3,0.6-0.4,0.9-0.6c0.4-0.2,0.9-0.2,1.4-0.1c6.3,2.4,12.7,4.3,19.2,5.7c0.2,0,0.5,0.1,0.7,0.2
			c0.3,0.1,0.6,0.3,0.8,0.6c0.4,0.4,0.6,0.8,0.6,1.4v0.5c0,0.3-0.1,0.6-0.3,0.8l-0.3,0.3c-0.4,0.3-1,0.5-1.5,0.3
			c-2.5-0.5-5.3-1.1-8.5-2c-0.2,0-0.4,0.1-0.5,0.2l-3.2,3.5c-0.1,0.1-0.1,0.2,0,0.3c0,0,0,0,0,0l8.4,3.6c0.4,0.2,0.7,0.6,0.8,1
			c0,0.5-0.2,1.1-0.6,1.5c-0.5,0.4-1,0.8-1.6,1c-0.6,0.2-1.1,0.2-1.7,0l-8.4-3.6c-0.1-0.1-0.2,0-0.5,0.1l-2.7,3.1
			c-0.1,0.1-0.1,0.2,0,0.3c0,0,0,0,0,0L70.8,40.6z"/>
		<path id="Path_7095" class="st3" d="M84,41.1c0.4,0.2,0.7,0.6,0.8,1c0,0.5-0.2,1.1-0.6,1.5l-6.8,7.5c-0.1,0.1-0.2,0.3-0.2,0.5
			c-0.5,2.3,1,4.1,4.2,5.7c1.5,0.7,2.9,1.4,4.6,2.1c2.5,1.1,5.3,2.1,8.4,3.3h0.1c0.4,0.1,0.6,0.5,0.5,0.9c0,0,0,0,0,0
			c0,0.3-0.1,0.6-0.3,0.8c-0.1,0.1-0.3,0.3-0.5,0.3c-0.1,0.1-0.2,0.1-0.3,0.2c-0.6,0.4-1.2,0.7-1.9,0.9c-0.6,0.1-1.2,0.1-1.8-0.1
			c-2.4-0.9-4.6-1.8-6.7-2.7c-1.8-0.8-3.6-1.6-5.1-2.4c-1.6-0.7-2.9-1.7-4.1-2.9c-0.9-1-1.3-2.4-1.2-3.7c0-0.1-0.1-0.2-0.2-0.1
			c-2.1,0.5-3.7,0.9-5,1.1c-0.4,0.1-0.8,0.1-1.1,0c-0.1,0-0.2-0.1-0.2-0.2c-0.3-0.3-0.4-0.7-0.2-1.1l0.2-0.7
			c0.1-0.3,0.3-0.7,0.6-0.9l0.6-0.6c0.6-0.4,1.2-0.7,1.9-0.8c1.4-0.2,2.7-0.4,4.1-0.7c0.2,0,0.3-0.1,0.5-0.2l5.3-5.9
			c0.1-0.1,0.1-0.2,0-0.3c0,0,0,0,0,0l-1.6-0.7c-0.4-0.2-0.7-0.6-0.8-1c0-0.5,0.2-1,0.6-1.4c0.4-0.5,1-0.8,1.6-0.9
			c0.5-0.2,1.1-0.2,1.6,0L84,41.1z M96.6,59c-0.5,0.4-1,0.8-1.6,1c-0.5,0.2-1.2,0.2-1.7,0l-12-5.1c-0.4-0.2-0.7-0.6-0.8-1
			c0-0.5,0.2-1.1,0.6-1.5l4.7-5.3c0.5-0.5,1.1-0.8,1.7-1c0.6-0.2,1.1-0.2,1.7,0l12,5.1c0.4,0.2,0.7,0.6,0.8,1c0,0.5-0.2,1.1-0.6,1.5
			L96.6,59z M88.7,49.7c-0.1-0.1-0.3,0-0.5,0.1l-2.4,2.6c-0.1,0.1-0.1,0.2,0,0.3c0,0,0,0,0,0l7.7,3.3c0.1,0.1,0.2,0,0.5-0.1l2.4-2.6
			c0.1-0.1,0.1-0.2,0-0.3c0,0,0,0,0,0L88.7,49.7z M92.5,34c0,0.5-0.2,0.9-0.6,1.2c0,0.1,0,0.1-0.1,0.1c0,0,0,0,0,0
			c-0.5,0.5-1,0.8-1.7,0.9l-0.3,0.1c-0.4,0.1-0.9,0.1-1.4-0.1c-0.1,0-0.1-0.1-0.2-0.1c-0.4-0.2-0.6-0.7-0.6-1.1
			c0-1.1-0.1-2.3-0.3-3.4c-0.1-0.5,0.1-1,0.5-1.4c0.4-0.4,0.9-0.7,1.5-0.8c0.6-0.1,1.2-0.1,1.8,0.1h0.1c0.4,0.2,0.8,0.6,0.9,1
			C92.1,31.9,92.3,33,92.5,34L92.5,34z M87.4,42.4c0-0.5,0.2-0.9,0.5-1.2c0.4-0.4,0.8-0.7,1.4-0.9c0.5-0.1,1-0.1,1.5,0l0.6,0.2h0.1
			c0,0,0.1-0.1,0-0.1c-0.2-0.4-0.4-0.9-0.7-1.2c-0.1-0.4-0.1-0.9,0.2-1.2c0-0.1,0.1-0.1,0.2-0.2c0.3-0.3,0.7-0.6,1.1-0.7
			c2.2-0.9,4.3-1.9,6.3-3.1c0.6-0.3,1.2-0.5,1.8-0.7c0.4,0,0.8,0,1.1,0.1c0.1,0.1,0.2,0.1,0.5,0.2c0.3,0.3,0.5,0.8,0.3,1.2
			c-0.1,0.3-0.3,0.6-0.5,0.8c-0.2,0.2-0.4,0.4-0.7,0.5c-0.3,0.1-0.5,0.3-0.7,0.5l-0.1,0.1c0,0.1,0,0.1,0.1,0.1c0,0,0,0,0,0l1.7,0.7
			c0.1,0.1,0.3,0,0.5-0.1l1.2-1.4c0.5-0.4,1-0.8,1.6-1c0.6-0.2,1.1-0.2,1.7,0h0.1c0.4,0.2,0.7,0.6,0.8,1c0,0.5-0.2,1.1-0.6,1.5
			l-1.2,1.4c-0.1,0.1-0.1,0.2,0,0.3c0,0,0,0,0,0l5,2.1c0.5,0.2,0.7,0.5,0.7,0.9c0,0.5-0.2,1-0.6,1.2c-0.4,0.5-0.9,0.8-1.5,0.9
			c-0.5,0.2-1,0.2-1.5,0l-5-2.1c-0.1-0.1-0.2,0-0.5,0.1l-1.9,2.1c-0.1,0.1-0.1,0.2,0,0.3c0,0,0,0,0,0l6.2,2.7
			c0.5,0.2,0.7,0.5,0.7,0.9c0,0.5-0.2,0.9-0.5,1.2c-0.3,0.4-0.8,0.7-1.4,0.8c-0.5,0.1-1,0.1-1.5,0l-16.7-7.2
			C87.6,43,87.4,42.7,87.4,42.4L87.4,42.4z M99.6,40.8c0.1-0.1,0.1-0.2,0-0.3c0,0,0,0,0,0L96.2,39c-0.1-0.1-0.3,0-0.5,0
			c-1.4,0.6-2.6,1.1-3.7,1.5l-0.1,0.1v0.1l5.4,2.4c0.1,0.1,0.3,0,0.5-0.1L99.6,40.8z"/>
		<path id="Path_7096" class="st3" d="M106.2,56.2c0.5-0.5,1.1-0.8,1.7-1c0.6-0.2,1.1-0.2,1.7,0l23.5,10.2c0.4,0.2,0.7,0.6,0.8,1
			c0,0.5-0.2,1.1-0.6,1.5l-1.7,1.9c-0.5,0.4-1,0.8-1.6,1c-0.5,0.2-1.2,0.2-1.7,0h-0.1c-0.4-0.2-0.7-0.6-0.8-1c0-0.5,0.2-1.1,0.6-1.5
			l0.7-0.7c0.1-0.1,0.1-0.2,0-0.3c0,0,0,0,0,0l-9.6-4.2c-0.1-0.1-0.3,0-0.6,0c-0.7,0.2-1.2,0.5-1.7,0.6c-0.1,0-0.1,0-0.1,0.1
			c0,0,0,0,0,0v0.1l6.4,2.8h0.2c0.1,0,0.2,0.1,0.3,0.1c0.2,0.1,0.4,0.2,0.6,0.5l0.3,0.6c0.1,0.3,0.1,0.7-0.1,1
			c-0.1,0.1-0.1,0.2-0.2,0.3c-0.2,0.2-0.5,0.4-0.8,0.6c-6.3,2.7-14,3.1-22.8,1c-0.1,0-0.3-0.1-0.5-0.1c-0.3-0.1-0.6-0.4-0.8-0.7
			c-0.2-0.5-0.3-1-0.1-1.5c0.1-0.2,0.3-0.6,0.5-0.8c0.2-0.2,0.5-0.4,0.8-0.5c0.3-0.1,0.6-0.1,0.9,0c2.2,0.6,4.4,1,6.7,1.2h0.1
			l0.1-0.1c-0.4-1.1-1-2.1-1.6-3.1c-0.1-0.1-0.2-0.1-0.3-0.1h-1.7c-0.3,0-0.6-0.1-0.9-0.2c-0.2-0.1-0.3-0.2-0.6-0.3
			c-0.3-0.3-0.5-0.8-0.5-1.2c0-0.3,0.1-0.6,0.3-0.8l0.2-0.2c0.3-0.3,0.8-0.5,1.2-0.5c3.1,0.2,6.2,0,9.2-0.7c0.1,0,0.1,0,0.1-0.1
			c0,0,0,0,0,0V61l-5.2-2.3c-0.1-0.1-0.3,0-0.5,0.1l-0.7,0.8c-0.4,0.5-1,0.8-1.6,0.9c-0.5,0.2-1.2,0.2-1.7,0c-0.4-0.2-0.7-0.6-0.8-1
			c0-0.5,0.2-1,0.6-1.4L106.2,56.2z M111.6,64.9L111.6,64.9c0.6,1.2,1.2,2.4,1.7,3.6c0,0.1,0.1,0.2,0.3,0.2c1.7,0,3.4-0.2,5-0.7
			c0.1,0,0.1,0,0.1-0.1c0,0,0,0,0,0v-0.1L111.6,64.9z M112.9,55.1c-0.4-0.2-0.7-0.6-0.8-1c0-0.5,0.2-1.1,0.6-1.5l2.8-3.2
			c0.5-0.5,1.1-0.8,1.7-1c0.6-0.2,1.1-0.2,1.7,0l19,8.1c0.4,0.2,0.7,0.6,0.8,1c0,0.5-0.2,1.1-0.6,1.5l-2.8,3.2c-0.5,0.4-1,0.8-1.6,1
			c-0.5,0.2-1.2,0.2-1.7,0L112.9,55.1z M118.6,51.5c-0.1-0.1-0.3,0-0.5,0.1l-1.4,1.6c-0.1,0.1-0.1,0.2,0,0.3c0,0,0,0,0,0l2.7,1.1
			c0.1,0.1,0.2,0,0.5-0.1l1.4-1.6c0.1-0.1,0.1-0.2,0-0.3c0,0,0,0,0,0L118.6,51.5z M122.8,49.5c-0.2-0.1-0.4-0.3-0.3-0.6
			c0-0.3,0.2-0.6,0.3-0.8c0.1-0.1,0.1-0.1,0-0.1l-4.9-2c-0.5-0.2-0.7-0.5-0.7-0.9c0-0.5,0.2-0.9,0.6-1.2c0.4-0.4,0.9-0.7,1.5-0.9
			c0.5-0.1,1-0.1,1.5,0l4.7,2c0.1,0.1,0.2,0,0.3-0.1c0.7-0.7,1.7-1,2.7-0.8l0.7,0.3c0.4,0.2,0.6,0.5,0.7,0.9c0,0.4-0.2,0.8-0.5,1.1
			c-0.1,0.1-0.1,0.2,0,0.2l6.2,2.6c0.1,0.1,0.2,0,0.3-0.1c0.7-0.7,1.7-1,2.7-0.8l0.8,0.3c0.4,0.2,0.6,0.5,0.7,0.9
			c0,0.4-0.2,0.8-0.5,1.1c-0.1,0.1-0.1,0.2,0,0.2l4.9,2.1c0.5,0.2,0.7,0.5,0.7,0.9c0,0.5-0.1,0.9-0.5,1.2c-0.4,0.4-0.9,0.7-1.5,0.9
			c-0.5,0.1-1,0.1-1.5,0l-5-2.1c-0.1,0-0.1,0-0.2,0.1c-0.3,0.3-0.6,0.4-0.9,0.6c-0.3,0.1-0.6,0.1-0.9,0l-1.8-0.8
			c-0.2-0.1-0.4-0.3-0.3-0.6c0-0.3,0.2-0.6,0.3-0.8c0.1-0.1,0.1-0.1,0-0.1l-6.3-2.7c-0.1,0-0.1,0-0.2,0.1c-0.3,0.3-0.6,0.4-0.9,0.6
			c-0.3,0.1-0.6,0.1-0.9,0L122.8,49.5z M124.8,54.2c-0.1-0.1-0.3,0-0.5,0.1l-1.4,1.6c-0.1,0.1-0.1,0.2,0,0.3c0,0,0,0,0,0l2.8,1.2
			c0.1,0.1,0.2,0,0.5-0.1l1.4-1.6c0.1-0.1,0.1-0.2,0-0.3c0,0,0,0,0,0L124.8,54.2z M131.1,57c-0.1-0.1-0.3,0-0.5,0.1l-1.4,1.6
			c-0.1,0.1-0.1,0.2,0,0.3c0,0,0,0,0,0l2.9,1.2c0.1,0.1,0.2,0,0.5-0.1l1.4-1.6c0.1-0.1,0.1-0.2,0-0.3c0,0,0,0,0,0L131.1,57z"/>
		<path id="Path_7097" class="st3" d="M172.1,80.1c-0.1,0.1-0.1,0.2,0,0.3c0,0,0,0,0,0l0.8,0.3c0.5,0.2,0.7,0.5,0.7,0.9
			c0,0.5-0.2,0.9-0.6,1.2c-0.4,0.4-0.9,0.7-1.5,0.9c-0.5,0.1-1,0.1-1.5,0l-15.6-6.7l0,0c0,0.2-0.1,0.3-0.5,0.5l-1.9,0.8
			c-0.4,0.1-0.8,0.1-1.1,0h-0.1c-0.3-0.2-0.5-0.6-0.3-0.9c0.2-0.6,0.5-1.2,0.7-1.9H151l-9.7,10.7c-0.4,0.5-1,0.8-1.6,0.9
			c-0.5,0.2-1.2,0.2-1.7,0c-0.4-0.2-0.7-0.6-0.8-1c0-0.5,0.2-1,0.6-1.4l8.6-9.5l0,0c-2,1.3-4,2.5-6.1,3.6c-0.3,0.2-0.8,0.2-1.1,0.1
			H139c-0.3-0.2-0.5-0.6-0.3-0.9c0-0.1,0-0.1,0.1-0.2c0.2-0.6,0.5-1.1,0.9-1.5c0.5-0.6,1.2-1,1.9-1.4c3.9-1.9,7.6-4.2,11.1-6.9
			c0.2-0.1,0.2-0.2,0.1-0.3l-1.8-0.8c-0.4-0.2-0.7-0.6-0.8-1c0-0.5,0.2-1,0.6-1.4c0.4-0.5,1-0.8,1.6-0.9c0.5-0.2,1.1-0.2,1.6,0
			l2.1,0.9c0.1,0.1,0.3,0,0.5-0.1l3.8-4.3c0.4-0.5,1-0.8,1.6-1c0.6-0.2,1.1-0.2,1.7,0c0.4,0.2,0.7,0.6,0.8,1c0,0.5-0.2,1-0.6,1.4
			l-3.8,4.3c-0.1,0.1-0.1,0.2,0,0.3c0,0,0,0,0,0l1.6,0.7c0.4,0.2,0.7,0.6,0.8,1c0,0.5-0.2,1-0.6,1.4c-0.4,0.5-1,0.8-1.6,0.9
			c-0.6,0.2-1.1,0.2-1.7,0l-1.6-0.7c-0.1-0.1-0.3,0-0.5,0.1l-1,1.1c-0.1,0.1-0.2,0.3-0.2,0.5c0,0.9-0.2,2.4-0.5,4.5v0.1h0.1l0.1-0.1
			c0.5-0.5,1.1-0.8,1.7-1c0.6-0.2,1.1-0.2,1.7,0l1.6,0.7c0.1,0.1,0.3,0,0.5-0.1c0.8-0.7,1.8-1.5,3.1-2.4c0.2-0.1,0.2-0.2,0-0.3
			l-0.8-0.3c-0.5-0.2-0.7-0.5-0.7-0.9c0-0.5,0.2-0.9,0.5-1.2c0.4-0.4,0.8-0.7,1.4-0.9c0.5-0.1,1-0.1,1.5,0l1.4,0.6
			c0.1,0.1,0.3,0,0.5-0.1c0.2-0.2,0.6-0.5,1-0.9c0.4-0.3,0.7-0.6,1-0.9c0.1-0.1,0.1-0.2,0-0.3c0,0,0,0,0,0l-2.5-1.1
			c-0.5-0.2-0.7-0.5-0.7-0.9c0-0.5,0.2-0.9,0.6-1.2c0.4-0.4,0.9-0.7,1.5-0.9c0.5-0.1,1-0.1,1.5,0l12.9,5.5c0.5,0.2,0.7,0.5,0.7,0.9
			c0,0.5-0.2,1-0.6,1.2c-0.4,0.4-0.9,0.7-1.5,0.9c-0.5,0.1-1.1,0.1-1.6,0l-6.2-2.7c-0.1-0.1-0.3,0-0.5,0.1l-2,1.7
			c-0.1,0.1-0.1,0.2,0,0.2l4.6,2c0.4,0.2,0.7,0.6,0.8,1c0,0.5-0.2,1.1-0.6,1.5L172.1,80.1z M146.4,90.8c-0.4-0.2-0.7-0.6-0.8-1
			c0-0.5,0.2-1,0.6-1.4l6.8-7.5c0.5-0.4,1-0.8,1.6-1c0.5-0.2,1.2-0.2,1.7,0l10.7,4.6c0.4,0.2,0.7,0.6,0.8,1c0,0.5-0.2,1.1-0.6,1.5
			l-6.7,7.3c-0.5,0.5-1.1,0.8-1.7,1c-0.6,0.2-1.1,0.2-1.7,0l-0.8-0.3c-0.3-0.1-0.5-0.4-0.5-0.7c0-0.3,0.1-0.6,0.3-0.9
			c0.1-0.1,0.1-0.1,0-0.2l-6.9-2.9c-0.1,0-0.2,0-0.3,0.1c-0.3,0.3-0.6,0.5-1,0.7c-0.4,0.1-0.8,0.1-1.1,0L146.4,90.8z M162.2,87.1
			c0.1-0.1,0.1-0.2,0-0.3c0,0,0,0,0,0l-6.8-2.9c-0.1-0.1-0.3,0-0.5,0.1l-2.7,3.1c-0.1,0.1-0.1,0.2,0,0.3c0,0,0,0,0,0l6.8,2.9
			c0.1,0.1,0.2,0,0.5-0.1L162.2,87.1z M171,76.1c0.1-0.1,0.1-0.2,0-0.3c0,0,0,0,0,0l-3.4-1.5c-0.1-0.1-0.3,0-0.5,0.1
			c-1.6,1.2-2.6,2-3.1,2.4c-0.1,0.1-0.2,0.2,0,0.2l4.1,1.8c0.1,0.1,0.2,0,0.5-0.1L171,76.1z"/>
		<path id="Path_7098" class="st3" d="M202.4,95.6c-0.5,0.5-1.1,0.8-1.7,1c-0.6,0.2-1.1,0.2-1.7,0l-5.4-2.4c-0.1-0.1-0.3,0-0.6,0
			l-1.2,0.7l-0.1,0.1v0.1l8.1,3.5c0.3,0.1,0.6,0.4,0.6,0.8c0,0.4-0.2,0.8-0.5,1.1c-0.3,0.4-0.8,0.6-1.2,0.8c-0.4,0.1-0.9,0.1-1.4,0
			l-1.6-0.7c-0.1-0.1-0.3,0-0.5,0.1c-1.5,1.1-3.1,1.9-4.9,2.5c-0.2,0.1-0.2,0.1-0.1,0.2c0.6,0.8,1.3,1.6,1.8,2.5
			c0.2,0.4,0.2,0.9-0.1,1.2c-0.1,0.1-0.1,0.2-0.2,0.2c-0.3,0.3-0.7,0.6-1.1,0.7c-0.6,0.2-1.2,0.2-1.8,0.1c-0.1,0-0.3-0.1-0.5-0.1
			c-0.4-0.1-0.6-0.3-0.8-0.7c-0.6-0.9-1.2-1.9-2-3.1c-0.1-0.1-0.2-0.2-0.5-0.1c-3.2,0.1-6.5-0.3-9.6-1.1c-0.1,0-0.2-0.1-0.3-0.1
			c-0.3-0.1-0.6-0.4-0.7-0.7c-0.2-0.5-0.2-1,0-1.5c0.2-0.3,0.3-0.5,0.6-0.7c0.3-0.2,0.6-0.4,0.9-0.5c0.3-0.1,0.6-0.1,0.9,0
			c1.9,0.6,3.8,1.1,5.8,1.2h0.1c0,0,0.1-0.1,0-0.1c-0.4-0.5-0.8-0.9-1.2-1.2h-0.1c-0.3,0.1-0.6,0.1-0.7,0l-0.8-0.8
			c-0.3-0.3-0.3-0.7-0.1-1c0.1-0.1,0.2-0.3,0.3-0.5c0.2-0.2,0.4-0.3,0.7-0.5c0.9-0.5,1.8-0.8,2.6-1.2l0.1-0.1v-0.1l-1.5-0.7
			c-0.4-0.2-0.7-0.6-0.8-1c0-0.5,0.2-1.1,0.6-1.5l0.3-0.5v-0.1h-0.1c-0.3,0.2-0.8,0.2-1.1,0c-0.3-0.2-0.3-0.5-0.2-0.8
			c0.3-0.8,0.6-1.6,0.9-2.6v-0.1h-0.1l-9.9,11c-0.4,0.5-1,0.8-1.6,0.9c-0.5,0.2-1.1,0.2-1.6,0c-0.4-0.2-0.7-0.6-0.8-1
			c0-0.5,0.2-1,0.6-1.4l8.5-9.4v-0.1l0,0c-2,1.4-4,2.5-5.7,3.4c-0.3,0.2-0.8,0.2-1.1,0.1h-0.1c-0.3-0.2-0.5-0.6-0.3-0.9v-0.1
			c0.2-0.6,0.5-1.1,0.9-1.6c0.6-0.5,1.2-1,1.8-1.4c3.8-1.9,7.4-4.3,10.7-7c0.1-0.1,0.1-0.2,0-0.3c0,0,0,0,0,0l-1.5-0.7
			c-0.4-0.2-0.7-0.6-0.8-1c-0.1-0.5,0.1-1,0.6-1.4c0.4-0.5,1-0.8,1.6-0.9c0.5-0.2,1.1-0.2,1.6,0l1.8,0.8c0.1,0.1,0.3,0,0.5-0.1
			l4-4.3c0.4-0.4,0.9-0.8,1.5-0.9c0.5-0.2,1.1-0.2,1.6,0c0.4,0.2,0.7,0.6,0.8,1c0,0.5-0.2,1-0.6,1.4l-4,4.3c-0.1,0.1-0.1,0.2,0,0.3
			c0,0,0,0,0,0l1.1,0.5c0.4,0.2,0.7,0.6,0.8,1c0,0.5-0.2,1-0.6,1.4c-0.4,0.5-1,0.8-1.6,0.9c-0.5,0.2-1.1,0.2-1.6,0l-1.1-0.5
			c-0.1-0.1-0.2,0-0.5,0.1l-0.9,1c-0.1,0.1-0.2,0.3-0.2,0.5c-0.3,2-0.7,3.9-1.1,5.9c0,0.3-0.2,0.5-0.3,0.7c-0.3,0.3-0.6,0.4-0.9,0.6
			v0.1l0,0l4.4,1.9c0.1,0.1,0.3,0.1,0.5,0c0.4-0.3,0.8-0.5,1.2-0.7l0.1-0.1v-0.1l-2.5-1c-0.3-0.1-0.6-0.4-0.6-0.8
			c0-0.4,0.2-0.8,0.5-1c0.3-0.3,0.7-0.6,1.1-0.7c0.4-0.1,0.8-0.1,1.2,0l4.2,1.8c0.1,0.1,0.3,0,0.5-0.1l0.7-0.8
			c0.1-0.1,0.1-0.2,0-0.3c0,0,0,0,0,0l-5.5-2.4c-0.3-0.1-0.6-0.4-0.6-0.8c0-0.4,0.2-0.8,0.5-1c0.3-0.4,0.8-0.6,1.2-0.7
			c0.4-0.1,0.8-0.1,1.2,0l5.5,2.4c0.1,0.1,0.3,0,0.5-0.1l0.6-0.7c0.1-0.1,0.1-0.2,0-0.3c0,0,0,0,0,0l-4.2-1.8
			c-0.3-0.1-0.6-0.4-0.6-0.8c0-0.4,0.2-0.8,0.5-1c0.3-0.3,0.7-0.6,1.1-0.7c0.4-0.1,0.8-0.1,1.2,0l4.2,1.8c0.1,0.1,0.3,0,0.5-0.1
			l0.6-0.7c0.1-0.1,0.1-0.2,0-0.3c0,0,0,0,0,0l-5.2-2.3c-0.3-0.1-0.6-0.4-0.6-0.8c0-0.4,0.2-0.8,0.5-1.1c0.3-0.4,0.8-0.6,1.2-0.8
			c0.4-0.1,0.9-0.1,1.4,0l5.2,2.3c0.1,0.1,0.3,0,0.5-0.1l0.2-0.3c0.4-0.5,1-0.8,1.6-1c0.5-0.2,1.2-0.2,1.7,0c0.4,0.2,0.7,0.6,0.8,1
			c0,0.5-0.2,1.1-0.6,1.5l-0.2,0.3c-0.1,0.1-0.1,0.2,0,0.3c0,0,0,0,0,0l5.4,2.4c0.3,0.1,0.6,0.4,0.6,0.8c0,0.4-0.2,0.8-0.5,1.1
			c-0.3,0.4-0.8,0.6-1.2,0.8c-0.4,0.1-0.9,0.1-1.4,0l-5.4-2.4c-0.1-0.1-0.3,0-0.5,0.1l-0.6,0.7c-0.1,0.1-0.1,0.2,0,0.3c0,0,0,0,0,0
			l4.1,1.7c0.4,0.2,0.7,0.6,0.8,1c0,0.5-0.2,1.1-0.6,1.5l-1.4,1.5c-0.1,0.1-0.1,0.2,0,0.2c0.3,0.1,0.6,0.4,0.6,0.8
			c0,0.4-0.2,0.8-0.5,1.1l-0.2,0.2c-0.3,0.4-0.8,0.6-1.2,0.8c-0.4,0.1-0.9,0.1-1.4,0c-0.1,0-0.2,0-0.3,0.1L202.4,95.6z M191.7,99.1
			l0.1-0.1c0-0.1,0-0.1-0.1-0.1c0,0,0,0,0,0l-4.2-1.8c-0.2-0.1-0.4-0.1-0.6,0l-1.4,0.7c-0.2,0.1-0.2,0.2-0.1,0.3
			c0.5,0.5,1.2,1.2,2.4,2.5c0.1,0.1,0.2,0.1,0.5,0.1C189.5,100.3,190.6,99.7,191.7,99.1L191.7,99.1z M198.5,91.1
			c-0.1-0.1-0.3,0-0.5,0.1l-0.7,0.8c-0.1,0.1-0.1,0.2,0,0.3c0,0,0,0,0,0l2.1,0.9c0.1,0.1,0.2,0,0.5-0.1l0.7-0.8
			c0.1-0.1,0.1-0.2,0-0.3c0,0,0,0,0,0L198.5,91.1z M201.8,87.6c-0.1-0.1-0.3,0-0.5,0.1l-0.6,0.7c-0.1,0.1-0.1,0.2,0,0.3c0,0,0,0,0,0
			l2.1,0.9c0.1,0.1,0.2,0,0.5-0.1l0.6-0.7c0.1-0.1,0.1-0.2,0-0.3c0,0,0,0,0,0L201.8,87.6z"/>
		<path id="Path_7099" class="st3" d="M207.1,106.9c0.7-0.2,1.4-0.2,2-0.1c0.2,0,0.5,0.1,0.7,0.2c0.3,0.1,0.5,0.3,0.7,0.6l0.3,0.5
			c0.2,0.3,0.2,0.8,0,1.1c-0.1,0.1-0.1,0.2-0.2,0.3c-0.3,0.3-0.6,0.5-1,0.6c-3.4,1-6.8,1.7-10.3,2.1c-0.5,0.1-1,0-1.5-0.1
			c-0.1,0-0.1-0.1-0.2-0.1c-0.4-0.3-0.7-0.7-0.9-1.1c0-0.1,0-0.2-0.1-0.3c-0.1-0.4,0-0.8,0.3-1c0.4-0.4,0.9-0.7,1.5-0.8
			C201.3,108.4,204.2,107.7,207.1,106.9z M227.2,107.1c-0.1,0.1-0.1,0.2,0,0.3c0,0,0,0,0,0l4.7,2c0.4,0.2,0.7,0.6,0.8,1
			c0,0.5-0.2,1.1-0.6,1.5c-0.5,0.5-1.1,0.8-1.7,1c-0.6,0.2-1.1,0.2-1.7,0l-24.5-10.5c-0.4-0.2-0.7-0.6-0.8-1c0-0.5,0.2-1.1,0.6-1.5
			c0.5-0.5,1.1-0.8,1.7-1c0.6-0.2,1.1-0.2,1.7,0l4.6,2c0.1,0.1,0.2,0,0.5-0.1l4.9-5.3c0.1-0.1,0.1-0.2,0-0.3c0,0,0,0,0,0l-3.5-1.6
			c-0.4-0.2-0.7-0.6-0.8-1c0-0.5,0.2-1.1,0.6-1.5c0.5-0.4,1-0.8,1.6-1c0.5-0.2,1.2-0.2,1.7,0l3.5,1.6c0.1,0.1,0.2,0,0.5-0.1l3.3-3.6
			c0.5-0.5,1.1-0.8,1.7-1c0.6-0.2,1.1-0.2,1.7,0l0.2,0.1c0.4,0.2,0.7,0.6,0.8,1c0,0.5-0.2,1.1-0.6,1.5l-3.3,3.6
			c-0.1,0.1-0.1,0.2,0,0.3c0,0,0,0,0,0l6.6,2.8c0.1,0.1,0.3,0,0.5-0.1l3.3-3.6c0.5-0.4,1-0.8,1.6-1c0.6-0.2,1.1-0.2,1.7,0l0.2,0.1
			c0.4,0.2,0.7,0.6,0.8,1c0,0.5-0.2,1.1-0.6,1.5l-3.3,3.6c-0.1,0.1-0.1,0.2,0,0.3c0,0,0,0,0,0l3.7,1.6c0.4,0.2,0.7,0.6,0.8,1
			c0,0.5-0.2,1-0.6,1.5c-0.5,0.4-1,0.8-1.6,1c-0.6,0.2-1.1,0.2-1.7,0l-3.7-1.6c-0.1-0.1-0.2,0-0.5,0.1L227.2,107.1z M221.5,97
			c-0.1-0.1-0.3,0-0.5,0.1l-4.9,5.3c-0.1,0.1-0.1,0.2,0,0.3c0,0,0,0,0,0l6.6,2.8c0.1,0.1,0.3,0,0.5-0.1l4.9-5.3
			c0.1-0.1,0.1-0.2,0-0.3c0,0,0,0,0,0L221.5,97z M216.4,113c-0.1-0.4,0-0.8,0.3-1c0.4-0.4,1-0.7,1.6-0.7h0.3c0.6,0,1.2,0,1.7,0.2
			c0.1,0,0.1,0,0.2,0.1c0.4,0.3,0.8,0.7,1,1.1c0.3,1.2,0.7,2.4,1,3.5c0.3,1.1,0.6,2.3,0.8,3.2c0.1,0.4,0,0.8-0.3,1.1
			c0,0.1,0,0.1-0.1,0.1c0,0,0,0,0,0c-0.4,0.4-1,0.7-1.6,0.7l-0.9,0.1c-0.5,0.1-0.9,0-1.4-0.2c-0.1,0-0.2-0.1-0.3-0.1
			c-0.4-0.3-0.7-0.7-0.8-1.2C217.6,118,217.1,115.7,216.4,113L216.4,113z"/>
		<path id="Path_7100" class="st3" d="M253.2,106.1c0.7,0.3,1.5,0.6,2.1,1c0.2,0.2,0.4,0.5,0.3,0.8c0,0.3-0.2,0.7-0.5,0.9
			c-4.1,4.1-8.5,7.7-13.3,10.9c-0.2,0.1-0.2,0.2-0.2,0.3c0.2,0.9,0.3,1.8,0.5,2.5c0.1,0.6-0.2,1.2-0.7,1.6c-0.5,0.5-1,0.9-1.6,1.1
			l-0.2,0.1c-0.5,0.2-1.1,0.2-1.6,0.1h-0.1c-0.5-0.2-0.7-0.5-0.7-0.9c0-0.6-0.1-1.2-0.1-2c0-0.1-0.1-0.2-0.3-0.1
			c-2.5,1.2-5.2,2-7.9,2.6c-0.4,0.1-0.8,0-1.1-0.1c-0.1,0-0.2-0.1-0.3-0.2c-0.4-0.3-0.6-0.8-0.5-1.2v-0.1c0.1-0.4,0.2-0.7,0.5-1
			l0.2-0.2c0.4-0.4,1-0.7,1.6-0.8c2.4-0.4,4.7-1.2,6.9-2.4c0.2-0.1,0.2-0.2,0.2-0.3c-0.1-0.3-0.2-0.9-0.5-1.6c0-0.1-0.1-0.1-0.2,0
			c-0.2,0.1-0.5,0.2-0.8,0.2c-0.2,0-0.4-0.1-0.6-0.2l-0.5-0.7c-0.2-0.4-0.2-0.9,0-1.4c0.1-0.3,0.3-0.6,0.6-0.9
			c0.1-0.2,0.3-0.4,0.6-0.5c2.4-1.8,5.2-4.1,8.5-6.8c0.1-0.1,0.1-0.2,0-0.2l-0.5-0.2c-0.4-0.2-0.7-0.6-0.8-1c0-0.5,0.2-1,0.6-1.4
			c0.4-0.5,1-0.8,1.6-0.9c0.5-0.2,1.1-0.2,1.6,0l1.1,0.5c0.1,0.1,0.3,0,0.5-0.1c1.7-1.4,3.2-2.6,4.4-3.7c0.5-0.4,1.1-0.7,1.7-0.8
			c0.5-0.1,1-0.1,1.5,0.1c0.1,0,0.1,0,0.1,0.1c0,0,0,0,0,0c0.5,0.2,0.7,0.7,0.6,1.1c0,0.4-0.2,0.8-0.6,1.1c-0.1,0.1-0.2,0.2-0.3,0.2
			c-1.2,1.1-2.7,2.3-4.2,3.4c-0.1,0.1-0.1,0.2,0,0.3c0,0,0,0,0,0L253.2,106.1z M249.7,109.4c0.1-0.1,0.1-0.2,0-0.3c0,0,0,0,0,0
			l-2.1-0.9c-0.1-0.1-0.3,0-0.5,0.1c-1.8,1.5-4.2,3.4-7,5.5c-0.1,0.1-0.2,0.2-0.1,0.3c0.2,0.7,0.5,1.4,0.8,2c0,0.1,0.1,0.1,0.3,0
			C244.1,114.1,247,111.9,249.7,109.4L249.7,109.4z M266,119.8c0.4,0.2,0.7,0.6,0.8,1c0,0.5-0.2,1-0.6,1.4c-0.4,0.5-1,0.8-1.6,1
			c-0.5,0.2-1.2,0.2-1.7,0l-4.9-2c-0.1-0.1-0.2,0-0.5,0.1l-7.8,8.6c-0.7,0.7-1.4,1.4-2.3,2c-0.7,0.4-1.5,0.6-2.3,0.7
			c-1.4,0-2.7-0.3-4-0.8h-0.1c-0.4-0.2-0.8-0.6-0.9-1c-0.1-0.5-0.1-1.1,0.2-1.6c0-0.1,0.1-0.2,0.1-0.3c0.1-0.1,0.1-0.3,0.3-0.5
			c0.2-0.2,0.5-0.4,0.8-0.6c0.4-0.2,0.9-0.2,1.4-0.1l0,0c0.4,0.2,0.8,0.4,1.2,0.6c0.2,0.1,0.4,0.2,0.7,0.2c0.2,0.1,0.4,0.1,0.6,0.1
			c0.2,0,0.4-0.2,0.6-0.3l7.8-8.6c0.1-0.1,0.1-0.2,0-0.3c0,0,0,0,0,0l-4.5-1.9c-0.4-0.2-0.7-0.6-0.8-1c0-0.5,0.2-1,0.6-1.4
			c0.4-0.5,1-0.8,1.6-1c0.5-0.2,1.2-0.2,1.7,0l4.5,1.9c0.1,0.1,0.2,0,0.5-0.1l2-2.3c0.3-0.3,0.6-0.4,0.9-0.6c0.3-0.1,0.7-0.1,1,0
			h0.3c2-0.6,3.9-1.3,5.8-2.1l0.1-0.1v-0.1l-7.7-3.3c-0.4-0.2-0.7-0.6-0.8-1c0-0.5,0.2-1,0.6-1.4c0.4-0.5,1-0.8,1.6-0.9
			c0.5-0.2,1.1-0.2,1.6,0l10.3,4.4h0.2c0.2,0,0.3,0.1,0.5,0.1c0.3,0.1,0.5,0.3,0.6,0.6l0.2,0.8c0.1,0.4,0,0.9-0.2,1.2
			c-0.1,0.1-0.1,0.2-0.2,0.2c-0.3,0.3-0.6,0.5-1,0.7c-3.4,1.4-6.8,2.6-10.3,3.6c-0.2,0-0.3,0.1-0.5,0.3l-1.1,1.2
			c-0.1,0.1-0.1,0.2,0,0.3c0,0,0,0,0,0L266,119.8z"/>
	</g>
</g>
</svg>
