<?xml version="1.0" encoding="utf-8"?>
<!-- Generator: Adobe Illustrator 24.0.3, SVG Export Plug-In . SVG Version: 6.00 Build 0)  -->
<svg version="1.1" id="圖層_1" xmlns="http://www.w3.org/2000/svg" xmlns:xlink="http://www.w3.org/1999/xlink" x="0px" y="0px"
	 viewBox="0 0 522.3 540.1" style="enable-background:new 0 0 522.3 540.1;" xml:space="preserve">
<style type="text/css">
	.st0{fill:#EF8619;stroke:#030000;stroke-width:2.045;stroke-miterlimit:10;}
	.st1{fill:#FFFFFF;}
	.st2{fill:none;stroke:#231815;stroke-width:2.045;stroke-miterlimit:10;}
	.st3{fill:#231815;}
	.st4{fill:#EF8619;}
	.st5{fill:none;stroke:#231815;stroke-width:2.045;stroke-linecap:round;stroke-miterlimit:10;}
	.st6{fill:none;stroke:#030000;stroke-width:1.7484;stroke-miterlimit:10;}
	.st7{fill:#FFFFFF;stroke:#231815;stroke-width:2.045;stroke-miterlimit:10;}
	.st8{fill:#71BF87;stroke:#030000;stroke-width:2.045;stroke-miterlimit:10;}
</style>
<g id="feature5" transform="translate(0.54 0.513)">
	<path id="Path_7187" class="st0" d="M136.4,216c1-1.5,3-1.9,4.5-0.9c1.4,1.1,1.7,3.1,0.6,4.5c0,0,0,0,0,0c-1,1.5-2.9,1.9-4.4,0.9
		c0,0,0,0,0,0c-1.4-0.9-1.8-2.8-0.9-4.2C136.2,216.3,136.3,216.1,136.4,216"/>
	<path id="Path_7188" class="st0" d="M141.4,235.9c0,0-4.1-12.2-3.4-22.2c0.6-7.8-14.8-12.5-15.9,1.7c-0.8,10.2,2.4,24,5.8,30.6"/>
	<path id="Path_7189" class="st0" d="M203.1,457.1v46.1c0,7.8-6.3,14.1-14,14.1l0,0c-7.8-0.1-14-6.4-14-14.1v-46.1"/>
	<path id="Path_7190" class="st0" d="M118.8,258.6C74,324.8,91.1,414.5,156.9,458.9c65.8,44.4,155.3,26.9,200.1-39.2
		s27.6-155.9-38.1-200.3C253,174.9,163.5,192.5,118.8,258.6"/>
	<path id="Path_7191" class="st0" d="M336.9,302.3c0.1-1.8-1.3-3.3-3.1-3.4c-1.8,0.1-3.1,1.6-3.1,3.3c0,0,0,0,0,0.1
		c-0.1,1.8,1.3,3.3,3.1,3.4C335.6,305.6,337,304.1,336.9,302.3C336.9,302.3,336.9,302.3,336.9,302.3"/>
	<path id="Path_7192" class="st0" d="M321.3,315.5c0,0,10.4-7.6,15.6-16c4.1-6.7,19.3-1.6,12,10.7c-5.2,8.8-15.9,18.1-22.5,21.6"/>
	<path id="Path_7193" class="st1" d="M208.4,294.1c-0.5,1-1,1.9-1.7,2.8c-5.9,8.7-15,12.7-20.5,9c-5.4-3.7-5.1-13.7,0.8-22.3
		c0.6-0.9,1.2-1.8,1.9-2.6L208.4,294.1z"/>
	<path id="Path_7194" class="st2" d="M208.4,294.1c-0.5,1-1,1.9-1.7,2.8c-5.9,8.7-15,12.7-20.5,9c-5.4-3.7-5.1-13.7,0.8-22.3
		c0.6-0.9,1.2-1.8,1.9-2.6L208.4,294.1z"/>
	<path id="Path_7195" class="st3" d="M188.1,283.4c-3.2,4.7-3.4,10.2-0.5,12.2c2.9,2,8-0.2,11.2-5c3.2-4.7,3.4-10.2,0.5-12.2
		C196.2,276.5,191.2,278.7,188.1,283.4"/>
	<path id="Path_7196" class="st4" d="M207.5,274.6c4.9,3.3,5.1,11.6,0.9,19.6L189,281C194.7,274.2,202.6,271.3,207.5,274.6"/>
	<path id="Path_7197" class="st2" d="M207.5,274.6c4.9,3.3,5.1,11.6,0.9,19.6L189,281C194.7,274.2,202.6,271.3,207.5,274.6z"/>
	<path id="Path_7198" class="st5" d="M216.7,285c-1.6,1-3.6,1-5.3,0.1"/>
	<path id="Path_7199" class="st5" d="M216.5,287.9c-1.7,0.8-3.7,0.6-5.3-0.5"/>
	<path id="Path_7200" class="st5" d="M216.7,282c-1.6,1-3.6,1.2-5.3,0.3"/>
	<path id="Path_7201" class="st1" d="M151.8,255.9c-0.7,0.8-1.3,1.7-1.9,2.6c-5.9,8.7-6.2,18.6-0.8,22.3c5.4,3.7,14.6-0.3,20.5-9
		c0.6-0.9,1.1-1.8,1.7-2.8L151.8,255.9z"/>
	<path id="Path_7202" class="st2" d="M151.8,255.9c-0.7,0.8-1.3,1.7-1.9,2.6c-5.9,8.7-6.2,18.6-0.8,22.3c5.4,3.7,14.6-0.3,20.5-9
		c0.6-0.9,1.1-1.8,1.7-2.8L151.8,255.9z"/>
	<path id="Path_7203" class="st3" d="M161.6,265.5c-3.2,4.7-8.1,6.9-11.2,5c-2.9-2-2.8-7.5,0.5-12.2c3.2-4.7,8.3-6.9,11.2-5
		C165,255.4,164.9,260.8,161.6,265.5"/>
	<path id="Path_7204" class="st4" d="M170.3,249.5c-4.9-3.3-12.7-0.5-18.4,6.4l19.4,13.1C175.4,261.1,175.2,252.8,170.3,249.5"/>
	<path id="Path_7205" class="st2" d="M170.3,249.5c-4.9-3.3-12.7-0.5-18.4,6.4l19.4,13.1C175.4,261.1,175.2,252.8,170.3,249.5z"/>
	<path id="Path_7206" class="st5" d="M157.3,244.7c-0.3,1.9,0.4,3.8,1.9,5"/>
	<path id="Path_7207" class="st5" d="M154.5,246c-0.1,1.9,0.8,3.7,2.4,4.7"/>
	<path id="Path_7208" class="st5" d="M159.9,243.8c-0.4,1.9,0.2,3.8,1.6,5.1"/>
	<path id="Path_7209" class="st5" d="M175.3,311.1c0,0-8.4,1.4-7.7,11.4"/>
	<path id="Path_7210" class="st5" d="M149.5,293.6c0,0,1.8,8.3-7.7,11.4"/>
	<line id="Line_31" class="st2" x1="169.2" y1="315.3" x2="147.9" y2="300.8"/>
	<path id="Path_7211" class="st1" d="M151.9,303.9l2.5,1.7l2.5,1.7c0,0-1.4,3.1-3.7,1.5l-0.6-0.3L152,308
		C149.5,306.2,151.9,303.9,151.9,303.9"/>
	<path id="Path_7212" class="st2" d="M151.9,303.6l2.5,1.7l2.5,1.7c0,0-1.6,3.5-4.1,1.8l-0.6-0.3l-0.6-0.3
		C149.3,306.5,151.9,303.6,151.9,303.6z"/>
	<path id="Path_7213" class="st1" d="M160.1,309.4l2.5,1.7l2.5,1.7c0,0-1.4,3.1-3.7,1.5l-0.6-0.3l-0.6-0.3
		C157.8,311.8,160.1,309.4,160.1,309.4"/>
	<path id="Path_7214" class="st2" d="M160.1,309.3l2.5,1.7l2.5,1.7c0,0-1.6,3.5-4.1,1.8l-0.6-0.3l-0.6-0.3
		C157.5,312,160.1,309.3,160.1,309.3z"/>
	<path id="Path_7215" class="st4" d="M322.3,221.8c0,0-15.8-9.4-19.9-31c0,0-0.7-2.3-2.9-0.1c0,0-15.4,13.6-11.1,24.8"/>
	<path id="Path_7216" class="st6" d="M322.4,221.7c0,0-15.8-9.4-19.9-31c0,0-0.7-2.3-2.9-0.1c0,0-15.4,13.6-11.1,24.8"/>
	<path id="Path_7217" class="st0" d="M274,472.3v46.1c0,7.8-6.3,14.1-14,14.1l0,0c-7.8-0.1-14-6.4-14-14.1v-40"/>
	<path id="Path_7218" class="st7" d="M384.9,324.5L13.2,161.1c-5.8-2.6-8.5-9.5-5.8-15.3c0.4-1,1-1.8,1.7-2.7L121,11
		c3.3-3.8,8.7-5.1,13.3-3.1l374.6,164.6c4.7,2,6.8,7.5,4.7,12.1c-0.4,0.8-0.9,1.6-1.5,2.3L398.3,321.5
		C395,325.3,389.6,326.6,384.9,324.5z"/>
	<g id="Group_650" transform="translate(176.723 77.391)">
		<path id="Path_7219" class="st8" d="M46.3,17.3c1.5,0.6,3,1.3,4.4,2.1c0.6,0.3,0.9,0.9,0.8,1.6c0,0.6-0.3,1.3-0.8,1.7
			c-6.5,7.2-14,13.5-22.2,18.8c-0.2,0.2-0.5,0.5-0.3,0.7c0.4,1.4,0.6,2.8,0.8,4.3c0.1,1.1-0.3,2.1-1.1,2.8c-0.8,0.8-1.8,1.5-2.8,1.9
			L22.9,52c-0.8,0.4-1.8,0.5-2.6,0.1l0,0c-0.7-0.2-1.1-0.9-1.1-1.6c0-0.9-0.1-1.9-0.2-3.2c0-0.2-0.2-0.3-0.6-0.1
			c-4.2,1.9-8.5,3.3-13,4.2c-0.7,0.1-1.4,0.1-2-0.1c-0.2-0.1-0.4-0.2-0.6-0.3c-0.7-0.5-1-1.3-0.8-2.1c0-0.6,0.1-1,0.1-1.6
			c0.1-0.7,0.4-1.3,0.9-1.8c0.1-0.1,0.3-0.3,0.3-0.5C4.1,44.3,5,43.8,6,43.6c3.8-0.7,7.4-1.9,10.9-3.6c0.3-0.1,0.5-0.3,0.3-0.6
			l-0.3-1.2c0-0.1-0.1-0.1-0.2,0c-0.3,0.3-0.7,0.4-1.1,0.5c-0.3,0-0.6-0.1-0.8-0.3l-1.5-2.4c-0.4-0.8-0.5-1.7-0.1-2.5
			c0.3-0.6,0.6-1.2,1-1.7c0.3-0.4,0.6-0.7,1-0.9c3.6-2.8,8.1-6.4,13.5-10.9c0.2-0.2,0.3-0.5,0-0.6l-0.2-0.1c-0.8-0.2-1.4-1-1.5-1.8
			c-0.1-0.9,0.3-1.9,1-2.5l0.9-0.9c0.7-0.8,1.7-1.4,2.7-1.7c0.9-0.3,2-0.3,2.9,0l1.6,0.7c0.2,0.1,0.5,0,0.8-0.2
			c2-1.8,4.4-3.8,7.1-6.2c0.9-0.8,1.9-1.3,3.1-1.5C47.9,5,48.8,5,49.6,5.4c0.1,0,0.2,0.1,0.3,0.2l1,0.6c0.7,0.3,1.2,1.1,1.1,1.9
			C52,8.8,51.7,9.5,51.2,10l-0.5,0.5c-2.3,1.9-4.4,3.7-6.6,5.5c-0.2,0.2-0.2,0.3,0,0.5L46.3,17.3z M38.9,24.1c0.2-0.2,0.3-0.5,0-0.6
			l-2.4-1c-0.3-0.1-0.6,0-0.8,0.2c-2.4,1.9-5.9,4.7-10.5,8.5C25,31.5,24.9,31.7,25,32c0.3,0.8,0.6,1.6,0.8,2.4
			c0.1,0.2,0.2,0.2,0.6,0C30.8,31.3,35,27.9,38.9,24.1L38.9,24.1z M69.9,41.2c0.8,0.3,1.4,1,1.5,1.8c0.1,0.9-0.3,1.9-1,2.5l-1,1.1
			c-0.8,0.8-1.8,1.4-2.8,1.7c-1,0.4-2,0.3-2.9-0.1l-7.8-3.3c-0.3-0.1-0.6,0-0.8,0.2L43.2,58.3c-1.3,1.5-2.8,2.8-4.4,4
			c-1.4,0.8-2.9,1.3-4.5,1.5c-2.5,0-4.9-0.5-7.2-1.4c-0.1,0-0.1-0.1-0.2-0.1c-0.7-0.3-1.3-0.9-1.6-1.6c-0.2-0.9-0.1-1.9,0.5-2.7
			c0.3-0.7,0.6-1.3,0.8-2c0.1-0.3,0.3-0.6,0.6-0.8c0.4-0.4,0.8-0.7,1.2-0.9c0.7-0.4,1.6-0.4,2.4-0.1l0,0c0.8,0.3,1.4,0.6,1.8,0.8
			c0.5,0.2,0.8,0.3,1,0.5c0.4,0.2,0.7,0.3,1.1,0.2c0.3-0.1,0.6-0.3,0.8-0.6L47,42c0.2-0.2,0.2-0.5-0.1-0.6l-7.1-3.1
			c-0.8-0.3-1.4-1-1.5-1.8c-0.1-0.9,0.3-1.8,0.9-2.5l1-1.1c0.8-0.8,1.7-1.4,2.8-1.7c0.9-0.3,2-0.3,2.9,0l7.1,3.1
			c0.3,0.1,0.6,0,0.8-0.2l2.8-3.2c0.5-0.5,1.1-0.9,1.8-1.1c0.6-0.2,1.3-0.2,1.9,0c0.2,0.1,0.4,0.1,0.6,0c2.7-1,5.4-2.1,8-3.4
			c0.1,0,0.1-0.1,0.2-0.2c0-0.1,0-0.1-0.1-0.2l-11.6-4.9c-0.8-0.3-1.4-1-1.5-1.8c-0.1-0.9,0.3-1.9,1-2.5l0.8-0.9
			c0.8-0.8,1.8-1.4,2.8-1.7c1-0.4,2-0.3,2.9,0.1l16.7,7c0.1,0.1,0.2,0.1,0.5,0.1c0.3,0,0.6,0.1,0.9,0.2c0.6,0.2,1.1,0.7,1.2,1.4
			l0.6,1.6c0.2,0.9,0,1.8-0.6,2.5c-0.1,0.2-0.3,0.4-0.5,0.6c-0.6,0.6-1.3,1.1-2.1,1.5c-6.3,2.7-11.9,4.7-16.5,6.2
			c-0.3,0.1-0.6,0.2-0.8,0.5l-1.2,1.4c-0.2,0.2-0.2,0.5,0.1,0.6L69.9,41.2z"/>
		<path id="Path_7220" class="st8" d="M100.2,39.9c1.5,0.6,3,1.3,4.4,2.1c0.6,0.3,0.9,0.9,0.8,1.6c0,0.6-0.3,1.3-0.8,1.7
			c-6.5,7.2-14,13.5-22.2,18.8c-0.2,0.2-0.5,0.5-0.3,0.7c0.3,1.4,0.6,2.8,0.8,4.3c0.1,1.1-0.3,2.1-1.1,2.8c-0.8,0.8-1.8,1.5-2.8,1.9
			l-2.1,0.8C76,75,75,75,74.2,74.7l0,0c-0.7-0.2-1.1-0.9-1.1-1.6c0-0.9-0.1-1.9-0.2-3.2c0-0.2-0.2-0.3-0.6-0.1
			c-4.2,1.9-8.5,3.3-13,4.2c-0.7,0.1-1.4,0.1-2-0.1c-0.2-0.1-0.4-0.2-0.6-0.3c-0.7-0.5-1-1.3-0.8-2.1c0-0.6,0.1-1,0.1-1.6
			c0.1-0.7,0.4-1.3,0.9-1.8c0.1-0.1,0.3-0.3,0.3-0.5c0.8-0.7,1.7-1.1,2.7-1.4c3.8-0.7,7.4-1.9,10.9-3.6c0.3-0.1,0.5-0.3,0.3-0.6
			l-0.3-1.2c0-0.1-0.1-0.1-0.2,0c-0.3,0.3-0.7,0.4-1.1,0.5c-0.3,0-0.6-0.1-0.8-0.3l-1.5-2.4c-0.4-0.8-0.5-1.7-0.1-2.5
			c0.3-0.6,0.6-1.2,1-1.7c0.3-0.4,0.6-0.7,1-0.9c3.6-2.8,8.1-6.4,13.5-10.9c0.2-0.2,0.3-0.5,0-0.6l-0.2-0.1c-0.8-0.2-1.4-1-1.5-1.8
			c-0.1-0.9,0.3-1.9,1-2.5l0.9-0.9c0.7-0.8,1.7-1.4,2.7-1.7c0.9-0.3,2-0.3,2.9,0l1.6,0.7c0.2,0.1,0.5,0,0.8-0.2
			c2-1.8,4.4-3.8,7.1-6.2c0.9-0.8,1.9-1.3,3.1-1.5c0.9-0.2,1.8-0.1,2.6,0.2c0.1,0,0.2,0.1,0.3,0.2l1,0.6c0.7,0.3,1.2,1.1,1.1,1.9
			c-0.1,0.7-0.4,1.4-0.9,1.9l-0.5,0.5c-2.3,1.9-4.4,3.7-6.6,5.5c-0.2,0.2-0.2,0.3,0,0.5L100.2,39.9z M92.8,46.8
			c0.2-0.2,0.3-0.5,0-0.6l-2.4-1c-0.3-0.1-0.6,0-0.8,0.2c-2.4,1.9-5.9,4.7-10.5,8.5c-0.2,0.2-0.3,0.5-0.2,0.7
			c0.3,0.8,0.6,1.6,0.8,2.4c0.1,0.2,0.2,0.2,0.6,0C84.7,53.8,88.9,50.4,92.8,46.8L92.8,46.8z M123.8,63.9c0.8,0.3,1.4,1,1.5,1.8
			c0.1,0.9-0.3,1.9-1,2.5l-1,1.1c-0.8,0.8-1.8,1.4-2.8,1.7c-1,0.4-2,0.3-2.9-0.1l-7.8-3.3c-0.3-0.1-0.6,0-0.8,0.2L97.1,81
			c-1.3,1.5-2.8,2.8-4.4,4c-1.4,0.8-2.9,1.3-4.5,1.5c-2.5,0-4.9-0.5-7.2-1.4c-0.1,0-0.1-0.1-0.2-0.1c-0.7-0.3-1.3-0.9-1.6-1.6
			c-0.2-0.9-0.1-1.9,0.5-2.7c0.3-0.7,0.6-1.3,0.8-2c0.1-0.3,0.3-0.6,0.6-0.8c0.4-0.4,0.8-0.7,1.2-0.9c0.7-0.4,1.6-0.4,2.4-0.1l0,0
			c0.8,0.3,1.4,0.6,1.8,0.8c0.5,0.2,0.8,0.3,1,0.5c0.4,0.2,0.7,0.3,1.1,0.2c0.3-0.1,0.6-0.3,0.8-0.6l11.6-13
			c0.2-0.2,0.2-0.5-0.1-0.6l-7.1-3.1c-0.8-0.3-1.4-1-1.5-1.8c-0.1-0.9,0.3-1.8,0.9-2.5l1-1.1c0.8-0.8,1.7-1.4,2.8-1.7
			c0.9-0.3,2-0.3,2.9,0l7.1,3.1c0.3,0.1,0.6,0,0.8-0.2l2.8-3.2c0.5-0.5,1.1-0.9,1.8-1.1c0.6-0.2,1.3-0.2,1.9,0
			c0.2,0.1,0.4,0.1,0.6,0c2.7-1,5.4-2.1,8-3.4c0.1,0,0.1-0.1,0.2-0.2c0-0.1,0-0.1-0.1-0.2l-11.6-4.9c-0.8-0.3-1.4-1-1.5-1.8
			c-0.1-0.9,0.3-1.9,1-2.5l0.8-0.9c0.8-0.8,1.8-1.4,2.8-1.7c1-0.4,2-0.3,2.9,0.1l16.7,7c0.1,0.1,0.2,0.1,0.5,0.1
			c0.3,0,0.6,0.1,0.9,0.2c0.6,0.2,1.1,0.7,1.2,1.4l0.6,1.6c0.2,0.9,0,1.8-0.6,2.5c-0.1,0.2-0.3,0.4-0.5,0.6
			c-0.6,0.6-1.3,1.1-2.1,1.5c-6.3,2.7-11.9,4.7-16.5,6.2c-0.3,0.1-0.6,0.2-0.8,0.5l-1.2,1.4c-0.2,0.2-0.2,0.5,0.1,0.6L123.8,63.9z"
			/>
		<path id="Path_7221" class="st8" d="M137.7,83.4c-0.7,0.8-1.7,1.4-2.7,1.7c-0.9,0.3-2,0.3-2.9,0l-5.2-2.1c-0.3-0.1-0.6,0-0.8,0.2
			l-1,1.1c-0.8,0.8-1.8,1.4-2.8,1.7c-1,0.4-2,0.3-2.9-0.1l-0.1-0.1c-0.8-0.3-1.4-1-1.5-1.8c-0.1-0.9,0.3-1.8,0.9-2.5L144,53
			c0.8-0.8,1.7-1.4,2.8-1.7c0.9-0.3,2-0.3,2.9,0l8.9,3.7c0.8,0.3,1.4,1,1.5,1.8c0.1,0.9-0.3,1.9-1,2.5L137.7,83.4z M153.1,102.6
			c-0.2-0.1-0.5,0-0.7,0.2l-1.9,2.1c-0.2,0.2-0.2,0.5,0,0.5l7.7,3.3c0.7,0.3,1.3,0.9,1.4,1.7c0.1,0.9-0.3,1.7-0.9,2.3
			c-0.7,0.8-1.6,1.3-2.6,1.6c-0.9,0.3-1.9,0.3-2.8,0l-22.8-9.6c-0.7-0.3-1.3-0.9-1.4-1.7c-0.1-0.9,0.3-1.7,0.9-2.3
			c0.7-0.8,1.6-1.3,2.6-1.6c0.9-0.3,1.9-0.3,2.8,0l7.1,3.1c0.2,0.1,0.5,0,0.7-0.2l1.9-2.1c0.2-0.2,0.2-0.5,0-0.5l-4.3-1.8
			c-0.7-0.3-1.3-0.9-1.4-1.7c-0.1-0.9,0.3-1.7,0.9-2.3c0.7-0.7,1.5-1.3,2.5-1.6c0.9-0.3,1.8-0.3,2.7,0l4.3,1.8
			c0.2,0.1,0.5,0,0.7-0.2l2.1-2.4c0.2-0.2,0.2-0.5,0-0.5l-7-2.7c-0.3-0.1-0.3-0.3-0.1-0.7c-5.7,5.2-12,9.8-18.8,13.5
			c-0.9,0.5-1.9,0.6-2.9,0.5c-0.2,0-0.5-0.1-0.7-0.2c-0.6-0.2-1-0.7-1.2-1.2c-0.1-0.3-0.3-0.6-0.5-0.9c-0.4-0.7-0.3-1.6,0.1-2.3
			c0.1-0.3,0.3-0.6,0.6-0.8c0.5-0.5,1-0.9,1.6-1.2c2.9-1.5,5.8-3.3,8.5-5.2c2.8-2,5.5-4.3,8-6.7c2.6-2.4,4.7-4.5,6.6-6.4
			c1.8-1.9,3.8-4.1,5.9-6.4l10.1-11.3c0.8-0.8,1.7-1.4,2.8-1.7c0.9-0.3,2-0.3,2.9,0l24.4,10.3c0.8,0.2,1.3,1,1.4,1.8
			c0.1,0.9-0.3,1.8-0.9,2.5l-6.9,7.7c-0.8,0.8-1.8,1.4-2.8,1.7c-1,0.4-2,0.3-2.9-0.1l-19.9-8.4c-0.3-0.1-0.6,0-0.8,0.2l-0.2,0.3
			l-0.7,0.8c-0.2,0.2-0.2,0.5,0.1,0.6l20.8,8.7c0.7,0.3,1.3,0.9,1.4,1.7c0.1,0.9-0.3,1.8-0.9,2.4c-0.7,0.8-1.6,1.4-2.6,1.6
			c-0.9,0.3-1.9,0.3-2.7-0.1l-0.9-0.5H174c-0.1,0-0.1,0-0.1,0.1c0,0,0,0,0,0c0,2-0.1,4-0.5,6c-0.1,0.6-0.4,1.1-0.8,1.6
			c-0.3,0.3-0.6,0.6-0.9,0.8c-0.9,0.7-1.9,1-3.1,1l-1.8,0.1c-0.6,0.1-1.2-0.1-1.6-0.6c-0.4-0.4-0.5-1-0.2-1.5c0-0.1,0-0.2-0.2-0.3
			c-2-0.7-5.3-1.9-9.9-3.6l2.3,0.9c0.8,0.2,1.3,0.9,1.4,1.7c0.1,0.9-0.3,1.8-0.9,2.4c-0.2,0.2-0.2,0.5,0,0.5l5.5,2.4
			c0.7,0.2,1.2,0.8,1.2,1.6c0.1,0.9-0.3,1.7-0.9,2.3c-0.7,0.7-1.5,1.3-2.5,1.6c-0.9,0.3-1.8,0.3-2.7,0L153.1,102.6z M149,60.7
			c0.2-0.2,0.2-0.5,0-0.6l-1.4-0.6c-0.3-0.1-0.6,0-0.8,0.2l-14.2,15.9c-0.2,0.2-0.2,0.5,0.1,0.6l1.4,0.6c0.2,0.1,0.5,0,0.7-0.2
			L149,60.7z M156.7,81l0.2-0.2c0-0.1-0.1-0.1-0.2-0.2l-2.4-1c-0.2-0.1-0.5-0.1-0.6,0.1c0,0,0,0.1-0.1,0.1c-1,1-1.8,1.9-2.5,2.5
			c-0.2,0.2-0.2,0.3,0,0.5l1.6,0.7c0.3,0.1,0.7,0,0.9-0.2C154.8,82.4,155.8,81.7,156.7,81L156.7,81z M160.5,86.1
			c-0.1,0-0.1,0.1-0.2,0.2c0,0.1,0,0.1,0.1,0.2l5.5,2.1c0.2,0.1,0.2,0,0.3-0.1c0.1-0.5,0.3-1,0.8-1.4c0.5-0.4,1.1-0.7,1.8-0.7h1
			c0.1,0,0.1,0,0.1-0.1v-0.1l-5.2-2.1c-0.3-0.1-0.6-0.1-0.8,0.1C162.8,84.8,161.7,85.4,160.5,86.1L160.5,86.1z M183.5,71.5
			c0.2-0.2,0.2-0.5-0.1-0.6L168,64.5c-0.3-0.1-0.6-0.1-0.8,0.2l-1.1,1.2c-0.2,0.2-0.2,0.5,0.1,0.6l15.4,6.4c0.3,0.1,0.6,0,0.8-0.2
			L183.5,71.5z"/>
	</g>
	<g id="Group_651" transform="translate(71.364 123.796)">
		<path id="Path_7222" class="st3" d="M24.9,25.8c-0.1-0.1-0.3,0-0.5,0.1l-2.8,3.1c-0.1,0.1-0.1,0.2,0,0.3c0,0,0,0,0,0l9.5,4.1
			c0.4,0.1,0.6,0.5,0.7,0.9c0,0.5-0.2,1-0.6,1.4c-0.4,0.4-0.9,0.8-1.5,0.9c-0.5,0.2-1.1,0.2-1.6,0L5.3,26.7c-0.4-0.2-0.7-0.6-0.7-1
			c0-0.5,0.2-1,0.6-1.4c0.4-0.4,0.9-0.8,1.5-0.9c0.5-0.2,1.1-0.2,1.6,0l9.2,4c0.1,0.1,0.2,0,0.5-0.1l2.8-3.1c0.1-0.1,0.1-0.2,0-0.3
			c0,0,0,0,0,0L14,20.9c-0.5-0.2-0.7-0.5-0.7-0.9c0-0.5,0.2-0.9,0.6-1.2c0.4-0.4,0.9-0.7,1.5-0.9c0.5-0.1,1.1-0.1,1.6,0l6.7,2.9
			c0.1,0.1,0.2,0,0.5-0.1l2.7-3.1c0.1-0.1,0.1-0.2,0-0.3c0,0,0,0,0,0l-5-2.1c-0.4-0.2-0.7-0.6-0.8-1c0-0.5,0.2-1.1,0.6-1.5l0.5-0.5
			v-0.1h-0.1l-2.7,0.3c-0.4,0-0.8,0-1.1-0.1c-0.1-0.1-0.2-0.1-0.5-0.2c-0.4-0.3-0.5-0.8-0.5-1.2v-0.2c0.1-0.4,0.2-0.7,0.5-1l0.2-0.2
			c0.4-0.4,1-0.7,1.6-0.7c3.1-0.3,6.2-0.8,9.2-1.6c2.9-0.7,5.8-1.6,8.6-2.7c1.3-0.6,2.7-0.7,4.1-0.2l0.2,0.1
			c1.1,0.4,1.8,1.5,1.6,2.6c-0.2,2.3,0,4.6,0.6,6.9c0.4,2.1,1.2,4.1,2.4,6c0.2,0.4,0.1,0.9-0.1,1.2c-0.1,0.1-0.2,0.2-0.2,0.3
			c-0.2,0.3-0.6,0.6-1,0.7l-0.7,0.3c-0.6,0.2-1.2,0.3-1.8,0.2c-0.2,0-0.3-0.1-0.5-0.1c-0.3-0.1-0.5-0.3-0.7-0.6l-0.7-1.7h-0.1
			c-0.1,0-0.1,0-0.1,0.1l-0.3,0.5c-0.5,0.4-1,0.8-1.6,1c-0.5,0.2-1.2,0.2-1.7,0l-5.2-2.3c-0.1-0.1-0.3,0-0.5,0.1l-2.7,3.1
			C28,22.8,28,22.9,28,23c0,0,0,0,0,0l6.8,2.9c0.5,0.2,0.7,0.5,0.7,0.9c0,0.5-0.2,1-0.6,1.2c-0.4,0.4-0.9,0.7-1.5,0.9
			c-0.5,0.1-1.1,0.1-1.6,0L24.9,25.8z M24.2,11.8L24.2,11.8l-0.1,0.1l15.3,6.6h0.1v-0.1C38.4,15,38,11.4,38.4,7.9
			c0-0.1,0-0.1-0.1-0.1c0,0,0,0,0,0H38C33.6,9.6,29,11,24.2,11.8L24.2,11.8z"/>
		<path id="Path_7223" class="st3" d="M52.5,42.2c-0.1,0.1-0.1,0.2,0,0.3c0,0,0,0,0,0l10.1,4.3c0.5,0.2,0.7,0.5,0.7,0.9
			c0,0.5-0.2,1-0.6,1.4c-0.4,0.4-0.9,0.8-1.5,0.9c-0.5,0.1-1.1,0.1-1.6,0L35.5,39.6c-0.5-0.2-0.7-0.5-0.7-0.9c0-0.5,0.2-1,0.6-1.4
			c0.4-0.4,0.9-0.8,1.5-0.9c0.5-0.1,1.1-0.1,1.6,0l9.7,4.2c0.1,0.1,0.3,0,0.5-0.1l1.7-1.8c0.1-0.1,0.1-0.2,0-0.3c0,0,0,0,0,0l-7-3.1
			c-0.5-0.2-0.7-0.5-0.7-0.9c0-0.5,0.2-0.9,0.6-1.2c0.4-0.4,0.9-0.7,1.5-0.9c0.5-0.1,1-0.1,1.5,0l7,3.1c0.1,0.1,0.3,0,0.5-0.1l1.8-2
			c0.1-0.1,0.1-0.2,0-0.3c0,0,0,0,0,0c-0.6-0.2-1.7-0.7-3.5-1.4c-1.8-0.7-3.2-1.2-4-1.6h-0.1c-0.4-0.1-0.7-0.5-0.8-0.9
			c0-0.5,0.2-1.1,0.6-1.5c0.4-0.4,0.8-0.7,1.4-0.9c0.5-0.2,1.1-0.2,1.6,0l2.6,1c0.1,0.1,0.3,0.1,0.5,0c1.4-0.8,2.5-1.4,3.4-1.9
			c0.1,0,0.1-0.1,0.1-0.1c0-0.1-0.1-0.1-0.1-0.1l-2.5-1c-0.4-0.2-0.7-0.6-0.8-1c0-0.5,0.2-1.1,0.6-1.5l0.2-0.2
			c0.1-0.1,0.1-0.2,0-0.3c0,0,0,0,0,0l-1.4-0.6c-0.4-0.2-0.7-0.6-0.8-1c0-0.5,0.2-1.1,0.6-1.5l2.5-2.8c0.5-0.4,1-0.8,1.6-1
			c0.5-0.2,1.2-0.2,1.7,0l9.5,4.1c0.1,0.1,0.2,0,0.5-0.1c0.5-0.4,1-0.8,1.6-1c0.6-0.2,1.1-0.2,1.7,0l0.2,0.1c0.4,0.2,0.7,0.6,0.8,1
			c0,0.5-0.2,1.1-0.6,1.5c-0.1,0.1-0.1,0.2,0,0.3c0,0,0,0,0,0l9.7,4.2c0.4,0.2,0.7,0.6,0.8,1c0,0.5-0.2,1.1-0.6,1.5l-2.5,2.8
			c-0.5,0.5-1.1,0.8-1.7,1c-0.6,0.2-1.1,0.2-1.7,0l-1.4-0.6c-0.1-0.1-0.2,0-0.5,0.1l-0.2,0.2c-0.5,0.4-1,0.8-1.6,1
			c-0.5,0.2-1.2,0.2-1.7,0l-1.8-0.8h-0.1V31c0.6,1.9,1,3.9,1.1,5.9c0,0.4-0.2,0.8-0.5,1.1c0,0.1-0.1,0.1-0.1,0.2
			c-0.4,0.4-1,0.7-1.6,0.8c-0.4,0.1-0.9,0.1-1.4-0.1c-0.1,0-0.2-0.1-0.2-0.1c-0.4-0.2-0.7-0.7-0.7-1.1v-0.3c0-0.1-0.1-0.2-0.2-0.3
			l-5.9-2.4c-0.2,0-0.3,0-0.5,0.1l-1.9,2.1c-0.1,0.1-0.1,0.2,0,0.3c0,0,0,0,0,0l7.7,3.3c0.5,0.2,0.7,0.5,0.7,0.9
			c0,0.5-0.1,0.9-0.5,1.2c-0.4,0.4-0.9,0.7-1.5,0.9c-0.5,0.1-1,0.1-1.5,0l-7.7-3.3c-0.1-0.1-0.3,0-0.5,0.1L52.5,42.2z M77.2,27.3
			c0.1-0.1,0.1-0.2,0-0.3c0,0,0,0,0,0L58,18.7c-0.1-0.1-0.3,0-0.5,0.1L56,20.5c-0.1,0.1-0.1,0.2,0,0.3c0,0,0,0,0,0l19.2,8.3
			c0.1,0.1,0.3,0,0.5-0.1L77.2,27.3z M67.6,30.2L67.6,30.2c0.1-0.1,0.1-0.1,0-0.1l-6-2.6c-0.1-0.1-0.3,0-0.5,0c-0.8,0.3-2,1-3.7,1.7
			c-0.1,0-0.1,0-0.1,0.1c0,0,0,0,0,0v0.1l7.6,3.1H65l0.1-0.1v-0.2c-0.1-0.5,0.1-0.9,0.5-1.2c0.4-0.4,0.9-0.7,1.5-0.8L67.6,30.2z"/>
		<path id="Path_7224" class="st3" d="M96.2,29.7c0.3,0.1,0.7,0.2,0.8,0.5l0.3,0.8c0.2,0.4,0.2,0.9,0,1.2c-0.1,0.3-0.3,0.5-0.5,0.7
			c-0.2,0.2-0.4,0.3-0.6,0.5c-3.6,2.5-6.4,4.4-8.5,5.8c-0.1,0.1-0.3,0.3-0.3,0.5c-0.3,2.6-1.4,5-3.3,6.9c-1.8,1.9-3.5,3.1-5,3.3
			c-0.8,0.1-1.6,0.1-2.4-0.1c-0.1,0-0.2-0.1-0.3-0.1h-0.2c-0.5-0.2-0.7-0.5-0.7-0.9c-0.1-0.5,0.1-1,0.3-1.5c0.1-0.1,0.2-0.2,0.2-0.3
			c0.2-0.3,0.6-0.5,0.9-0.6c0.4-0.2,0.9-0.2,1.4-0.1c0.2,0,0.6,0.1,0.8,0c0.8-0.3,1.6-0.8,2.1-1.5c1.2-1.2,2-2.8,2.4-4.4
			c0.2-0.9,0.6-1.7,1.2-2.4c0.3-0.3,0.7-0.6,1-0.9c1.8-1.2,3.7-2.7,5.8-4.4c0.1-0.1,0.1-0.2,0-0.3c0,0,0,0,0,0l-2.3-1
			c-0.1-0.1-0.3,0-0.5,0.1L69.4,52.9c-0.4,0.5-1,0.8-1.6,1c-0.6,0.2-1.1,0.2-1.7,0c-0.4-0.2-0.7-0.6-0.8-1c0-0.5,0.2-1,0.6-1.4
			l21.1-23.3c0.5-0.4,1-0.8,1.6-1c0.5-0.2,1.2-0.2,1.7,0l5.4,2.4C96.1,29.7,96.1,29.7,96.2,29.7z M111.8,42.1c0,0.5-0.2,1-0.6,1.4
			c-0.4,0.5-1,0.8-1.6,0.9c-0.5,0.2-1.1,0.2-1.6,0l-7.8-3.4c-0.1-0.1-0.3,0-0.5,0.1c-0.8,0.8-1.7,1.8-2.9,3.1
			c-0.1,0.1-0.1,0.2,0,0.3c0,0,0,0,0,0l6.4,2.8c0.4,0.2,0.7,0.6,0.8,1c0,0.5-0.2,1-0.6,1.4c-2.8,3.1-5.9,6.2-9.3,9.3
			c-1.2,1.2-2.6,2.3-4.2,3.2c-0.6,0.2-1.3,0.4-1.9,0.5c-0.6,0-1.2,0-1.7-0.2c-0.6-0.1-1.4-0.5-2.4-0.8c-0.4-0.2-0.8-0.6-0.9-1
			c-0.1-0.6,0-1.1,0.3-1.6c0-0.1,0.1-0.2,0.2-0.3c0.1-0.1,0.1-0.2,0.2-0.3c0.2-0.2,0.5-0.4,0.8-0.6c0.4-0.2,0.8-0.2,1.2-0.1h0.1
			l1.4,0.7c0.5,0.2,1,0.2,1.5,0c0.6-0.1,1.5-0.9,2.8-2.1c1.4-1.2,3.5-3.4,6.3-6.4c0.1-0.1,0.1-0.2,0-0.3c0,0,0,0,0,0l-4.5-1.9
			c-0.1-0.1-0.3,0-0.5,0.1c-2.6,2.3-5.4,4.3-8.4,6.1c-2.8,1.5-5.8,2.5-8.9,3.1c-0.4,0-0.8,0-1.1-0.1c-0.1-0.1-0.2-0.1-0.3-0.2
			C74,56,73.9,55.5,74,55.1v-0.1c0-0.4,0.2-0.8,0.5-1l0.2-0.2c0.4-0.4,0.9-0.6,1.5-0.8c1.3-0.2,2.6-0.5,3.8-0.9
			c1.3-0.4,2.5-0.9,3.6-1.6c1.1-0.7,2.3-1.4,3.3-2c1-0.7,2-1.6,3.3-2.6c1.1-1,2.1-2,3.1-2.9c0.9-0.9,1.9-2,3.2-3.4
			c0.1-0.1,0.1-0.2,0-0.3c0,0,0,0,0,0l-2.3-1c-0.4-0.2-0.7-0.6-0.8-1c0-0.5,0.2-1,0.6-1.4c0.4-0.5,1-0.8,1.6-0.9
			c0.6-0.2,1.1-0.2,1.7,0L102,37c0.1,0.1,0.3,0,0.5-0.1l2.6-2.8c0.5-0.4,1-0.8,1.6-1c0.6-0.2,1.1-0.2,1.7,0h0.1
			c0.4,0.2,0.7,0.6,0.8,1c0,0.5-0.2,1.1-0.6,1.5l-2.6,2.8c-0.1,0.1-0.1,0.2,0,0.3c0,0,0,0,0,0l5.1,2.3
			C111.6,41.2,111.8,41.6,111.8,42.1L111.8,42.1z"/>
		<path id="Path_7225" class="st3" d="M122.1,47.8c-0.1-0.1-0.3,0-0.5,0.1l-5.1,5.5c-5.8,6.4-11.5,10.6-17,12.9
			c-0.5,0.2-1.1,0.2-1.6,0l0,0c-0.4-0.2-0.7-0.6-0.8-1l0,0c0-0.5,0.1-1.1,0.5-1.5c0-0.1,0.1-0.1,0.1-0.2c0.4-0.4,0.8-0.7,1.4-0.9
			c2.6-1.1,5.1-2.6,7.2-4.4l0.1-0.1c0,0,0-0.1-0.1,0c-0.9,0.1-1.8,0.2-2.6,0.3c-0.3,0-0.6,0-0.9-0.1c-0.1-0.1-0.3-0.2-0.5-0.3
			c-0.2-0.4-0.2-0.9,0-1.2v-0.1c0.1-0.3,0.3-0.5,0.5-0.7c0.3-0.3,0.6-0.5,0.9-0.7c0.6-0.4,1.2-0.6,1.9-0.6c0.5,0,1.9,0,4.4-0.1
			c0.2,0,0.3-0.1,0.5-0.2c1-1.1,1.8-1.9,2.4-2.6l0.6-0.6v-0.1c0-0.1,0-0.1-0.1-0.1c0,0,0,0,0,0l-1.2,0.1c-0.3,0-0.5,0-0.8-0.1
			c-0.2-0.1-0.3-0.2-0.5-0.3c-0.2-0.4-0.2-0.9,0-1.2c0.6-1,1-2.1,1.5-3.2l0.3-0.7c0.1-0.2,0.3-0.4,0.6-0.5c0.4-0.3,0.9-0.5,1.5-0.5
			c0.3,0,0.5,0,0.8,0.1c0.1,0.1,0.3,0.1,0.5,0.3c0.3,0.3,0.4,0.7,0.2,1.1c-0.4,1.3-1,2.6-1.7,3.8l0,0l4.7-5.3c0.5-0.4,1-0.8,1.6-1
			c0.5-0.2,1.2-0.2,1.7,0l7.2,3.2c0.1,0.1,0.3,0,0.5-0.1l1-1.1c0.5-0.4,1-0.8,1.6-1c0.6-0.2,1.1-0.2,1.7,0l0.3,0.1
			c0.4,0.2,0.7,0.6,0.8,1c0,0.5-0.2,1.1-0.6,1.5l-1,1.1c-0.1,0.1-0.1,0.2,0,0.3c0,0,0,0,0,0l8.9,3.8c0.4,0.1,0.6,0.5,0.7,0.9
			c0,0.5-0.2,1-0.6,1.4c-0.4,0.4-0.9,0.8-1.5,0.9c-0.5,0.2-1.1,0.2-1.6,0L122.1,47.8z M128.1,64.1c0.1,0,0.3,0.1,0.5,0.1
			c0.3,0.1,0.5,0.3,0.7,0.5l0.3,0.6c0.2,0.2,0.2,0.6,0.1,1c-0.1,0.2-0.2,0.3-0.3,0.5c-0.1,0.2-0.3,0.4-0.6,0.5
			c-2.8,1.6-5.8,2.8-8.9,3.5c-0.1,0-0.1,0-0.1,0.1v0.1c1.4,1.4,3,2.6,4.7,3.5c0.3,0.1,0.4,0.5,0.3,0.8c0,0,0,0.1-0.1,0.1
			c-0.1,0.1-0.1,0.3-0.3,0.5c-0.2,0.2-0.4,0.4-0.7,0.5c-0.1,0.1-0.3,0.1-0.5,0.2c-0.7,0.4-1.4,0.6-2.1,0.6c-0.5,0.1-0.9,0-1.4-0.2
			c-0.1,0-0.2-0.1-0.3-0.2c-2.1-1.3-4-3.1-5.4-5.2c0-0.1-0.2-0.2-0.3-0.2c-2.9,0-5.8-0.3-8.6-0.9c-0.1,0-0.3-0.1-0.5-0.1
			c-0.3-0.1-0.6-0.4-0.8-0.7c-0.2-0.5-0.3-1-0.1-1.5l0.3-0.7c0.3-0.3,0.6-0.5,1-0.6c0.3-0.1,0.6-0.1,0.9,0c2.1,0.5,4.2,0.9,6.3,1
			c0.1,0,0.1,0,0.2-0.1l0.1-0.1c-0.1-1.1-0.1-2.1,0-3.2c0.1-0.3,0.2-0.6,0.5-0.8c0.2-0.2,0.4-0.3,0.6-0.5c0.5-0.3,1-0.4,1.6-0.3
			l0.5,0.1l0,0l-2.1-0.9c-0.5-0.2-0.7-0.5-0.7-0.9c0-0.5,0.2-0.9,0.5-1.2l1.1-1.2c0.1-0.1,0.2-0.1,0.3-0.1l0,0
			c0.1-0.4,0.1-0.9,0.1-1.4c0-0.3,0.1-0.6,0.3-0.8c0.1-0.1,0.2-0.2,0.3-0.2c0.4-0.3,0.9-0.5,1.5-0.6c1,0,2.1-0.2,3.1-0.6
			c0.8-0.4,1.5-0.9,2-1.6l0.8-0.9c0.5-0.5,1.1-0.8,1.7-1c0.6-0.2,1.1-0.2,1.7,0l7.9,3.4c0.4,0.2,0.7,0.6,0.8,1
			c0,0.5-0.2,1.1-0.6,1.5l-2.1,2.4c-0.2,0.2-0.4,0.4-0.6,0.7c0,0.1,0.1,0.2,0.3,0.3l1.1,0.5c0.2,0.1,0.4,0.1,0.6,0
			c0.3-0.2,0.6-0.4,0.9-0.7c0.3-0.3,0.8-0.5,1.2-0.6c0.2,0,0.5,0,0.7,0.1c0.1,0.1,0.2,0.1,0.3,0.2c0.3,0.3,0.5,0.8,0.3,1.2
			c-0.1,0.4-0.3,0.7-0.6,1l-0.3,0.3c-0.8,0.7-1.8,1.3-2.8,1.6c-0.8,0.2-1.7,0.1-2.5-0.3l-2.3-0.9c-1.4-0.6-2-1.2-2-1.9
			c0-0.7,0.6-1.7,1.8-3.2l0.9-1c0.1-0.1,0.1-0.2,0-0.3c0,0,0,0,0,0l-4.1-1.7c-0.1-0.1-0.2,0-0.5,0.1c-2.3,2.4-5.4,3.7-8.7,3.6l0,0
			v0.1l11.5,5C128,64.1,128,64.1,128.1,64.1z M123,66.2l0.1-0.1V66l-5.8-2.5h-0.2l-0.1,0.1c-0.3,1.2-0.2,2.5,0.2,3.7
			c0.1,0.1,0.2,0.2,0.3,0.1C119.4,67.3,121.3,66.9,123,66.2L123,66.2z"/>
		<path id="Path_7226" class="st3" d="M155,81.7c-0.1-0.1-0.3,0-0.5,0.1l-2.8,3.1c-0.1,0.1-0.1,0.2,0,0.3c0,0,0,0,0,0l9.5,4.1
			c0.4,0.1,0.6,0.5,0.7,0.9c0,0.5-0.2,1-0.6,1.4c-0.4,0.4-0.9,0.8-1.5,0.9c-0.5,0.2-1.1,0.2-1.6,0l-22.9-9.8c-0.4-0.2-0.7-0.6-0.7-1
			c0-0.5,0.2-1,0.6-1.4c0.4-0.4,0.9-0.8,1.5-0.9c0.5-0.2,1.1-0.2,1.6,0l9.2,4c0.1,0.1,0.2,0,0.5-0.1l2.8-3.1c0.1-0.1,0.1-0.2,0-0.3
			c0,0,0,0,0,0l-6.7-2.9c-0.5-0.2-0.7-0.5-0.7-0.9c0-0.5,0.2-1,0.6-1.2c0.4-0.4,0.9-0.7,1.5-0.9c0.5-0.1,1.1-0.1,1.6,0l6.7,2.9
			c0.1,0.1,0.2,0,0.5-0.1l2.7-3.1c0.1-0.1,0.1-0.2,0-0.3c0,0,0,0,0,0l-5-2.1c-0.4-0.2-0.7-0.6-0.8-1c0-0.5,0.2-1.1,0.6-1.5l0.5-0.5
			v-0.1H152l-2.7,0.3c-0.4,0-0.8,0-1.1-0.1c-0.1-0.1-0.2-0.1-0.5-0.2c-0.4-0.3-0.5-0.8-0.5-1.2v-0.2c0.1-0.4,0.2-0.7,0.5-1l0.2-0.2
			c0.4-0.4,1-0.7,1.6-0.7c3.1-0.3,6.2-0.8,9.2-1.6c2.9-0.7,5.8-1.6,8.6-2.7c1.3-0.6,2.7-0.7,4.1-0.2l0.2,0.1
			c1.1,0.4,1.8,1.5,1.6,2.6c-0.2,2.3,0,4.6,0.6,6.9c0.4,2.1,1.2,4.1,2.4,6c0.2,0.4,0.1,0.9-0.1,1.2c-0.1,0.1-0.2,0.2-0.2,0.3
			c-0.2,0.3-0.6,0.6-1,0.7l-0.7,0.3c-0.6,0.2-1.2,0.3-1.8,0.2c-0.2,0-0.3-0.1-0.5-0.1c-0.3-0.1-0.5-0.3-0.7-0.6l-0.7-1.7h-0.1
			c-0.1,0-0.1,0-0.1,0.1l-0.3,0.5c-0.5,0.4-1,0.8-1.6,1c-0.5,0.2-1.2,0.2-1.7,0l-5.2-2.3c-0.1-0.1-0.3,0-0.5,0.1l-2.7,3.1
			c-0.1,0.1-0.1,0.2,0,0.3c0,0,0,0,0,0l6.8,2.9c0.5,0.2,0.7,0.5,0.7,0.9c0,0.5-0.2,0.9-0.6,1.2c-0.4,0.4-0.9,0.7-1.5,0.9
			c-0.5,0.1-1.1,0.1-1.6,0L155,81.7z M154.3,67.7L154.3,67.7l-0.1,0.1l15.3,6.6h0.1v-0.1c-1.1-3.4-1.5-6.9-1.1-10.4
			c0-0.1,0-0.1-0.1-0.1c0,0,0,0,0,0h-0.2C163.7,65.6,159.1,67,154.3,67.7L154.3,67.7z"/>
		<path id="Path_7227" class="st3" d="M168.6,96.2c-0.6,0.2-1.3,0.3-2,0.2c-0.2,0-0.5-0.1-0.7-0.2c-0.3-0.1-0.6-0.3-0.8-0.6
			l-0.1-0.1c-0.2-0.3-0.2-0.8,0-1.1c0.1-0.1,0.1-0.2,0.2-0.3c0.2-0.3,0.6-0.6,1-0.7c1.3-0.5,2.6-1.1,3.8-1.7
			c0.6-0.3,1.3-0.5,1.9-0.6c0.4,0,0.8,0,1.1,0.1c0.1,0.1,0.3,0.2,0.5,0.3l0.1,0.1c0.3,0.3,0.5,0.8,0.3,1.2l-0.3,0.7
			c-0.2,0.2-0.5,0.3-0.7,0.6C171.5,94.9,170.1,95.6,168.6,96.2z M198,96.3l0.3,0.1c0.1,0.1,0.3,0.1,0.5,0c0.4-0.2,0.7-0.5,1-0.9
			c0.5-0.3,1-1,2-2c0.3-0.2,0.6-0.4,0.9-0.5c0.3,0,0.5,0.1,0.7,0.3c0.2,0.3,0.3,0.7,0.2,1.1c-0.1,0.4-0.3,0.7-0.6,1
			c-0.9,1-1.8,1.9-2.9,2.7c-0.7,0.6-1.4,0.9-2.3,1.1c-0.7,0.1-1.4,0-2-0.2l-1.4-0.6c-0.7-0.2-1.2-0.9-1.4-1.6c0-0.5,0.2-1,0.5-1.4
			c0.6-0.8,1.2-1.6,1.9-2.3l1.8-1.9v-0.1h-0.1l-0.9,0.5c-0.5,0.3-1,0.4-1.6,0.2c-0.1,0-0.2,0-0.3-0.1c-0.3-0.1-0.5-0.3-0.6-0.7
			c0-0.1-0.1-0.3-0.1-0.5c0-0.1-0.1-0.1-0.3,0c-2.1,1.5-4.4,2.7-6.9,3.5c-0.5,0.2-1,0.2-1.5,0c-0.1,0-0.1,0-0.1-0.1c0,0,0,0,0,0
			c-0.4-0.2-0.7-0.6-0.7-1.1v-0.3h-0.1c-4.5-1.4-8.8-2.7-12.9-4c-0.1,0-0.1,0-0.1-0.1c-0.3-0.1-0.6-0.4-0.6-0.8
			c-0.1-0.5,0.1-1,0.5-1.4c0.4-0.4,0.8-0.6,1.2-0.8c0.5-0.2,1-0.2,1.5-0.1c1.2,0.5,2.6,0.9,4,1.4c0.1,0.1,0.3,0,0.5-0.1l1.2-1.4
			c0.1-0.1,0.1-0.2,0-0.3c0,0,0,0,0,0l-3.1-1.4c-0.3-0.1-0.6-0.4-0.6-0.8c0-0.4,0.2-0.8,0.5-1c0.3-0.3,0.7-0.6,1.1-0.7
			c0.4-0.1,0.8-0.1,1.2,0l3.1,1.4c0.1,0,0.2,0,0.3-0.1c0.4-0.4,0.8-0.7,1.4-0.8c0.5-0.1,1-0.1,1.5,0l1.4,0.6h0.1v-0.1
			c-0.1-0.6,0.3-1.4,1.5-2.6l0.9-1c0.1-0.1,0.1-0.2,0-0.3c0,0,0,0,0,0l-1.1-0.5c-0.1-0.1-0.3,0-0.5,0.1c-1,0.9-2.2,1.6-3.5,2.1
			c-1.3,0.5-2.7,0.6-4.1,0.5c-0.2,0-0.4,0-0.6-0.1c-0.2-0.1-0.3-0.2-0.5-0.3c-0.2-0.3-0.3-0.7-0.2-1.1c0-0.3,0.2-0.6,0.6-0.8
			c0.3-0.2,0.7-0.3,1-0.3c0.8,0.1,1.6,0,2.4-0.1c0.7-0.2,1.3-0.6,1.9-1l0.1-0.1c0-0.1,0-0.1-0.1-0.1l-1.6-0.7
			c-0.4-0.1-0.6-0.4-0.6-0.8c0-0.4,0.2-0.8,0.5-1c0.3-0.3,0.7-0.6,1.1-0.7c0.4-0.1,0.8-0.1,1.2,0l3.7,1.6c0.1,0.1,0.2,0,0.5-0.1
			l0.9-1c0.1-0.1,0.1-0.2,0-0.3c0,0,0,0,0,0l-2.6-1.1c-0.3-0.1-0.6-0.4-0.6-0.7c0-0.4,0.2-0.8,0.5-1c0.3-0.3,0.7-0.6,1.1-0.7
			c0.4-0.1,0.8-0.1,1.2,0l2.7,1.1c0.1,0,0.2,0,0.3-0.1c0.3-0.4,0.8-0.7,1.4-0.8c0.4-0.1,0.9-0.1,1.4,0l0.3,0.1
			c0.5,0.2,0.7,0.5,0.7,0.9c0,0.5-0.2,0.9-0.5,1.2c-0.1,0.1-0.1,0.2,0,0.2l2.7,1.1c0.3,0.1,0.6,0.4,0.6,0.7c0,0.4-0.2,0.8-0.5,1
			c-0.3,0.3-0.7,0.6-1.1,0.7c-0.4,0.1-0.8,0.1-1.2,0l-2.6-1.1c-0.1-0.1-0.2,0-0.5,0.1l-0.9,1c-0.1,0.1-0.1,0.2,0,0.3c0,0,0,0,0,0
			l3.5,1.5c0.4,0.1,0.6,0.4,0.6,0.8c0,0.4-0.2,0.8-0.5,1c-0.3,0.3-0.7,0.6-1.1,0.7c-0.4,0.1-0.8,0.1-1.2,0l-1.9-0.8
			c-0.1-0.1-0.3,0-0.5,0.1l-0.9,1c-0.2,0.1-0.3,0.3-0.3,0.6c0,0.1,0.1,0.1,0.2,0.2l0.7,0.3c0.2,0.1,0.5,0,0.7-0.1
			c0.3-0.2,0.6-0.3,0.9-0.3c0.3,0,0.6,0,0.8,0.2c0.2,0.2,0.3,0.6,0.2,0.9c-0.1,0.4-0.3,0.7-0.7,0.9c-0.5,0.4-1.1,0.7-1.8,0.9
			c-0.6,0.1-1.2,0-1.7-0.3l-1.6-0.7c-0.4-0.1-0.8-0.4-1.1-0.7c-0.1-0.1-0.2-0.1-0.3,0c0,0,0,0,0,0l-1,1.1c-0.1,0.1-0.1,0.2,0,0.3
			c0,0,0,0,0,0l2.7,1.1c0.4,0.1,0.6,0.4,0.6,0.8c0,0.4-0.2,0.8-0.5,1c-0.3,0.3-0.7,0.6-1.1,0.7c-0.4,0.1-0.8,0.1-1.2,0l-2.7-1.1
			c-0.1-0.1-0.3,0-0.5,0.1l-1,1.1c-0.1,0.1-0.1,0.2,0,0.3c0,0,0,0,0,0c0.6,0.1,1.2,0.5,2.1,0.7c0.9,0.3,1.6,0.6,1.9,0.7
			c0.2,0.1,0.4,0.3,0.5,0.5c0,0.2-0.1,0.5-0.2,0.7l0,0c2.4-0.8,4.7-2,6.7-3.6c0.1-0.1,0.2-0.2,0.2-0.3c-0.1-0.5-0.2-0.8-0.3-1.1
			c-0.1-0.4-0.1-0.9,0.1-1.2c0.1-0.2,0.2-0.3,0.3-0.5c0.2-0.2,0.6-0.5,0.8-0.7c0.5-0.2,1-0.3,1.6-0.3c0.2,0,0.3,0.1,0.5,0.1
			c0.2,0.1,0.4,0.3,0.5,0.6l0,0c0.1,0,0.1,0,0.1,0.1c0,0,0,0,0,0h0.1c0.8-0.7,1.5-1.4,2.1-2.1c0.1-0.1,0.1-0.2,0-0.3c0,0,0,0,0,0
			l-0.8-0.3c-0.5-0.2-0.7-0.5-0.7-0.9c0-0.5,0.2-1,0.6-1.4c0.4-0.4,0.9-0.8,1.5-0.9c0.5-0.1,1.1-0.1,1.6,0l0.8,0.3
			c0.1,0.1,0.3,0,0.5-0.1c0.8-0.8,1.4-1.5,1.9-2c0.4-0.4,0.9-0.7,1.5-0.9c0.5-0.2,1.1-0.2,1.6,0c0.4,0.2,0.7,0.6,0.7,1
			c0,0.5-0.2,1-0.6,1.4c-0.5,0.5-1,1.1-1.9,2c-0.1,0.1-0.1,0.2,0,0.3c0,0,0,0,0,0l2.9,1.2c0.4,0.2,0.7,0.6,0.8,1
			c0,0.5-0.2,1.1-0.6,1.5l-9.7,10.7c-0.4,0.3-0.8,0.8-1,1.2C197.5,95.7,197.7,96,198,96.3L198,96.3z M175.5,95.5l0.2-0.2
			c0.3-0.4,0.8-0.6,1.2-0.8c0.5-0.3,1.1-0.3,1.7-0.1c0.1,0,0.1,0,0.2,0.1c0.4,0.1,0.7,0.4,0.8,0.8c0.1,0.5,0,1-0.3,1.4
			c-0.5,0.7-0.9,1.4-1.4,1.9c0,0.1-0.1,0.1-0.2,0.2c-0.4,0.4-0.8,0.7-1.4,0.9c-0.6,0.2-1.2,0.2-1.8,0.1h-0.1c-0.1,0-0.2,0-0.2-0.1
			c-0.3-0.1-0.6-0.4-0.7-0.8c-0.1-0.5,0.1-1,0.5-1.4C174.4,96.9,175,96.2,175.5,95.5L175.5,95.5z M182,98.2c0.1-0.2,0.2-0.3,0.3-0.5
			c0.3-0.3,0.6-0.5,0.9-0.7c0.5-0.2,1-0.3,1.6-0.2c0.1,0,0.2,0.1,0.3,0.1c0.4,0.1,0.7,0.4,0.8,0.8c0.2,0.5,0.2,1-0.1,1.5
			c-0.3,0.7-0.7,1.5-1.1,2.1c-0.1,0.2-0.2,0.3-0.3,0.5c-0.2,0.3-0.6,0.6-1,0.7c-0.6,0.3-1.2,0.4-1.8,0.2h-0.2
			c-0.1,0-0.2-0.1-0.3-0.1c-0.4-0.1-0.6-0.4-0.7-0.8c-0.2-0.5-0.1-1,0.2-1.4C181.1,99.8,181.6,99,182,98.2L182,98.2z M188.8,100.8
			c0.1-0.3,0.2-0.6,0.5-0.8l0.5-0.5c0.5-0.3,1-0.5,1.6-0.5h0.2c0.3,0,0.6,0.1,0.8,0.2c0.3,0.1,0.5,0.3,0.7,0.5
			c0.4,0.3,0.5,0.9,0.5,1.4c-0.2,1.4-0.3,2.5-0.6,3.5c-0.1,0.3-0.2,0.6-0.5,0.8c-0.1,0.2-0.3,0.4-0.6,0.5c-0.5,0.3-1.1,0.5-1.7,0.5
			h-0.5c-0.2,0-0.5-0.1-0.7-0.2c-0.3-0.1-0.5-0.3-0.7-0.5c-0.3-0.4-0.4-1-0.2-1.5C188.3,103.2,188.6,102.1,188.8,100.8L188.8,100.8z
			 M203.8,84.3c0.1-0.1,0.1-0.2,0-0.3c0,0,0,0,0,0l-1.4-0.6c-0.1-0.1-0.3,0-0.5,0.1c-1.6,1.6-2.9,2.9-4.1,3.8
			c-0.1,0.1-0.2,0.3-0.1,0.5c0.2,0.7,0.4,1.5,0.6,2.3c0,0.1,0,0.1,0.1,0.1c0,0,0,0,0,0c0.1,0,0.1,0,0.1-0.1L203.8,84.3z"/>
		<path id="Path_7228" class="st3" d="M223.5,102.1c0.6-0.3,1.2-0.5,1.9-0.6c0.5,0,0.8,0,1,0.2c0.1,0.1,0.3,0.2,0.5,0.3l0.3,0.3
			c0.4,0.3,0.4,0.8,0.2,1.2c-0.1,0.3-0.3,0.5-0.5,0.7c-0.2,0.2-0.5,0.4-0.8,0.6c-2.7,1.5-5.6,2.8-8.6,3.6c-0.2,0-0.3,0.1-0.2,0.2
			c1.2,3.2,3.4,5.9,6.2,7.9c0.3,0.2,0.3,0.6,0.2,1c-0.1,0.1-0.1,0.3-0.3,0.5c-0.2,0.2-0.5,0.4-0.8,0.6c-0.2,0.1-0.6,0.2-0.8,0.3
			c-0.6,0.3-1.3,0.5-2,0.5c-0.4,0-0.8-0.1-1.1-0.2c-0.2-0.1-0.3-0.2-0.5-0.2c-3.3-2.7-5.3-5.7-6.1-8.9c0-0.1-0.1-0.2-0.3-0.2
			c-4.7,0.8-9.5,0.8-14.2,0.2c-0.2,0-0.5-0.1-0.7-0.2c-0.3-0.1-0.5-0.3-0.7-0.6c-0.2-0.4-0.3-1-0.2-1.5c0-0.2,0-0.5,0.1-0.7
			c0-0.3,0.1-0.5,0.3-0.7c0.1-0.1,0.3-0.3,0.5-0.3c0.4-0.3,1-0.5,1.5-0.3c4.3,0.8,8.7,0.9,13.1,0.3c0.2,0,0.3-0.1,0.3-0.2
			c0.1-2.2,0.6-4.5,1.4-6.6c0.1-0.3,0.3-0.5,0.5-0.7c0.2-0.2,0.4-0.4,0.7-0.6c0.5-0.3,1.1-0.4,1.7-0.3h0.1c0.2,0,0.5,0.1,0.7,0.1
			c0.3,0.2,0.5,0.3,0.7,0.6c0.3,0.4,0.3,0.9,0.1,1.4c-0.5,1.6-0.8,3.3-0.8,5c0,0.1,0.1,0.2,0.3,0.1
			C219.4,104.1,221.5,103.2,223.5,102.1z M218.1,92.2c0.6-0.2,1.3-0.3,2-0.2c0.2,0,0.5,0.1,0.7,0.2c0.3,0.1,0.6,0.3,0.8,0.6l0.3,0.3
			c0.2,0.3,0.2,0.8,0,1.1c-0.1,0.1-0.1,0.2-0.2,0.3c-0.3,0.3-0.6,0.5-1,0.6c-3.4,1.1-6.9,2-10.5,2.5c-0.5,0.1-1,0-1.5-0.1
			c-0.1,0-0.1-0.1-0.2-0.1c-0.4-0.2-0.7-0.7-0.8-1.1c0-0.2,0-0.5-0.1-0.7c-0.1-0.3,0.1-0.7,0.3-1c0.4-0.4,1-0.7,1.6-0.8
			C212.4,93.6,215.3,93.1,218.1,92.2L218.1,92.2z M228.4,98.8c-0.1-0.4,0-0.9,0.3-1.2c0.4-0.4,0.9-0.7,1.5-0.8l2.1-0.3
			c0.1,0,0.1,0,0.1-0.1v-0.1L215,88.7c-0.4-0.2-0.7-0.6-0.8-1c0-0.5,0.2-1.1,0.6-1.5l0,0c0.5-0.4,1-0.8,1.6-1c0.5-0.2,1.2-0.2,1.7,0
			l9.6,4.2c0.1,0.1,0.2,0,0.3-0.1l1.4-1.5c0.5-0.5,1.1-0.8,1.7-1c0.6-0.2,1.1-0.2,1.7,0l0.2,0.1c0.4,0.2,0.7,0.6,0.8,1
			c0,0.5-0.2,1.1-0.6,1.5l-1.4,1.5c-0.1,0.1-0.1,0.2,0,0.3c0,0,0,0,0,0l9.8,4.2c0.4,0.2,0.7,0.6,0.8,1c0,0.5-0.2,1.1-0.6,1.5l0,0
			c-0.5,0.5-1.1,0.8-1.7,1c-0.6,0.2-1.1,0.2-1.7,0l-5.5-2.4h-0.1c0,0-0.1,0,0,0.1c0.9,2.5,1.6,5.1,2,7.8c0,0.5-0.1,0.9-0.5,1.2
			c-0.5,0.5-1,0.8-1.7,0.9l-0.8,0.1c-0.5,0.1-1,0.1-1.5-0.1c-0.1,0-0.1-0.1-0.2-0.1c-0.4-0.2-0.7-0.7-0.7-1.1
			C229.4,103.1,229,100.9,228.4,98.8L228.4,98.8z"/>
		<path id="Path_7229" class="st3" d="M245.4,110.2c0.2,0,0.3,0.1,0.5,0.1c0.2,0.1,0.4,0.3,0.6,0.6c0.1,0.4,0.1,0.9-0.2,1.2
			l-0.2,0.2c-0.3,0.4-0.8,0.7-1.2,0.9c-0.5,0.3-1.2,0.4-1.8,0.3c-0.6-0.1-1-0.1-1.5-0.2c-0.2,0-0.3,0-0.5,0.2l-6.7,7.3
			c-0.6,0.7-1.3,1.3-2,1.9c-0.6,0.4-1.3,0.6-2,0.7c-1,0.1-2.1-0.1-3.1-0.5h-0.1c-0.4-0.1-0.7-0.5-0.8-0.9c-0.1-0.6,0-1.1,0.3-1.6
			l0.3-0.3c0.3-0.3,0.6-0.5,0.9-0.7c0.5-0.2,1-0.2,1.5-0.1c0.3,0.1,0.5,0.2,0.8,0.3c0.1,0.1,0.3,0.1,0.5,0.1c0.2,0,0.4-0.2,0.5-0.3
			l5.9-6.4c0-0.1,0-0.1,0.1-0.1c0,0,0,0,0,0l-0.1-0.1c-0.3,0-0.8-0.1-1.2-0.1c-0.2,0-0.3-0.1-0.6-0.1c-0.3-0.2-0.5-0.3-0.7-0.6
			c-0.2-0.5-0.1-1,0.2-1.4v-0.1c0.1-0.1,0.2-0.3,0.3-0.5c0.3-0.3,0.7-0.6,1.1-0.8c0.5-0.3,1.2-0.4,1.8-0.3c0.3,0,0.7,0.1,1,0.2
			c0.3,0.1,0.7,0.1,1,0.2c0.2,0,0.3,0,0.5-0.2l4.3-4.7c0.1-0.1,0.1-0.2,0-0.3c0,0,0,0,0,0l-1.4-0.6c-0.4-0.2-0.7-0.6-0.8-1
			c0-0.5,0.2-1,0.6-1.4c0.4-0.5,1-0.8,1.6-0.9c0.5-0.2,1.1-0.2,1.6,0l1.4,0.6c0.1,0.1,0.2,0,0.5-0.1l3.5-3.8c0.4-0.5,1-0.8,1.6-0.9
			c0.5-0.1,1.1-0.1,1.6,0c0.4,0.2,0.7,0.6,0.8,1c0,0.5-0.2,1-0.6,1.4l-3.5,3.8c-0.1,0.1-0.1,0.2,0,0.3c0,0,0,0,0,0l1.9,0.8
			c0.2,0.1,0.2,0.2,0.2,0.3c0,0.2-0.1,0.3-0.2,0.5v0.1l0,0c2.9-0.6,5.7-1.6,8.4-3.1c0.6-0.3,1.2-0.5,1.9-0.6c0.4-0.1,0.8,0,1.2,0.1
			c0.1,0,0.2,0.1,0.3,0.2l0,0c0.3,0.2,0.5,0.6,0.3,1l-0.3,0.7c-0.1,0.2-0.3,0.4-0.6,0.5l-0.1,0.1v0.1l3.5,1.5h0.1
			c0.3,0,0.6,0.2,0.8,0.6l0.3,0.8c0.1,0.4,0.1,0.8-0.1,1.1c-0.1,0.1-0.2,0.3-0.3,0.5c-0.2,0.2-0.5,0.4-0.8,0.6
			c-1,0.6-2.1,1.1-3.4,1.7c-0.1,0-0.1,0-0.1,0.1c0,0,0,0,0,0v0.1l4,1.7c0.4,0.2,0.7,0.6,0.8,1c0,0.5-0.2,1.1-0.6,1.5l-6,6.6
			c-0.4,0.4-0.9,0.7-1.5,0.9c-0.5,0.1-1,0.1-1.5,0c-0.5-0.2-0.7-0.5-0.7-0.9c0-0.5,0.2-0.9,0.6-1.2l0.7-0.7c0.1-0.1,0.1-0.2,0-0.3
			c0,0,0,0,0,0l-1.9-0.8c-1.1-0.5-1.7-1-1.7-1.6c0-0.6,0.5-1.4,1.5-2.5l1.5-1.6c0.1-0.1,0.1-0.2,0-0.3c0,0,0,0,0,0l-0.8-0.3
			c-0.1-0.1-0.3,0-0.5,0.1c-1.7,1.7-3.9,2.9-6.2,3.4c-0.3,0.1-0.7,0.1-1-0.1c-0.1,0-0.2-0.1-0.2-0.2c-0.3-0.3-0.5-0.7-0.5-1.1v-0.1
			h-0.1l-1.4,1.5c-0.4,0.4-0.8,0.7-1.4,0.9c-0.5,0.1-1,0.1-1.5,0c-0.5-0.2-0.7-0.5-0.7-0.9c0-0.5,0.2-0.9,0.5-1.2l6-6.6
			c0.1-0.1,0.2-0.3,0.2-0.5c0-0.4,0-0.8-0.1-1.1H252c-0.3,0.3-0.7,0.6-1.1,0.7c-0.4,0.1-0.8,0.1-1.2,0l-1.4-0.6
			c-0.1-0.1-0.3,0-0.5,0.1l-3.5,3.8c0,0.1-0.1,0.1,0,0.1l0.1,0.1L245.4,110.2z M260.8,124.2c0,0.5-0.2,0.9-0.5,1.2
			c-0.3,0.4-0.8,0.7-1.4,0.8c-0.5,0.1-1,0.1-1.5,0l-5.1-2.1h-0.2c-0.1,0-0.1,0-0.1,0.1c0,0,0,0,0,0c-0.5,2.2,0.3,4.6,2.1,6
			c0.3,0.2,0.3,0.6,0.2,1c-0.1,0.1-0.2,0.3-0.3,0.5c-0.2,0.2-0.5,0.4-0.8,0.6c-0.1,0-0.1,0-0.1,0.1c0,0,0,0,0,0
			c-0.6,0.3-1.3,0.5-2,0.5c-0.3,0-0.7-0.1-1-0.2c-0.2-0.1-0.3-0.2-0.5-0.3c-1.9-1.9-2.6-4.8-1.8-7.3v-0.1h-0.1
			c-1.7,0.9-3.5,1.5-5.4,1.7c-2.1,0.3-4.3,0.3-6.4,0c-0.2,0-0.4-0.1-0.6-0.1c-0.3-0.2-0.5-0.3-0.7-0.6c-0.3-0.4-0.3-0.9-0.2-1.4
			c0-0.3,0.1-0.5,0.3-0.7c0.5-0.5,1.1-0.7,1.8-0.7c1.8,0.3,3.7,0.4,5.5,0.1c1.5-0.2,3-0.7,4.4-1.4l0.1-0.1v-0.1l-5-2.1
			c-0.5-0.2-0.7-0.5-0.7-0.9c0-0.5,0.2-0.9,0.5-1.2c0.4-0.4,0.8-0.7,1.4-0.9c0.5-0.1,1-0.1,1.5,0l5.8,2.5c0.1,0.1,0.3,0,0.5-0.1
			c0.2-0.2,0.5-0.3,0.7-0.6c0.5-0.4,1-0.7,1.6-0.9c0.5-0.1,1.1-0.1,1.6,0c0.4,0.1,0.6,0.5,0.7,0.9c0,0.4-0.1,0.8-0.5,1.1
			c0,0.1-0.1,0.1-0.1,0.2l-0.6,0.6c-0.1,0.1-0.1,0.2,0,0.3c0,0,0,0,0,0l6.4,2.7C260.6,123.5,260.8,123.8,260.8,124.2L260.8,124.2z
			 M254.6,109.8c-0.1-0.1-0.3,0-0.5,0.1l-2.5,2.8v0.1l0.1,0.1c1.6-0.3,3.1-1,4.3-2.1c0.1-0.1,0.1-0.2,0-0.3c0,0,0,0,0,0L254.6,109.8
			z M264,107.2l0.1-0.1c0-0.1,0-0.1-0.1-0.1c0,0,0,0,0,0l-3.3-1.4c-0.1-0.1-0.3,0-0.5,0c-0.9,0.3-2,0.8-3.2,1.1
			c-0.1,0-0.1,0-0.1,0.1c0,0,0,0,0,0v0.1l3.8,1.7c0.2,0.1,0.4,0.1,0.6,0C262.4,108.1,263.2,107.6,264,107.2L264,107.2z M262.7,116.4
			c0.1,0,0.2-0.1,0.3-0.2l1.6-1.8c0.1-0.1,0.1-0.2,0-0.3c0,0,0,0,0,0l-1.8-0.8c-0.1-0.1-0.2,0-0.5,0.1l-1.5,1.6
			c-0.1,0.1-0.2,0.3-0.3,0.5c0,0.1,0.1,0.2,0.3,0.2l1.2,0.6C262.5,116.4,262.6,116.4,262.7,116.4L262.7,116.4z"/>
		<path id="Path_7230" class="st3" d="M297.3,131.2c0,0.5-0.2,0.9-0.6,1.2c-0.4,0.4-0.9,0.7-1.5,0.9c-0.5,0.1-1.1,0.1-1.6,0
			l-5.3-2.3h-0.1l-0.1,0.1c0.6,2.2,1.8,4.2,3.4,5.9c0.3,0.3,0.3,0.7,0.1,1c0,0.1-0.1,0.2-0.2,0.3c-0.2,0.3-0.6,0.5-0.9,0.6
			c-0.3,0.1-0.6,0.2-0.9,0.3c-0.5,0.2-1,0.3-1.5,0.2c-0.2,0-0.4-0.1-0.6-0.1c-0.2-0.1-0.3-0.2-0.5-0.3c-0.1-0.1-0.1-0.1-0.2,0
			l-5,5.4c-0.4,0.5-1,0.8-1.6,0.9c-0.5,0.2-1.1,0.2-1.6,0l-0.8-0.3c-0.2-0.1-0.4-0.3-0.3-0.6c0-0.3,0.1-0.5,0.3-0.7
			c0.1-0.1,0.1-0.1,0-0.1l-3.5-1.5c-0.1,0-0.1,0-0.2,0.1c-0.2,0.2-0.5,0.4-0.8,0.6c-0.3,0.1-0.6,0.1-0.9,0l-0.7-0.3
			c-0.5-0.2-0.7-0.5-0.7-0.9c0-0.5,0.2-1,0.6-1.2l6.2-6.9c0.5-0.4,1-0.8,1.6-1c0.5-0.2,1.2-0.2,1.7,0l2.6,1.1h0.1v-0.1
			c-0.5-1.4-0.7-2.9-0.6-4.4c0-0.1,0-0.2-0.2-0.3l-3.5-1.6c-0.2-0.1-0.4-0.1-0.6,0c-2.1,0.7-4.3,1.1-6.4,1.5h-0.1v0.1l2.7,1.1
			c0.4,0.2,0.7,0.6,0.8,1c0,0.5-0.2,1.1-0.6,1.5l-6.1,6.8c-0.4,0.4-0.9,0.8-1.5,0.9c-0.5,0.2-1.1,0.2-1.6,0l-0.8-0.3
			c-0.2-0.1-0.4-0.3-0.3-0.6c0-0.3,0.1-0.5,0.3-0.7c0.1-0.1,0.1-0.1,0-0.1L262,137c-0.1,0-0.1,0-0.2,0.1c-0.2,0.2-0.5,0.4-0.8,0.6
			c-0.3,0.1-0.6,0.1-0.9,0l-0.7-0.3c-0.5-0.2-0.7-0.5-0.7-0.9c0-0.5,0.2-0.9,0.6-1.2l5.2-5.8c0.1-0.1,0.1-0.1-0.1-0.1
			c-0.2,0-0.5,0-0.7-0.1c-0.1-0.1-0.3-0.1-0.5-0.3c-0.3-0.3-0.3-0.7-0.2-1c0-0.2,0.1-0.3,0.1-0.6c0-0.3,0.2-0.6,0.5-0.9l0.3-0.3
			c0.4-0.4,0.9-0.5,1.5-0.5c2.8,0.1,5.7-0.1,8.5-0.6c0.1,0,0.1,0,0.1-0.1c0,0,0,0,0,0v-0.1l-4.7-2c-0.5-0.2-0.7-0.5-0.7-0.9
			c0-0.5,0.2-0.9,0.6-1.2c0.4-0.4,0.9-0.7,1.5-0.9c0.5-0.1,1.1-0.1,1.6,0l8.1,3.5c0.2,0.1,0.4,0.1,0.6,0c0.7-0.2,1.4-0.6,2.1-0.9
			l0.1-0.1c0-0.1,0-0.1-0.1-0.1c0,0,0,0,0,0l-7.2-3.1c-0.4-0.2-0.7-0.6-0.8-1c0-0.5,0.2-1.1,0.6-1.5l4.7-5.2c0.5-0.4,1-0.8,1.6-1
			c0.5-0.2,1.2-0.2,1.7,0l7,3.1c0.4,0.2,0.7,0.6,0.8,1c0,0.5-0.2,1.1-0.6,1.5l-5.2,5.7c-0.1,0.1-0.1,0.3,0,0.3l1.7,1.9
			c0,0,0.1,0.1,0.1,0c0.1,0,0.1,0,0.2-0.1l6-6.7c0.5-0.5,1.1-0.8,1.7-1c0.6-0.2,1.1-0.2,1.7,0l7,3.1c0.4,0.2,0.7,0.6,0.8,1
			c0,0.5-0.2,1.1-0.6,1.5l-4.7,5.2c-0.5,0.4-1,0.8-1.6,1c-0.5,0.2-1.2,0.2-1.7,0l-8.7-3.7l0,0c-0.6,0.3-1.4,0.7-2.1,1.1
			c-0.1,0-0.1,0.1-0.1,0.1c0,0.1,0.1,0.1,0.1,0.1l11.6,5C297.2,130.6,297.3,130.9,297.3,131.2z M267.9,135.4c0.1,0.1,0.2,0,0.5-0.1
			l2.6-2.8c0.1-0.1,0.1-0.2,0-0.3c0,0,0,0,0,0l-3.3-1.4c-0.1-0.1-0.2,0-0.5,0.1l-2.6,2.8c-0.1,0.1-0.1,0.2,0,0.3c0,0,0,0,0,0
			L267.9,135.4z M277.3,139.1c-0.1,0.1-0.1,0.2,0,0.3c0,0,0,0,0,0l3.2,1.4c0.1,0.1,0.2,0,0.5-0.1l2.6-2.8c0.1-0.1,0.1-0.2,0-0.3
			c0,0,0,0,0,0l-3.2-1.4c-0.1-0.1-0.3,0-0.5,0.1L277.3,139.1z M283.2,118.2c0.1,0.1,0.2,0,0.5-0.1l2.5-2.7c0.1-0.1,0.1-0.2,0-0.3
			c0,0,0,0,0,0l-3.3-1.4c-0.1-0.1-0.3,0-0.5,0.1l-2.5,2.7c-0.1,0.1-0.1,0.2,0,0.3c0,0,0,0,0,0L283.2,118.2z M296.1,119.5
			c-0.1-0.1-0.2,0-0.5,0.1l-2.5,2.7c-0.1,0.1-0.1,0.2,0,0.3c0,0,0,0,0,0l3.3,1.4c0.1,0.1,0.3,0,0.5-0.1l2.5-2.7
			c0.1-0.1,0.1-0.2,0-0.3c0,0,0,0,0,0L296.1,119.5z"/>
	</g>
</g>
</svg>
