<?xml version="1.0" encoding="utf-8"?>
<!-- Generator: Adobe Illustrator 24.0.3, SVG Export Plug-In . SVG Version: 6.00 Build 0)  -->
<svg version="1.1" id="圖層_1" xmlns="http://www.w3.org/2000/svg" xmlns:xlink="http://www.w3.org/1999/xlink" x="0px" y="0px"
	 viewBox="0 0 522.3 540.2" style="enable-background:new 0 0 522.3 540.2;" xml:space="preserve">
<style type="text/css">
	.st0{fill:#EF8619;stroke:#030000;stroke-width:2.045;stroke-miterlimit:10;}
	.st1{fill:#FFFFFF;}
	.st2{fill:none;stroke:#231815;stroke-width:2.045;stroke-miterlimit:10;}
	.st3{fill:#231815;}
	.st4{fill:#EF8619;}
	.st5{fill:none;stroke:#231815;stroke-width:2.045;stroke-linecap:round;stroke-miterlimit:10;}
	.st6{fill:none;stroke:#030000;stroke-width:1.7484;stroke-miterlimit:10;}
	.st7{fill:#FFFFFF;stroke:#231815;stroke-width:2.045;stroke-miterlimit:10;}
	.st8{fill:#71BF87;stroke:#030000;stroke-width:2.045;stroke-miterlimit:10;}
</style>
<g id="feature3" transform="translate(0.541 0.513)">
	<g id="Group_634" transform="translate(89.699 187.515)">
		<path id="Path_7015" class="st0" d="M46.7,28.6c1-1.5,3-1.9,4.5-0.9c1.4,1.1,1.7,3.1,0.6,4.5c0,0,0,0,0,0c-1,1.5-2.9,1.9-4.4,0.9
			c0,0,0,0,0,0c-1.4-1-1.8-2.9-0.8-4.3C46.6,28.8,46.6,28.7,46.7,28.6"/>
		<path id="Path_7016" class="st0" d="M51.8,48.5c0,0-4.1-12.2-3.4-22.2c0.6-7.8-14.8-12.5-15.9,1.7c-0.8,10.2,2.4,24,5.8,30.6"/>
		<path id="Path_7017" class="st0" d="M113.5,269.7v46.1c0,7.8-6.3,14.1-14,14.1l0,0c-7.8-0.1-14-6.4-14-14.1v-46.1"/>
		<path id="Path_7018" class="st0" d="M29.1,71.2c-44.8,66.1-27.7,155.9,38.1,200.3c65.8,44.4,155.3,26.9,200.1-39.2
			C312,166.2,294.8,76.4,229.1,32C163.3-12.5,73.8,5,29.1,71.2"/>
		<path id="Path_7019" class="st0" d="M247.2,114.9c0.1-1.8-1.3-3.3-3.1-3.4c-1.8,0.1-3.1,1.6-3.1,3.3c0,0,0,0,0,0.1
			c-0.2,1.7,1,3.2,2.7,3.4c1.7,0.2,3.2-1,3.4-2.7C247.2,115.3,247.2,115.1,247.2,114.9"/>
		<path id="Path_7020" class="st0" d="M231.6,128.1c0,0,10.4-7.6,15.6-16c4.1-6.7,19.3-1.6,12,10.7c-5.2,8.8-15.9,18.1-22.5,21.6"/>
		<path id="Path_7021" class="st1" d="M118.7,106.7c-0.5,1-1,1.9-1.7,2.8c-5.9,8.7-15,12.7-20.5,9c-5.4-3.7-5.1-13.7,0.8-22.3
			c0.6-0.9,1.2-1.8,1.9-2.6L118.7,106.7z"/>
		<path id="Path_7022" class="st2" d="M118.7,106.7c-0.5,1-1,1.9-1.7,2.8c-5.9,8.7-15,12.7-20.5,9c-5.4-3.7-5.1-13.7,0.8-22.3
			c0.6-0.9,1.2-1.8,1.9-2.6L118.7,106.7z"/>
		<path id="Path_7023" class="st3" d="M98.4,96c-3.2,4.7-3.4,10.2-0.5,12.2c2.9,2,8-0.2,11.2-5c3.2-4.7,3.4-10.2,0.5-12.2
			C106.6,89.1,101.5,91.3,98.4,96"/>
		<path id="Path_7024" class="st4" d="M117.8,87.2c4.9,3.3,5.1,11.6,0.9,19.6L99.3,93.6C105.1,86.7,112.9,83.9,117.8,87.2"/>
		<path id="Path_7025" class="st2" d="M117.8,87.2c4.9,3.3,5.1,11.6,0.9,19.6L99.3,93.6C105.1,86.7,112.9,83.9,117.8,87.2z"/>
		<path id="Path_7026" class="st5" d="M127,97.6c-1.6,1-3.6,1-5.3,0.1"/>
		<path id="Path_7027" class="st5" d="M126.8,100.5c-1.7,0.8-3.7,0.6-5.3-0.5"/>
		<path id="Path_7028" class="st5" d="M127,94.6c-1.6,1-3.6,1.2-5.3,0.3"/>
		<path id="Path_7029" class="st1" d="M62.2,68.5c-0.7,0.8-1.3,1.7-1.9,2.6c-5.9,8.7-6.2,18.6-0.8,22.3c5.4,3.7,14.6-0.3,20.5-9
			c0.6-0.9,1.1-1.8,1.7-2.8L62.2,68.5z"/>
		<path id="Path_7030" class="st2" d="M62.2,68.5c-0.7,0.8-1.3,1.7-1.9,2.6c-5.9,8.7-6.2,18.6-0.8,22.3c5.4,3.7,14.6-0.3,20.5-9
			c0.6-0.9,1.1-1.8,1.7-2.8L62.2,68.5z"/>
		<path id="Path_7031" class="st3" d="M72,78.1c-3.2,4.7-8.1,6.9-11.2,5c-2.9-2-2.8-7.5,0.5-12.2c3.2-4.7,8.3-6.9,11.2-5
			C75.4,68,75.2,73.4,72,78.1"/>
		<path id="Path_7032" class="st4" d="M80.6,62.1c-4.9-3.3-12.7-0.5-18.4,6.4l19.4,13.1C85.7,73.7,85.5,65.4,80.6,62.1"/>
		<path id="Path_7033" class="st2" d="M80.6,62.1c-4.9-3.3-12.7-0.5-18.4,6.4l19.4,13.1C85.7,73.7,85.5,65.4,80.6,62.1z"/>
		<path id="Path_7034" class="st5" d="M67.6,57.3c-0.3,1.9,0.4,3.8,1.9,5"/>
		<path id="Path_7035" class="st5" d="M64.8,58.6c-0.1,1.9,0.8,3.7,2.4,4.7"/>
		<path id="Path_7036" class="st5" d="M70.2,56.4c-0.4,1.9,0.2,3.8,1.6,5.1"/>
		<path id="Path_7037" class="st5" d="M85.6,123.7c0,0-8.4,1.4-7.7,11.4"/>
		<path id="Path_7038" class="st5" d="M59.8,106.2c0,0,1.8,8.3-7.7,11.4"/>
		<line id="Line_27" class="st2" x1="79.5" y1="127.9" x2="58.2" y2="113.4"/>
		<path id="Path_7039" class="st1" d="M62.2,116.3l2.5,1.7l2.5,1.7c0,0-1.4,3.1-3.7,1.5l-0.6-0.3l-0.6-0.3
			C59.8,118.8,62.2,116.3,62.2,116.3"/>
		<path id="Path_7040" class="st2" d="M62.3,116.2l2.5,1.7l2.5,1.7c0,0-1.6,3.5-4.1,1.8l-0.6-0.3l-0.6-0.3
			C59.7,119.1,62.3,116.2,62.3,116.2z"/>
		<path id="Path_7041" class="st1" d="M70.4,122l2.5,1.7l2.5,1.7c0,0-1.4,3.1-3.7,1.5l-0.6-0.3l-0.6-0.3
			C68.1,124.4,70.4,122,70.4,122"/>
		<path id="Path_7042" class="st2" d="M70.6,121.9l2.5,1.7l2.5,1.7c0,0-1.6,3.5-4.1,1.8l-0.6-0.3l-0.6-0.3
			C67.8,124.6,70.6,121.9,70.6,121.9z"/>
		<path id="Path_7043" class="st4" d="M232.7,34.4c0,0-15.8-9.4-19.9-31c0,0-0.7-2.3-2.9-0.1c0,0-15.4,13.6-11.1,24.8"/>
		<path id="Path_7044" class="st6" d="M232.9,34.3c0,0-15.8-9.4-19.9-31c0,0-0.7-2.3-2.9-0.1c0,0-15.4,13.6-11.1,24.8"/>
		<path id="Path_7045" class="st0" d="M184.3,284.9V331c0,7.8-6.3,14.1-14,14.1l0,0c-7.8-0.1-14-6.4-14-14.1v-40"/>
	</g>
	<path id="Path_7046" class="st7" d="M384.9,324.5L13.2,161.1c-5.8-2.6-8.5-9.5-5.8-15.3c0.4-1,1-1.8,1.7-2.7L121,11
		c3.3-3.8,8.7-5.1,13.3-3.1l374.6,164.6c4.7,2,6.8,7.5,4.7,12.1c-0.4,0.8-0.9,1.6-1.5,2.3L398.3,321.5
		C395,325.4,389.6,326.7,384.9,324.5z"/>
	<g id="Group_635" transform="translate(176.839 77.507)">
		<path id="Path_7047" class="st8" d="M46.3,17.3c1.5,0.6,3,1.3,4.4,2.1c0.6,0.3,0.9,0.9,0.8,1.6c0,0.6-0.3,1.3-0.8,1.7
			c-6.5,7.2-14,13.5-22.2,18.8c-0.2,0.2-0.5,0.5-0.3,0.7c0.4,1.4,0.6,2.8,0.8,4.3c0.1,1.1-0.3,2.1-1.1,2.8c-0.8,0.8-1.8,1.5-2.8,1.9
			L22.9,52c-0.8,0.4-1.8,0.5-2.6,0.1l0,0c-0.7-0.2-1.1-0.9-1.1-1.6c0-0.9-0.1-1.9-0.2-3.2c0-0.2-0.2-0.3-0.6-0.1
			c-4.2,1.9-8.5,3.3-13,4.2c-0.7,0.1-1.4,0.1-2-0.1c-0.2-0.1-0.4-0.2-0.6-0.3c-0.7-0.5-1-1.3-0.8-2.1c0-0.6,0.1-1,0.1-1.6
			c0.1-0.7,0.4-1.3,0.9-1.8c0.1-0.1,0.3-0.3,0.3-0.5C4.1,44.3,5,43.8,6,43.6c3.8-0.7,7.4-1.9,10.9-3.6c0.3-0.1,0.5-0.3,0.3-0.6
			l-0.3-1.2c0-0.1-0.1-0.1-0.2,0c-0.3,0.3-0.7,0.4-1.1,0.5c-0.3,0-0.6-0.1-0.8-0.3l-1.5-2.4c-0.4-0.8-0.5-1.7-0.1-2.5
			c0.3-0.6,0.6-1.2,1-1.7c0.3-0.4,0.6-0.7,1-0.9c3.6-2.8,8.1-6.4,13.5-10.9c0.2-0.2,0.3-0.5,0-0.6l-0.2-0.1c-0.8-0.3-1.4-1-1.5-1.8
			c-0.1-0.9,0.3-1.9,1-2.5l0.9-0.9c0.7-0.8,1.7-1.4,2.7-1.7c0.9-0.3,2-0.3,2.9,0l1.6,0.7c0.2,0.1,0.5,0,0.8-0.2
			c2-1.8,4.4-3.8,7.1-6.2c0.9-0.8,1.9-1.3,3.1-1.5C47.9,5,48.8,5,49.6,5.4c0.1,0,0.2,0.1,0.3,0.2l1,0.6c0.7,0.3,1.2,1.1,1.1,1.9
			C52,8.8,51.7,9.5,51.2,10l-0.5,0.5c-2.3,1.9-4.4,3.7-6.6,5.5c-0.2,0.2-0.2,0.3,0,0.5L46.3,17.3z M38.9,24.1c0.2-0.2,0.3-0.5,0-0.6
			l-2.4-1c-0.3-0.1-0.6,0-0.8,0.2c-2.4,1.9-5.9,4.7-10.5,8.5C25,31.5,24.9,31.7,25,32c0.3,0.8,0.6,1.6,0.8,2.4
			c0.1,0.2,0.2,0.2,0.6,0C30.8,31.2,35,27.8,38.9,24.1z M69.8,41.2c0.8,0.3,1.4,1,1.5,1.8c0.1,0.9-0.3,1.9-1,2.5l-1,1.1
			c-0.8,0.8-1.8,1.4-2.8,1.7c-1,0.4-2,0.3-2.9-0.1l-7.8-3.3c-0.3-0.1-0.6,0-0.8,0.2L43.1,58.3c-1.3,1.5-2.8,2.8-4.4,4
			c-1.4,0.8-2.9,1.3-4.5,1.5c-2.5,0-4.9-0.5-7.2-1.4c-0.1,0-0.1-0.1-0.2-0.1c-0.7-0.3-1.3-0.9-1.6-1.6c-0.2-0.9-0.1-1.9,0.5-2.7
			c0.3-0.7,0.6-1.3,0.8-2c0.1-0.3,0.3-0.6,0.6-0.8c0.4-0.4,0.8-0.7,1.2-0.9c0.7-0.4,1.6-0.4,2.4-0.1l0,0c0.8,0.3,1.4,0.6,1.8,0.8
			c0.5,0.2,0.8,0.3,1,0.5c0.4,0.2,0.7,0.3,1.1,0.2c0.3-0.1,0.6-0.3,0.8-0.6l11.6-13c0.2-0.2,0.2-0.5-0.1-0.6l-7.1-3.1
			c-0.8-0.3-1.4-1-1.5-1.8c-0.1-0.9,0.3-1.8,0.9-2.5l1-1.1c0.8-0.8,1.7-1.4,2.8-1.7c0.9-0.3,2-0.3,2.9,0l7.1,3.1
			c0.3,0.1,0.6,0,0.8-0.2l2.8-3.2c0.5-0.5,1.1-0.9,1.8-1.1c0.6-0.2,1.3-0.2,1.9,0c0.2,0.1,0.4,0.1,0.6,0c2.7-1,5.4-2.1,8-3.4
			c0.1,0,0.1-0.1,0.2-0.2c0-0.1,0-0.1-0.1-0.2l-11.6-4.9c-0.8-0.3-1.4-1-1.5-1.8c-0.1-0.9,0.3-1.9,1-2.5l0.8-0.9
			c0.8-0.8,1.8-1.4,2.8-1.7c1-0.4,2-0.3,2.9,0.1l16.7,7c0.1,0.1,0.2,0.1,0.5,0.1c0.3,0,0.6,0.1,0.9,0.2c0.6,0.2,1.1,0.7,1.2,1.4
			l0.6,1.6c0.2,0.9,0,1.8-0.6,2.5c-0.1,0.2-0.3,0.4-0.5,0.6c-0.6,0.6-1.3,1.1-2.1,1.5c-6.3,2.7-11.9,4.7-16.5,6.2
			c-0.3,0.1-0.6,0.2-0.8,0.5l-1.2,1.4c-0.2,0.2-0.2,0.5,0.1,0.6L69.8,41.2z"/>
		<path id="Path_7048" class="st8" d="M100.1,39.9c1.5,0.6,3,1.3,4.4,2.1c0.6,0.3,0.9,0.9,0.8,1.6c0,0.6-0.3,1.3-0.8,1.7
			c-6.5,7.2-14,13.5-22.2,18.8c-0.2,0.2-0.5,0.5-0.3,0.7c0.4,1.4,0.6,2.8,0.8,4.3c0.1,1.1-0.3,2.1-1.1,2.8c-0.8,0.8-1.8,1.5-2.8,1.9
			l-2.1,0.8c-0.8,0.4-1.8,0.5-2.6,0.1l0,0c-0.7-0.2-1.1-0.9-1.1-1.6c0-0.9-0.1-1.9-0.2-3.2c0-0.2-0.2-0.3-0.6-0.1
			c-4.2,1.9-8.5,3.3-13,4.2c-0.7,0.1-1.4,0.1-2-0.1c-0.2-0.1-0.4-0.2-0.6-0.3c-0.7-0.5-1-1.3-0.8-2.1c0-0.6,0.1-1,0.1-1.6
			c0.1-0.7,0.4-1.3,0.9-1.8c0.1-0.1,0.3-0.3,0.3-0.5c0.8-0.7,1.7-1.1,2.7-1.4c3.8-0.7,7.4-1.9,10.9-3.6c0.3-0.1,0.5-0.3,0.3-0.6
			l-0.3-1.2c0-0.1-0.1-0.1-0.2,0c-0.3,0.3-0.7,0.4-1.1,0.5c-0.5,0-0.7-0.1-0.8-0.3l-1.5-2.4c-0.4-0.8-0.5-1.7-0.1-2.5
			c0.3-0.6,0.6-1.2,1-1.7c0.3-0.4,0.6-0.7,1-0.9c3.6-2.8,8.1-6.4,13.5-10.9c0.2-0.2,0.3-0.5,0-0.6l-0.2-0.1c-0.8-0.3-1.4-1-1.5-1.8
			c-0.1-0.9,0.3-1.9,1-2.5l0.9-0.9c0.7-0.8,1.7-1.4,2.7-1.7c0.9-0.3,2-0.3,2.9,0l1.6,0.7c0.2,0.1,0.5,0,0.8-0.2
			c2-1.8,4.4-3.8,7.1-6.2c0.9-0.8,1.9-1.3,3.1-1.5c0.9-0.2,1.8-0.1,2.6,0.2c0.1,0,0.2,0.1,0.3,0.2l1,0.6c0.7,0.3,1.2,1.1,1.1,1.9
			c-0.1,0.7-0.4,1.4-0.9,1.9l-0.5,0.5c-2.3,1.9-4.4,3.7-6.6,5.5c-0.2,0.2-0.2,0.3,0,0.5L100.1,39.9z M92.7,46.8
			c0.2-0.2,0.3-0.5,0-0.6l-2.4-1c-0.3-0.1-0.6,0-0.8,0.2c-2.4,1.9-5.9,4.7-10.5,8.5c-0.2,0.2-0.3,0.5-0.2,0.7
			c0.3,0.8,0.6,1.6,0.8,2.4c0.1,0.2,0.2,0.2,0.6,0C84.6,53.9,88.8,50.5,92.7,46.8z M123.7,63.8c0.8,0.3,1.4,1,1.5,1.8
			c0.1,0.9-0.3,1.9-1,2.5l-1,1.1c-0.8,0.8-1.8,1.4-2.8,1.7c-1,0.4-2,0.3-2.9-0.1l-7.8-3.3c-0.3-0.1-0.6,0-0.8,0.2L97,80.9
			c-1.3,1.5-2.8,2.8-4.4,4c-1.4,0.8-2.9,1.3-4.5,1.5c-2.5,0-4.9-0.5-7.2-1.4c-0.1,0-0.1-0.1-0.2-0.1c-0.7-0.3-1.3-0.9-1.6-1.6
			c-0.2-0.9-0.1-1.9,0.5-2.7c0.3-0.7,0.6-1.3,0.8-2c0.1-0.3,0.3-0.6,0.6-0.8c0.4-0.4,0.8-0.7,1.2-0.9c0.7-0.4,1.6-0.4,2.4-0.1l0,0
			c0.8,0.3,1.4,0.6,1.8,0.8c0.5,0.2,0.8,0.3,1,0.5c0.4,0.2,0.7,0.3,1.1,0.2c0.3,0,0.6-0.2,0.8-0.6l11.6-13c0.2-0.2,0.2-0.5-0.1-0.6
			L93.6,61c-0.8-0.3-1.4-1-1.5-1.8c-0.1-0.9,0.3-1.8,0.9-2.5l1-1.1c0.8-0.8,1.7-1.4,2.8-1.7c0.9-0.3,2-0.3,2.9,0l7.1,3.1
			c0.3,0.1,0.6,0,0.8-0.2l2.8-3.2c0.5-0.5,1.1-0.9,1.8-1.1c0.6-0.2,1.3-0.2,1.9,0c0.2,0.1,0.4,0.1,0.6,0c2.7-1,5.4-2.1,8-3.4
			c0.1,0,0.1-0.1,0.2-0.2c0-0.1,0-0.1-0.1-0.2l-11.6-4.9c-0.8-0.3-1.4-1-1.5-1.8c-0.1-0.9,0.3-1.9,1-2.5l0.8-0.9
			c0.8-0.8,1.8-1.4,2.8-1.7c1-0.4,2-0.3,2.9,0.1l16.7,7c0.1,0.1,0.2,0.1,0.5,0.1c0.3,0,0.6,0.1,0.9,0.2c0.6,0.2,1.1,0.7,1.2,1.4
			l0.6,1.6c0.2,0.9,0,1.8-0.6,2.5c-0.1,0.2-0.3,0.4-0.5,0.6c-0.6,0.6-1.3,1.1-2.1,1.5c-6.3,2.7-11.9,4.7-16.5,6.2
			c-0.3,0.1-0.6,0.2-0.8,0.5l-1.2,1.4c-0.2,0.2-0.2,0.5,0.1,0.6L123.7,63.8z"/>
		<path id="Path_7049" class="st8" d="M157.7,54.8c0.8,0.2,1.3,1,1.4,1.8c0.1,0.9-0.3,1.8-0.9,2.5l-24.8,27.7
			c-0.8,0.8-1.7,1.4-2.8,1.7c-0.9,0.3-2,0.3-2.9,0l-4.6-1.9c-0.3-0.1-0.6,0-0.8,0.2l-0.7,0.7c-0.7,0.8-1.7,1.4-2.7,1.7
			c-0.9,0.3-2,0.3-2.9,0l-0.1-0.1c-0.8-0.2-1.3-1-1.4-1.8c-0.1-0.9,0.3-1.8,0.9-2.5L143.7,53c0.8-0.8,1.7-1.4,2.8-1.7
			c0.9-0.3,2-0.3,2.9,0L157.7,54.8z M168.2,89.5c0.9-0.6,2-1,3.2-1.1c0.6-0.1,1.3,0,1.9,0.2c0.2,0.1,0.6,0.2,0.7,0.5l0.3,0.2
			c0.6,0.5,0.9,1.4,0.7,2.1c-0.1,0.5-0.4,1-0.8,1.4c-0.3,0.3-0.7,0.6-1,0.9c-4.7,3-9.5,5.7-14.6,8c-0.3,0.1-0.5,0.3-0.7,0.6
			c-1.9,2.9-2.5,4.6-1.8,4.9c0.3,0.1,1.6-0.7,3.4-2.6c0.5-0.5,1.1-0.7,1.8-0.7c0.7,0,1.1,0.3,1.1,0.9c0,0.1,0.1,0.1,0.1,0.2
			c0.2,0.9,0.2,1.9-0.1,2.8c-0.2,0.7-0.6,1.3-1.1,1.8c-0.2,0.3-0.5,0.6-0.8,0.8c-1.8,1.6-4,2.9-6.3,3.6c-1.7,0.4-3.6,0.3-5.2-0.5
			c-2.4-1-2.8-3.4-1.4-7.3c0.1-0.2,0-0.3-0.3-0.2l-5.1,1.4c-0.7,0.2-1.5,0.2-2.3-0.1c-0.1-0.1-0.2-0.1-0.3-0.2c-0.7-0.4-1-1.1-1-1.9
			c0.1-1,0.1-2,0.1-3.1c0-0.1-0.1-0.1-0.2-0.1s-0.1,0-0.2,0.1c-1.6,1.5-3.7,2.5-5.9,2.7c-2.2,0.2-4.5-0.2-6.6-1
			c-0.1,0-0.2-0.1-0.2-0.1c-0.7-0.2-1.2-0.9-1.4-1.6c-0.2-0.9-0.1-1.8,0.5-2.6c0.2-0.6,0.6-1,0.8-1.6c0.1-0.3,0.3-0.6,0.6-0.8
			c0.4-0.4,0.8-0.8,1.4-1c0.7-0.4,1.6-0.4,2.4-0.1l0,0c0.7,0.3,1.5,0.6,2.3,1c0.3,0.1,0.7,0.2,1,0.1c0.3-0.2,0.6-0.4,0.9-0.7l6-6.8
			c0.2-0.2,0.2-0.5-0.1-0.5l-1.5-0.2c-0.2,0-0.5-0.1-0.7-0.2c-0.6-0.2-1-0.7-1.2-1.2c-0.3-0.8-0.2-1.7,0.3-2.4l0.7-1.1
			c0.1-0.2,0.3-0.5,0.5-0.7c1.3-1.4,3.1-2,5-1.7c1,0.2,1.9,0.5,2.9,0.7c0.3,0.1,0.6,0,0.8-0.2l4.5-5c0.2-0.2,0.2-0.5-0.1-0.6l-2.3-1
			c-0.8-0.3-1.4-1-1.5-1.8c-0.1-0.9,0.3-1.8,0.9-2.5l0.7-0.8c0.8-0.8,1.7-1.4,2.8-1.7c0.9-0.3,2-0.3,2.9,0l2.3,1
			c0.3,0.1,0.6,0,0.8-0.2l3.5-4c0.2-0.2,0.2-0.5-0.1-0.5c-0.2,0-0.3-0.1-0.6-0.1c-0.3,0-0.6-0.1-0.8-0.2c-0.5-0.2-0.9-0.5-1.1-1
			c-0.3-0.8-0.3-1.6,0-2.4l0.7-1c0.4-0.4,0.7-0.7,1.1-1c0.8-0.5,1.8-0.8,2.7-0.7c3.6,0.5,7.1,0.6,10.5,0.7c0.7,0,1.5,0.1,2.1,0.5
			c0.3,0.1,0.5,0.2,0.8,0.3c0.8,0.5,1.2,1.3,1.2,2.1l0.3,2.6c0,0.1,0,0.1,0.1,0.1c0.1,0,0.2,0,0.2-0.1l0.9-1
			c0.8-0.8,1.8-1.4,2.8-1.7c1-0.4,2-0.3,2.9,0.1l0.8,0.3c0.8,0.2,1.3,1,1.4,1.8c0.1,0.9-0.3,1.8-0.9,2.4l-3.7,4.1
			c-1.9,2.1-4,4.4-5.8,6.7c-0.2,0.2-0.2,0.5,0.1,0.6l5.7,2.4c0.8,0.3,1.4,1,1.5,1.8c0.1,0.9-0.3,1.9-1,2.5l-0.7,0.8
			c-0.8,0.8-1.8,1.4-2.8,1.7c-1,0.4-2,0.3-2.9-0.1l-5.4-2.3c-0.3-0.1-0.5,0-0.7,0.2c-0.5,0.6-1.2,1.5-2.1,2.6
			c-0.9,1.1-1.6,1.9-1.9,2.4v0.1h0.1C167.2,90,167.7,89.8,168.2,89.5z M149.1,59.6c0.2-0.2,0.2-0.5-0.1-0.6l-1-0.5
			c-0.3-0.1-0.6,0-0.8,0.2l-19,21.3c-0.2,0.2-0.2,0.5,0.1,0.6l1,0.5c0.2,0.1,0.5,0.1,0.6-0.1c0,0,0-0.1,0.1-0.1L149.1,59.6z
			 M148.9,91.1c-0.3,0-0.6,0.1-0.8,0.3l-7.3,8.3c-0.3,0.4-0.7,0.8-1.1,1.1c-0.1,0.1-0.1,0.1,0,0.2c0,0.1,0.1,0.1,0.2,0.1
			c4.1-0.6,8.1-1.7,12-3.2c0.3-0.1,0.6-0.3,0.8-0.6c3.4-5.1,7.1-9.9,11.1-14.6c0.2-0.2,0.2-0.5-0.1-0.6l-4.9-2
			c-0.2-0.1-0.5,0-0.7,0.2l-3.4,3.8c-0.2,0.2-0.2,0.5,0.1,0.5l1.4,0.3c0.2,0.1,0.3,0.1,0.6,0.2c0.6,0.2,1,0.7,1.2,1.2
			c0.2,0.8,0,1.7-0.6,2.4l-0.3,0.3c0,0.1-0.1,0.2-0.2,0.3c-0.7,0.7-1.6,1.3-2.5,1.7c-1,0.5-2.1,0.6-3.2,0.5
			C150.5,91.3,149.7,91.1,148.9,91.1L148.9,91.1z M170.7,66.6c-0.3,0-0.6,0.1-0.8,0.3l-5.2,5.8c-0.2,0.2-0.2,0.5,0,0.5l4.6,1.9
			c0.2,0.1,0.5,0,0.7-0.2c0.8-0.9,1.9-2.1,3.3-3.8c1.5-1.7,2.5-2.9,3.2-3.7c0.1-0.1,0.1-0.1,0.1-0.2c0-0.1-0.1-0.1-0.2-0.1
			C174.5,67,172.6,66.9,170.7,66.6L170.7,66.6z M191,75.5c-0.1,0.4-0.4,0.8-0.7,1c-0.5,0.5-1,0.9-1.6,1.2c-1,0.6-2.1,0.9-3.3,0.9
			h-0.6c-0.4,0-0.8-0.1-1.1-0.2c-0.5-0.2-0.8-0.5-0.9-0.8c-0.4-0.7-0.4-1.6,0-2.3c0.7-1.4,1.5-2.8,2.1-4.3c0.2-0.4,0.4-0.8,0.7-1.1
			c0.4-0.5,0.8-0.8,1.4-1.1c0.9-0.6,2-0.9,3.1-0.8c0.5,0,0.9,0.1,1.4,0.3c0.4,0.2,0.8,0.4,1,0.8c0.5,0.6,0.6,1.5,0.2,2.3
			C192.3,72.8,191.7,74.2,191,75.5L191,75.5z"/>
	</g>
	<g id="Group_636" transform="translate(88.175 127.925)">
		<path id="Path_7050" class="st3" d="M19.1,22.7c-0.1,0-0.1,0-0.2,0.1c-0.1,0.1-0.1,0.1-0.1,0.2c0.4,1.1,0.7,2.3,0.9,3.5
			c0.1,0.5,0,1-0.3,1.4c0,0.1-0.1,0.1-0.1,0.2c-0.3,0.4-0.8,0.6-1.2,0.8c-0.5,0.2-1,0.2-1.5,0l0,0c-0.5-0.2-0.7-0.5-0.7-0.9
			c0-0.5-0.1-0.9-0.1-1.4h-0.2L11.4,31c-0.5,0.4-1,0.8-1.6,1c-0.5,0.2-1.2,0.2-1.7,0c-0.4-0.2-0.7-0.6-0.8-1c0-0.5,0.2-1.1,0.6-1.5
			l3.7-4.1v-0.1h-0.1c-1.7,0.7-3.4,1.3-5.1,1.8c-0.5,0.1-1,0.1-1.5,0c-0.1,0-0.1,0-0.1-0.1c0,0,0,0,0,0c-0.4-0.2-0.7-0.6-0.7-1.1
			c0-0.5,0.2-0.9,0.6-1.2c0.4-0.4,1-0.8,1.6-0.9c2.8-0.6,5.5-1.6,8.1-2.8l0.1-0.1c0-0.1,0-0.1-0.1-0.1c0,0,0,0,0,0l-2.9-1.2
			c-0.5-0.2-0.7-0.5-0.7-0.9c0-0.5,0.2-0.9,0.5-1.2c0.4-0.4,0.8-0.7,1.4-0.9c0.5-0.1,1-0.1,1.5,0l3.6,1.6c0.1,0.1,0.2,0,0.5-0.1
			l1.7-1.9c0.1-0.1,0.1-0.2,0-0.3c0,0,0,0,0,0L16,14.1c-0.5-0.2-0.7-0.5-0.7-0.9c0-0.5,0.2-0.9,0.6-1.2c0.4-0.4,0.8-0.7,1.4-0.9
			c0.5-0.1,1-0.1,1.5,0l1.1,0.5c0.1,0.1,0.2,0,0.3-0.1c0.4-0.5,0.7-1.1,1-1.7c0.1-0.2,0.2-0.3,0.3-0.5c0.3-0.3,0.6-0.5,0.9-0.7
			c0.5-0.3,1-0.4,1.6-0.3V8.1l-1.7-0.8c-0.5-0.2-0.7-0.5-0.7-0.9c0-0.5,0.2-0.9,0.5-1.2c0.3-0.4,0.8-0.7,1.4-0.8
			c0.5-0.1,1-0.1,1.5,0l3.5,1.5c0.1,0.1,0.2,0,0.5-0.1l0.7-0.8c0.5-0.5,1.1-0.8,1.7-1c0.6-0.2,1.1-0.2,1.7,0c0.4,0.2,0.7,0.6,0.8,1
			c0,0.5-0.2,1.1-0.6,1.5l-0.7,0.8c-0.1,0.1-0.1,0.2,0,0.3c0,0,0,0,0,0L35.9,9c0.5,0.2,0.7,0.5,0.7,0.9c0,0.5-0.2,0.9-0.5,1.2
			c-0.3,0.4-0.8,0.7-1.4,0.8c-0.5,0.1-1,0.1-1.5,0l-1.5-0.7v0.1c0.3,0.2,0.5,0.6,0.3,1l-0.3,0.7c-0.1,0.2-0.3,0.4-0.6,0.5
			c-1,0.6-1.8,1.1-2.4,1.5l-0.1,0.1v0.1l1.4,0.6c0.5,0.2,0.7,0.5,0.7,0.9c0,0.5-0.2,0.9-0.6,1.2c-0.4,0.4-0.8,0.7-1.4,0.9
			c-0.5,0.1-1,0.1-1.5,0l-3.6-1.6c-0.1-0.1-0.3,0-0.5,0.1l-1.7,1.9c-0.1,0.1-0.1,0.2,0,0.3c0,0,0,0,0,0l3.3,1.5
			c0.5,0.2,0.7,0.5,0.7,0.9c0,0.5-0.2,0.9-0.6,1.2c-0.4,0.4-0.8,0.7-1.4,0.9c-0.5,0.1-1,0.1-1.5,0L19.1,22.7z M43.8,22.3
			c0.4,0.2,0.7,0.6,0.8,1c0,0.5-0.2,1-0.6,1.4c-0.4,0.5-1,0.8-1.6,0.9c-0.5,0.2-1.1,0.2-1.6,0l-1-0.5c-0.1-0.1-0.2,0-0.5,0.1
			L27.9,37.9c-0.5,0.4-1,0.8-1.6,1c-0.5,0.2-1.2,0.2-1.7,0c-0.4-0.2-0.7-0.6-0.8-1c0-0.5,0.2-1.1,0.6-1.5l11.5-12.7
			c0.1-0.1,0.1-0.2,0-0.3c0,0,0,0,0,0l-2.7-1.1c-0.1-0.1-0.2,0-0.5,0.1c-5.3,5.8-10.6,9.7-15.7,11.8c-0.5,0.2-1,0.2-1.5,0h-0.1
			c-0.4-0.2-0.7-0.6-0.7-1v-0.1c-0.1-0.5,0.1-1,0.5-1.4c0-0.1,0.1-0.1,0.2-0.2c0.4-0.4,0.8-0.7,1.2-0.9c1.4-0.6,2.7-1.2,4-2
			c1.3-0.8,2.5-1.7,3.6-2.7c1.1-1,2.1-1.9,2.9-2.7c0.8-0.8,1.7-1.8,2.7-2.8l7.9-8.7c0.4-0.4,0.9-0.7,1.5-0.8c0.3-0.1,0.7,0,1,0.1
			c0.1,0,0.2,0.1,0.3,0.2l0.1,0.1c0.1,0.1,0.3,0.2,0.5,0.2c2.5,0.4,5.1,0.7,7.7,0.7c0.5,0,0.9,0.1,1.4,0.2c0.1,0.1,0.2,0.1,0.3,0.2
			c0.5,0.3,0.8,0.7,0.8,1.2l0.1,0.5c0,0.3-0.1,0.7-0.3,0.9l-0.2,0.2c-0.4,0.3-0.9,0.5-1.4,0.5c-3.2-0.2-6.4-0.6-9.5-1.1
			c-0.2,0-0.4,0.1-0.5,0.2l-3.4,3.7c-0.1,0.1-0.1,0.2,0,0.3c0,0,0,0,0,0L43.8,22.3z M30,11c0-0.1,0.1-0.1,0.1-0.2
			c0-0.1,0-0.1-0.1-0.1l-4.2-1.8h-0.2c-0.1,0-0.1,0-0.1,0.1c0,0,0,0,0,0c-0.3,0.7-0.6,1.4-0.9,2c-0.1,0.2-0.2,0.3-0.3,0.5
			C24,11.8,23.7,12,23.4,12c-0.5,0.2-1,0.3-1.5,0.3l0,0l5.7,2.5l0,0l-0.1-0.1c-0.3-0.3-0.5-0.7-0.3-1.1c0.1-0.3,0.2-0.6,0.5-0.8
			c0.1-0.2,0.3-0.4,0.6-0.5C28.8,12,29.4,11.5,30,11L30,11z"/>
		<path id="Path_7051" class="st3" d="M60.1,23.8c0.7,0.3,1.5,0.6,2.1,1c0.2,0.2,0.3,0.5,0.3,0.8c0,0.3-0.2,0.7-0.5,0.9
			c-4.1,4.1-8.5,7.7-13.3,10.9c-0.2,0.1-0.2,0.2-0.2,0.3c0.2,0.9,0.3,1.8,0.5,2.5c0.1,0.6-0.2,1.2-0.7,1.6c-0.5,0.5-1,0.9-1.6,1.1
			L46.5,43c-0.5,0.2-1.1,0.2-1.6,0.1h-0.1c-0.5-0.2-0.7-0.5-0.7-0.9c0-0.6-0.1-1.2-0.1-2c0-0.1-0.1-0.2-0.3-0.1
			c-2.5,1.2-5.2,2-7.9,2.6c-0.4,0.1-0.8,0-1.1-0.1c-0.1,0-0.2-0.1-0.3-0.2c-0.4-0.3-0.5-0.8-0.5-1.2V41c0.1-0.4,0.2-0.7,0.5-1
			l0.2-0.2c0.4-0.4,1-0.7,1.6-0.8c2.4-0.4,4.7-1.2,6.9-2.4c0.2-0.1,0.2-0.2,0.2-0.3c-0.1-0.3-0.2-0.9-0.5-1.6c0-0.1-0.1-0.1-0.2,0
			c-0.2,0.1-0.5,0.2-0.8,0.2c-0.2,0-0.4-0.1-0.6-0.2L40.8,34c-0.2-0.4-0.2-0.9,0-1.4c0.1-0.3,0.3-0.6,0.6-0.9
			c0.1-0.2,0.3-0.4,0.6-0.5c2.4-1.8,5.2-4.1,8.5-6.8c0.1-0.1,0.1-0.2,0-0.3c0,0,0,0,0,0l-0.5-0.2c-0.4-0.2-0.7-0.6-0.8-1
			c0-0.5,0.2-1,0.6-1.4c0.4-0.5,1-0.8,1.6-0.9c0.5-0.2,1.1-0.2,1.6,0l1.1,0.5c0.1,0.1,0.3,0,0.5-0.1c1.7-1.4,3.2-2.6,4.4-3.7
			c0.5-0.4,1.1-0.7,1.7-0.8c0.5-0.1,1-0.1,1.5,0.1c0.1,0,0.1,0,0.1,0.1c0,0,0,0,0,0c0.5,0.2,0.7,0.7,0.6,1.1c0,0.4-0.2,0.8-0.6,1.1
			c-0.1,0.1-0.2,0.2-0.3,0.2c-1.2,1.1-2.7,2.3-4.2,3.4c-0.1,0.1-0.1,0.2,0,0.3c0,0,0,0,0,0L60.1,23.8z M56.6,27.2
			c0.1-0.1,0.1-0.2,0-0.3c0,0,0,0,0,0l-2.1-0.9c-0.1-0.1-0.3,0-0.5,0.1c-1.8,1.5-4.2,3.4-7,5.5c-0.1,0.1-0.2,0.2-0.1,0.3
			c0.2,0.7,0.5,1.4,0.8,2c0,0.1,0.1,0.1,0.3,0C51,31.9,53.9,29.7,56.6,27.2L56.6,27.2z M72.9,37.6c0.4,0.2,0.7,0.6,0.8,1
			c0,0.5-0.2,1-0.6,1.4c-0.4,0.5-1,0.8-1.6,1c-0.5,0.2-1.2,0.2-1.7,0l-4.9-2c-0.1-0.1-0.2,0-0.5,0.1l-7.8,8.6
			c-0.7,0.7-1.4,1.4-2.3,2c-0.7,0.4-1.5,0.6-2.3,0.7c-1.4,0-2.7-0.3-4-0.8h-0.1c-0.4-0.2-0.8-0.6-0.9-1c-0.1-0.5-0.1-1.1,0.2-1.6
			c0-0.1,0.1-0.2,0.1-0.3c0.1-0.1,0.1-0.3,0.3-0.5c0.2-0.2,0.5-0.4,0.8-0.6c0.4-0.2,0.9-0.2,1.4-0.1l0,0c0.4,0.2,0.8,0.4,1.2,0.6
			c0.2,0.1,0.4,0.2,0.7,0.2c0.2,0.1,0.4,0.1,0.6,0.1c0.2,0,0.4-0.2,0.6-0.3l7.8-8.6c0.1-0.1,0.1-0.2,0-0.3c0,0,0,0,0,0l-4.5-1.9
			c-0.4-0.2-0.7-0.6-0.8-1c0-0.5,0.2-1,0.6-1.4c0.4-0.5,1-0.8,1.6-1c0.5-0.2,1.2-0.2,1.7,0l4.5,1.9c0.1,0.1,0.2,0,0.5-0.1l2-2.3
			c0.3-0.3,0.6-0.4,0.9-0.6c0.3-0.1,0.7-0.1,1,0h0.3c2-0.6,3.9-1.3,5.8-2.1l0.1-0.1v-0.1l-7.7-3.3c-0.4-0.2-0.7-0.6-0.8-1
			c0-0.5,0.2-1,0.6-1.4c0.4-0.5,1-0.8,1.6-0.9c0.5-0.2,1.1-0.2,1.6,0l10.3,4.4h0.2c0.2,0,0.3,0.1,0.5,0.1c0.3,0.1,0.5,0.3,0.6,0.6
			l0.2,0.8c0.1,0.4,0,0.9-0.2,1.2c-0.1,0.1-0.1,0.2-0.2,0.2c-0.3,0.3-0.6,0.5-1,0.7c-3.4,1.4-6.8,2.6-10.3,3.6
			c-0.2,0-0.3,0.1-0.5,0.3l-1.1,1.2c-0.1,0.1-0.1,0.2,0,0.3c0,0,0,0,0,0L72.9,37.6z"/>
		<path id="Path_7052" class="st3" d="M92.1,31.6c0.5-0.3,1.2-0.5,1.8-0.6c0.4,0,0.7,0,1,0.2c0.2,0.1,0.3,0.2,0.5,0.3l0,0
			c0.3,0.3,0.4,0.8,0.2,1.2c-0.1,0.3-0.3,0.5-0.5,0.7c-0.2,0.2-0.4,0.4-0.7,0.6c-1.9,1.1-3.8,2.1-5.8,3.2c-0.1,0.1-0.3,0.2-0.5,0.3
			l-17.3,19c-0.4,0.5-1,0.8-1.6,1c-0.5,0.2-1.2,0.2-1.7,0c-0.4-0.2-0.7-0.6-0.8-1c0-0.5,0.2-1.1,0.6-1.5l12.7-13.9v-0.1H80
			c-0.8,0.3-1.6,0.6-2.5,0.9c-0.4,0.1-0.8,0.1-1.1,0c-0.1,0-0.1,0-0.2-0.1c-0.3-0.2-0.5-0.6-0.3-1c0.1-0.2,0.1-0.5,0.2-0.7
			c0.1-0.5,0.4-0.9,0.8-1.2l0.3-0.3c0.5-0.4,1.1-0.8,1.8-1C83.5,36,87.9,34,92.1,31.6z M86.9,59.7c-0.1,0.1-0.1,0.2,0,0.3
			c0,0,0,0,0,0l6,2.6c0.4,0.2,0.7,0.6,0.8,1c0,0.5-0.2,1-0.6,1.4c-0.4,0.5-1,0.8-1.6,1c-0.6,0.2-1.1,0.2-1.7,0L73.4,59
			c-0.4-0.2-0.7-0.6-0.8-1c0-0.5,0.2-1,0.6-1.4c0.4-0.5,1-0.8,1.6-1c0.6-0.2,1.1-0.2,1.7,0l6.2,2.7c0.1,0.1,0.2,0,0.5-0.1l5.1-5.5
			c0.1-0.1,0.1-0.2,0-0.3c0,0,0,0,0,0l-4.5-1.9c-0.4-0.2-0.7-0.6-0.8-1c0-0.5,0.2-1,0.6-1.4c0.4-0.5,1-0.8,1.6-1
			c0.5-0.2,1.2-0.2,1.7,0l4.5,1.9c0.1,0.1,0.2,0,0.5-0.1l4.4-4.7c0.1-0.1,0.1-0.2,0-0.3c0,0,0,0,0,0l-5.5-2.4
			c-0.4-0.2-0.7-0.6-0.8-1c0-0.5,0.2-1,0.6-1.4c0.4-0.5,1-0.8,1.6-1c0.5-0.2,1.2-0.2,1.7,0l6.8,2.9h0.1c0,0,0.1,0,0-0.1
			c-0.4-1.3-0.8-2.5-1.4-3.7c-0.1-0.5-0.1-1,0.2-1.4c0-0.1,0.1-0.1,0.2-0.2c0.4-0.4,0.8-0.6,1.2-0.8l0,0c0.6-0.2,1.3-0.2,1.9-0.1
			c0.1,0,0.3,0.1,0.5,0.1c0.4,0.1,0.7,0.4,0.8,0.8c0.7,1.3,1.3,2.7,1.8,4.2c0.1,0.5,0,1-0.3,1.4c0,0.1,0,0.1-0.1,0.1c0,0,0,0,0,0
			c-0.4,0.4-0.8,0.7-1.4,0.9H104c-0.1,0-0.1,0-0.1,0.1c0,0,0,0,0,0v0.1l5.1,2.1c0.4,0.2,0.7,0.6,0.8,1c0,0.5-0.2,1-0.6,1.4
			c-0.4,0.5-1,0.8-1.6,1c-0.5,0.2-1.2,0.2-1.7,0l-5.5-2.4c-0.1-0.1-0.3,0-0.5,0.1l-4.4,4.7c-0.1,0.1-0.1,0.2,0,0.3c0,0,0,0,0,0
			l4.6,2c0.4,0.2,0.7,0.6,0.8,1c0,0.5-0.2,1-0.6,1.4c-0.4,0.5-1,0.8-1.6,1c-0.5,0.2-1.2,0.2-1.7,0l-4.6-2c-0.1-0.1-0.3,0-0.5,0.1
			L86.9,59.7z"/>
		<path id="Path_7053" class="st3" d="M113.3,72.3l5.2,2.3c0.6,0.3,1.3,0.4,1.9,0.1c0.9-0.4,1.7-1,2.4-1.7c0.4-0.3,0.9-0.5,1.4-0.6
			c0.3,0,0.6,0,0.7,0.1c0.1,0.1,0.3,0.2,0.5,0.3c0.1,0.1,0.1,0.2,0.2,0.3c0.3,0.4,0.5,0.9,0.3,1.4c-0.1,0.4-0.3,0.8-0.6,1.1L125,76
			c-1.3,1.3-3,2.3-4.7,2.8c-1.5,0.3-3.1,0.1-4.5-0.7l-6-2.6c-2.3-1-3.4-1.9-3.6-2.9c-0.1-1,0.7-2.5,2.4-4.4l3.2-3.5
			c0.1-0.1,0.1-0.2-0.1-0.2l-8.9-2.7c-0.1,0-0.1-0.1-0.2-0.1c-0.4-0.1-0.7-0.4-0.8-0.8c-0.1-0.5,0-1,0.3-1.5l0.2-0.2
			c0.4-0.4,0.8-0.7,1.4-0.9c0.6-0.3,1.2-0.3,1.8-0.1l9.4,2.9c0.2,0,0.3,0,0.5-0.1l2.4-2.6c0.1-0.1,0.1-0.2-0.1-0.2l-5.1-1.4
			c-0.1,0-0.1,0-0.2-0.1c-0.4-0.1-0.6-0.4-0.7-0.8c-0.1-0.5-0.1-1,0.1-1.5c0.1-0.2,0.2-0.3,0.3-0.5c0.2-0.2,0.5-0.4,0.8-0.6
			c0.5-0.2,1-0.3,1.5-0.2c5.1,1.5,10.2,2.4,15.5,2.9c0.4,0,0.7,0.1,1,0.2c0.2,0.1,0.3,0.2,0.6,0.3c0.4,0.3,0.7,0.8,0.7,1.4v0.6
			c0,0.3-0.1,0.6-0.3,0.9c-0.1,0.1-0.2,0.2-0.3,0.2c-0.4,0.3-0.9,0.5-1.5,0.5c-2.4-0.2-4.8-0.5-7.2-1c-0.2,0-0.4,0.1-0.5,0.2
			l-2.6,2.9c-0.1,0.1-0.1,0.2,0,0.3c0,0,0,0,0,0l11.4,3.5h0.2c0.4,0.1,0.7,0.4,0.8,0.8c0.1,0.5,0,1-0.3,1.4l-0.2,0.2
			c-0.3,0.4-0.8,0.6-1.2,0.8c-0.5,0.2-1.1,0.2-1.7,0.1l-11.9-3.6c-0.2,0-0.3,0-0.5,0.1l-3.5,3.8c-0.6,0.7-0.9,1.1-0.8,1.4
			C112.2,71.7,112.7,72,113.3,72.3z M117.9,48.8c-0.1-0.1-0.3,0-0.5,0.1l-1.6,1.7c-0.5,0.5-1.1,0.8-1.7,1c-0.6,0.2-1.1,0.2-1.7,0
			l-0.2-0.1c-0.4-0.2-0.7-0.6-0.8-1c0-0.5,0.2-1.1,0.6-1.5l3.3-3.6c0.5-0.4,1-0.8,1.6-1c0.6-0.2,1.1-0.2,1.7,0l9.2,4
			c0.1,0.1,0.2,0,0.5-0.1l0.6-0.7c0.5-0.5,1.1-0.8,1.7-1c0.6-0.2,1.1-0.2,1.7,0l0.3,0.1c0.4,0.2,0.7,0.6,0.8,1
			c0,0.5-0.2,1.1-0.6,1.5l-0.6,0.7c-0.1,0.1-0.1,0.2,0,0.3c0,0,0,0,0,0l9.3,4.1c0.4,0.2,0.7,0.6,0.8,1c0,0.5-0.2,1.1-0.6,1.5
			l-3.3,3.6c-0.5,0.4-1,0.8-1.6,1c-0.6,0.2-1.1,0.2-1.7,0l-0.3-0.1c-0.4-0.2-0.7-0.6-0.8-1c0-0.5,0.2-1.1,0.6-1.5L136,57
			c0.1-0.1,0.1-0.2,0-0.3c0,0,0,0,0,0L117.9,48.8z"/>
		<path id="Path_7054" class="st3" d="M147,70.3c0.5-0.4,1.1-0.7,1.7-0.8c0.4-0.1,0.8,0,1.2,0.1c0.1,0,0.2,0.1,0.3,0.2l0.1,0.1
			c0.4,0.3,0.6,0.8,0.5,1.2c-0.1,0.5-0.3,0.9-0.6,1.2c-0.1,0.1-0.1,0.2-0.2,0.2c-3,2.8-6.3,5.3-9.8,7.5c-0.5,0.3-1.2,0.4-1.8,0.3
			c-0.2,0-0.3-0.1-0.5-0.1c-0.3-0.1-0.6-0.4-0.7-0.7l-0.1-0.3c-0.2-0.4-0.1-1,0.1-1.4c0.1-0.2,0.2-0.3,0.3-0.6
			c0.2-0.3,0.5-0.6,0.9-0.7C141.5,74.8,144.4,72.6,147,70.3z M154.7,70.6c0.5-0.5,1.1-0.8,1.7-1c0.6-0.2,1.1-0.2,1.7,0l0.2,0.1
			c0.4,0.2,0.7,0.6,0.8,1c0,0.5-0.2,1.1-0.6,1.5l-11.4,12.4c-0.7,0.7-1,1.2-0.9,1.5c0,0.2,0.3,0.6,1.1,0.9l4.3,1.8
			c0.7,0.3,1.4,0.2,2-0.2c1.2-0.8,2.4-1.8,3.4-2.9c0.4-0.4,0.8-0.6,1.4-0.6c0.2,0,0.5,0,0.7,0.1c0.1,0.1,0.3,0.2,0.5,0.3
			c0,0.1,0.1,0.1,0.1,0.2c0.3,0.4,0.4,1,0.3,1.5c-0.1,0.5-0.3,0.9-0.7,1.2l-0.2,0.2c-1.5,1.6-3.4,2.9-5.4,3.7
			c-1.5,0.5-3.2,0.4-4.6-0.3l-5-2.1c-1.9-0.8-2.9-1.7-3.1-2.7c-0.1-1,0.8-2.4,2.5-4.3L154.7,70.6z M165.8,78.5
			c0.1-0.4,0.3-0.7,0.5-1c0.1-0.1,0.3-0.3,0.5-0.3c0.5-0.4,1.1-0.6,1.7-0.7h0.3c0.4,0,0.8,0,1.1,0.1c0.1,0.1,0.3,0.1,0.5,0.2
			c0.4,0.3,0.6,0.9,0.5,1.4c-0.6,3.3-1.6,6.5-3.1,9.5c-0.1,0.3-0.3,0.5-0.5,0.7c-0.3,0.3-0.6,0.5-0.9,0.7c-0.6,0.3-1.2,0.5-1.9,0.6
			h-0.8c-0.3,0-0.5,0-0.8-0.1c-0.2-0.1-0.4-0.3-0.5-0.5c-0.2-0.4-0.2-0.9,0-1.2C164,84.9,165.2,81.8,165.8,78.5L165.8,78.5z
			 M162.6,64.6c-0.2-0.4-0.2-0.9,0-1.2c0.1-0.1,0.2-0.2,0.2-0.3c0.3-0.3,0.6-0.5,1-0.7l0.2-0.1c0.6-0.2,1.3-0.3,2-0.2
			c0.2,0,0.5,0.1,0.7,0.2c0.3,0.1,0.5,0.3,0.7,0.6c1.6,2.1,2.8,4.3,3.8,6.7c0.2,0.5,0.1,1-0.2,1.4c-0.1,0.1-0.2,0.2-0.2,0.3
			c-0.3,0.4-0.8,0.7-1.2,0.8l-0.7,0.2c-0.6,0.2-1.2,0.3-1.8,0.2c-0.1,0-0.2-0.1-0.2-0.1c-0.4-0.1-0.7-0.4-0.8-0.8
			C165.3,69,164.1,66.7,162.6,64.6L162.6,64.6z"/>
		<path id="Path_7055" class="st3" d="M190.2,79.9c0.7,0.3,1.5,0.6,2.1,1c0.2,0.2,0.4,0.5,0.3,0.8c0,0.3-0.2,0.7-0.5,0.9
			c-4.1,4.1-8.5,7.7-13.3,10.9c-0.2,0.1-0.2,0.2-0.2,0.3c0.2,0.9,0.3,1.8,0.5,2.5c0.1,0.6-0.2,1.2-0.7,1.6c-0.4,0.5-1,0.9-1.6,1.1
			l-0.2,0.1c-0.5,0.2-1.1,0.2-1.6,0.1h-0.1c-0.5-0.2-0.7-0.5-0.7-0.9c0-0.6-0.1-1.2-0.1-2c0-0.1-0.1-0.2-0.3-0.1
			c-2.5,1.2-5.2,2-7.9,2.6c-0.4,0.1-0.8,0-1.1-0.1c-0.1,0-0.2-0.1-0.3-0.2c-0.4-0.3-0.5-0.8-0.5-1.2V97c0.1-0.4,0.2-0.7,0.5-1
			l0.2-0.2c0.4-0.4,1-0.7,1.6-0.8c2.4-0.4,4.7-1.2,6.9-2.4c0.2-0.1,0.2-0.2,0.2-0.3c-0.1-0.3-0.2-0.9-0.5-1.6c0-0.1-0.1-0.1-0.2,0
			c-0.2,0.1-0.5,0.2-0.8,0.2c-0.2,0-0.4-0.1-0.6-0.2l-0.5-0.7c-0.2-0.4-0.2-0.9-0.1-1.4c0.1-0.3,0.3-0.6,0.6-0.9
			c0.1-0.2,0.3-0.4,0.6-0.5c2.4-1.8,5.2-4.1,8.5-6.8c0.1-0.1,0.1-0.2,0-0.3c0,0,0,0,0,0l-0.5-0.2c-0.4-0.2-0.7-0.6-0.8-1
			c0-0.5,0.2-1,0.6-1.4c0.4-0.5,1-0.8,1.6-0.9c0.5-0.2,1.1-0.2,1.6,0l1.1,0.5c0.1,0.1,0.3,0,0.5-0.1c1.7-1.4,3.2-2.6,4.4-3.7
			c0.5-0.4,1.1-0.7,1.7-0.8c0.5-0.1,1-0.1,1.5,0.1c0.1,0,0.1,0,0.1,0.1c0,0,0,0,0,0c0.5,0.2,0.7,0.7,0.6,1.1c0,0.4-0.2,0.8-0.6,1.1
			c-0.1,0.1-0.2,0.2-0.3,0.2c-1.2,1.1-2.7,2.3-4.2,3.4c-0.1,0.1-0.1,0.2,0,0.3c0,0,0,0,0,0L190.2,79.9z M186.6,83.3
			c0.1-0.1,0.1-0.2,0-0.3c0,0,0,0,0,0l-2.1-0.9c-0.1-0.1-0.3,0-0.5,0.1c-1.8,1.5-4.2,3.4-7,5.5c-0.1,0.1-0.2,0.2-0.1,0.3
			c0.2,0.7,0.5,1.4,0.8,2c0,0.1,0.1,0.1,0.3,0C181,88,183.9,85.7,186.6,83.3L186.6,83.3z M202.9,93.5c0.4,0.2,0.7,0.6,0.8,1
			c0,0.5-0.2,1-0.6,1.4c-0.4,0.5-1,0.8-1.6,1c-0.5,0.2-1.2,0.2-1.7,0l-4.9-2c-0.1-0.1-0.2,0-0.5,0.1l-7.8,8.6
			c-0.7,0.7-1.4,1.4-2.3,2c-0.7,0.4-1.5,0.6-2.3,0.7c-1.4,0-2.7-0.3-4-0.8h-0.1c-0.4-0.2-0.8-0.6-0.9-1c-0.1-0.5-0.1-1.1,0.2-1.6
			c0-0.1,0.1-0.2,0.1-0.3c0.1-0.1,0.1-0.3,0.3-0.5c0.2-0.2,0.5-0.4,0.8-0.6c0.4-0.2,0.9-0.2,1.4-0.1l0,0c0.4,0.2,0.8,0.4,1.2,0.6
			c0.2,0.1,0.4,0.2,0.7,0.2c0.2,0.1,0.4,0.1,0.6,0.1c0.2,0,0.4-0.2,0.6-0.3l7.8-8.6c0.1-0.1,0.1-0.2,0-0.3c0,0,0,0,0,0l-4.5-1.9
			c-0.4-0.2-0.7-0.6-0.8-1c0-0.5,0.2-1,0.6-1.4c0.4-0.5,1-0.8,1.6-1c0.5-0.2,1.2-0.2,1.7,0l4.5,1.9c0.1,0.1,0.2,0,0.3-0.1l2-2.3
			c0.3-0.3,0.6-0.4,0.9-0.6c0.3-0.1,0.7-0.1,1,0h0.3c2-0.6,3.9-1.3,5.8-2.1c0.1,0,0.1,0,0.1-0.1c0,0,0,0,0,0v-0.1l-7.7-3.3
			c-0.4-0.2-0.7-0.6-0.8-1c0-0.5,0.2-1,0.6-1.4c0.4-0.5,1-0.8,1.6-0.9c0.5-0.2,1.1-0.2,1.6,0l10.3,4.4h0.2c0.2,0,0.3,0.1,0.5,0.1
			c0.3,0.1,0.5,0.3,0.6,0.6l0.2,0.8c0.1,0.4,0,0.9-0.2,1.2c-0.1,0.1-0.1,0.2-0.2,0.2c-0.3,0.3-0.6,0.5-1,0.7
			c-3.4,1.4-6.8,2.6-10.3,3.6c-0.2,0-0.3,0.1-0.5,0.3l-1.1,1.2c-0.1,0.1-0.1,0.2,0,0.3c0,0,0,0,0,0L202.9,93.5z"/>
		<path id="Path_7056" class="st3" d="M212.5,113.8c-0.1,0.1-0.1,0.2,0,0.3c0,0,0,0,0,0l9.9,4.3c0.4,0.2,0.7,0.6,0.8,1
			c0,0.5-0.2,1.1-0.6,1.5l0,0c-0.5,0.5-1.1,0.8-1.7,1c-0.6,0.2-1.1,0.2-1.7,0L195,111.5c-0.4-0.2-0.7-0.6-0.8-1
			c0-0.5,0.2-1.1,0.6-1.5l0,0c0.5-0.5,1.1-0.8,1.7-1c0.6-0.2,1.1-0.2,1.7,0l9.8,4.3c0.1,0.1,0.3,0,0.5-0.1l5.1-5.5
			c0.1-0.1,0.1-0.2,0-0.3c0,0,0,0,0,0l-6.3-2.7c-0.4-0.2-0.7-0.6-0.8-1c0-0.5,0.2-1.1,0.6-1.5c0.5-0.4,1-0.8,1.6-1
			c0.5-0.2,1.2-0.2,1.7,0l6.3,2.7c0.1,0.1,0.3,0,0.5-0.1l4.4-4.9c0.1-0.1,0.1-0.2,0-0.3c0,0,0,0,0,0l-5.9-2.6c-0.1-0.1-0.3,0-0.5,0
			c-1.6,0.8-2.9,1.5-4.2,2c-0.6,0.2-1.2,0.3-1.8,0.2c-0.1,0-0.2-0.1-0.2-0.1c-0.4-0.1-0.7-0.4-0.8-0.8c0-0.1-0.1-0.2-0.1-0.3
			c-0.1-0.5-0.1-1,0.2-1.4c0.1-0.1,0.1-0.2,0.2-0.2c0.3-0.3,0.7-0.6,1.1-0.8c3.8-1.6,7.5-3.7,10.9-6.1c0.5-0.4,1.1-0.7,1.8-0.7
			c0.4,0,0.8,0,1.1,0.1c0.1,0.1,0.2,0.1,0.3,0.2l0.2,0.2c0.4,0.3,0.5,0.8,0.3,1.2c-0.1,0.3-0.3,0.6-0.5,0.9
			c-0.2,0.2-0.4,0.3-0.6,0.5c-1,0.7-2,1.4-3.1,2c-0.1,0-0.1,0.1-0.1,0.1c0,0.1,0.1,0.1,0.1,0.1l4.3,1.8c0.1,0.1,0.3,0,0.5-0.1
			l3.2-3.5c0.5-0.4,1-0.8,1.6-1c0.6-0.2,1.1-0.2,1.7,0l0.3,0.1c0.4,0.2,0.7,0.6,0.8,1c0,0.5-0.2,1.1-0.6,1.5l-3.2,3.5
			c-0.1,0.1-0.1,0.2,0,0.3c0,0,0,0,0,0l8.4,3.6c0.4,0.2,0.7,0.6,0.8,1c0,0.5-0.2,1.1-0.6,1.5l0,0c-0.5,0.4-1,0.8-1.6,1
			c-0.5,0.2-1.2,0.2-1.7,0l-8.4-3.6c-0.1-0.1-0.2,0-0.3,0.1l-4.4,4.9c-0.1,0.1-0.1,0.2,0,0.3c0,0,0,0,0,0l7.2,3.1
			c0.4,0.2,0.7,0.6,0.8,1c0,0.5-0.2,1.1-0.6,1.5c-0.5,0.4-1,0.8-1.6,1c-0.5,0.2-1.2,0.2-1.7,0l-7.2-3.1c-0.1-0.1-0.2,0-0.5,0.1
			L212.5,113.8z"/>
		<path id="Path_7057" class="st3" d="M229,124.7c-0.5,0.2-1.1,0.3-1.7,0.2c-0.1,0-0.2-0.1-0.2-0.1c-0.3-0.1-0.6-0.4-0.7-0.8
			l-0.1-0.5c-0.1-0.5,0-1.1,0.3-1.5c0.1-0.1,0.1-0.2,0.2-0.3c0.4-0.4,0.8-0.7,1.2-0.9c3.3-1.5,6.7-3.1,9.9-4.7
			c0.5-0.2,1-0.3,1.6-0.2c0.1,0,0.2,0,0.2,0.1c0.4,0.1,0.6,0.4,0.6,0.8v0.1c0.1,0.6-0.1,1.1-0.5,1.6c-0.1,0.1-0.2,0.3-0.3,0.5
			c-0.3,0.4-0.8,0.7-1.2,0.9C235.2,121.6,232,123.3,229,124.7z M268,117.8c0,0.5-0.2,1.1-0.6,1.5c-0.4,0.5-1,0.8-1.6,1
			c-0.5,0.2-1.2,0.2-1.7,0l-5.9-2.5c-0.1-0.1-0.3,0-0.5,0.1l-3.1,3.3c-0.1,0.1-0.1,0.2,0,0.3c0,0,0,0,0,0l4.3,1.8
			c0.4,0.2,0.7,0.6,0.8,1c0,0.5-0.2,1.1-0.6,1.5l-7.8,8.6c-0.4,0.5-1,0.8-1.6,1c-0.5,0.2-1.2,0.2-1.7,0l-0.8-0.3
			c-0.2-0.1-0.4-0.3-0.5-0.6c0-0.3,0.1-0.6,0.3-0.8c0.1-0.1,0.1-0.1,0-0.1l-8.9-3.8c-0.1,0-0.2,0-0.3,0.1c-0.3,0.3-0.6,0.5-1,0.6
			c-0.4,0.1-0.8,0.1-1.1,0l-0.6-0.2c-0.4-0.2-0.7-0.6-0.7-1c0-0.5,0.2-1,0.6-1.4l8-8.8c0.5-0.4,1-0.8,1.6-1c0.5-0.2,1.2-0.2,1.7,0
			l4.3,1.8c0.1,0.1,0.2,0,0.5-0.1l3.1-3.3c0.1-0.1,0.1-0.2,0-0.3c0,0,0,0,0,0l-6.2-2.7c-0.4-0.2-0.7-0.6-0.8-1
			c0-0.5,0.2-1.1,0.6-1.5c0.4-0.5,1-0.8,1.6-1c0.5-0.2,1.2-0.2,1.7,0l6.2,2.7c0.1,0.1,0.2,0,0.5-0.1l2.8-3.1c0.1-0.1,0.1-0.2,0-0.2
			c-1.4-0.3-2.9-0.8-4.6-1.2c-0.1,0-0.1,0-0.2-0.1c-0.4-0.1-0.7-0.4-0.8-0.8c-0.1-0.5-0.1-1,0.2-1.5c0.1-0.1,0.2-0.3,0.3-0.5
			c0.2-0.2,0.5-0.4,0.8-0.6c0.5-0.2,1-0.3,1.5-0.2c4.2,1.3,8.5,2.2,12.9,2.7c0.3,0,0.7,0.1,1,0.2c0.2,0.1,0.4,0.2,0.6,0.3
			c0.4,0.3,0.7,0.8,0.7,1.4v0.5c0,0.3-0.1,0.6-0.3,0.9c-0.1,0.1-0.2,0.2-0.3,0.2c-0.4,0.3-0.9,0.5-1.5,0.5c-2-0.2-3.9-0.5-5.9-0.9
			c-0.2,0-0.4,0.1-0.5,0.2l-3.3,3.6c-0.1,0.1-0.1,0.2,0,0.3c0,0,0,0,0,0l5.9,2.5C267.6,117,268,117.4,268,117.8L268,117.8z
			 M244.9,109.9c0.2,0.4,0.2,1-0.1,1.4c-0.1,0.2-0.2,0.3-0.3,0.5c-0.3,0.3-0.7,0.6-1.1,0.8l-0.1,0.1c-0.6,0.2-1.2,0.3-1.8,0.2
			c-0.2,0-0.3-0.1-0.5-0.1c-0.3-0.1-0.6-0.4-0.7-0.7c-0.4-0.9-0.9-1.8-1.4-2.7c-0.2-0.4-0.2-0.9,0.1-1.2c0.1-0.1,0.1-0.2,0.2-0.3
			c0.2-0.3,0.6-0.6,1-0.7c0.6-0.2,1.2-0.3,1.8-0.2c0.2,0,0.4,0.1,0.6,0.1c0.3,0.1,0.5,0.3,0.7,0.6
			C244,108.5,244.4,109.2,244.9,109.9L244.9,109.9z M250.2,130.2c0.1,0.1,0.2,0,0.5-0.1l3.6-4c0.1-0.1,0.1-0.2,0-0.3c0,0,0,0,0,0
			l-8.8-3.8c-0.1-0.1-0.3,0-0.5,0.1l-3.6,4c-0.1,0.1-0.1,0.2,0,0.3c0,0,0,0,0,0L250.2,130.2z M253.7,102.5c0.2,0.4,0.1,1-0.1,1.4
			l-0.3,0.3c-0.3,0.3-0.7,0.6-1.1,0.8h-0.2c-0.6,0.2-1.2,0.3-1.8,0.2c-0.1,0-0.2-0.1-0.3-0.1c-0.3-0.1-0.6-0.5-0.8-0.7
			c-0.3-0.7-0.7-1.6-1.2-2.7c-0.2-0.4-0.1-0.9,0.1-1.2c0.1-0.1,0.1-0.2,0.2-0.3c0.3-0.3,0.6-0.5,1-0.7c0.6-0.2,1.2-0.3,1.8-0.2
			c0.2,0,0.3,0.1,0.5,0.1c0.3,0.1,0.6,0.3,0.8,0.6C252.7,100.7,253.3,101.5,253.7,102.5L253.7,102.5z"/>
	</g>
</g>
</svg>
